<svg xmlns="http://www.w3.org/2000/svg" viewBox="0 0 800 500" width="800" height="500">
  <defs>
    <style>
      text { font-family: 'Arial', 'Helvetica', sans-serif; }
    </style>
  </defs>
  <rect width="800" height="500" fill="#1a1a3e"/>
  <rect width="800" height="500" fill="#1a1a3e"/><circle cx="588.6683986106723" cy="199.0080048664305" r="0.6248747722713215" fill="#fff" opacity="0.388565377026558"/><circle cx="516.8823989201369" cy="61.56596122456983" r="0.940993898254755" fill="#fff" opacity="0.4812529894630695"/><circle cx="606.3749541665846" cy="27.726276727893428" r="1.3812732932142198" fill="#fff" opacity="0.5566445025344657"/><circle cx="216.8430534252879" cy="48.14571407745441" r="1.7006330556502254" fill="#fff" opacity="0.4455088340504634"/><circle cx="90.18290530038885" cy="135.90486459977012" r="0.7478614342796271" fill="#fff" opacity="0.4856214138591919"/><circle cx="427.15674198978525" cy="61.67501067290815" r="1.3025838686518305" fill="#fff" opacity="0.41635571950982286"/><circle cx="321.6390983703244" cy="113.43330123152239" r="1.4655273540999192" fill="#fff" opacity="0.2850009448126416"/><circle cx="56.25166918387645" cy="101.285806835191" r="1.0558564906036962" fill="#fff" opacity="0.5119447277607869"/><circle cx="21.574270585063537" cy="131.8491080333551" r="1.34005107834649" fill="#fff" opacity="0.522277112651337"/><circle cx="373.9369596228201" cy="138.72630675050638" r="1.4877103147980175" fill="#fff" opacity="0.2906961983155501"/><circle cx="98.33331626894477" cy="69.77230275013413" r="0.8137929651688229" fill="#fff" opacity="0.4220640128230562"/><circle cx="308.2794998615638" cy="183.9708573895482" r="1.2611655054341013" fill="#fff" opacity="0.21175548678327136"/><circle cx="157.63670953462315" cy="41.26157771356598" r="1.3213203921105836" fill="#fff" opacity="0.5896624210512749"/><circle cx="623.0407424518853" cy="92.83512317674129" r="1.8986116716805792" fill="#fff" opacity="0.5614438770723008"/><circle cx="565.9037340292454" cy="72.53783195637824" r="1.0457581958565028" fill="#fff" opacity="0.35379073090201246"/><circle cx="333.2149825662769" cy="61.94649408837252" r="1.4693116251353375" fill="#fff" opacity="0.3842286884428561"/><circle cx="455.3642515831648" cy="51.498547727554445" r="1.2475339210004392" fill="#fff" opacity="0.2217944241227807"/><circle cx="275.8379139501833" cy="29.34456916769095" r="1.1091556136306666" fill="#fff" opacity="0.20123082449446048"/><circle cx="145.16432631670418" cy="7.510069678581099" r="1.501566091320209" fill="#fff" opacity="0.518004055500501"/><circle cx="674.8086655901495" cy="116.79505194004295" r="0.8967709549837626" fill="#fff" opacity="0.46456043712799044"/><circle cx="50" cy="410" r="8" fill="#2C3E50"/><ellipse cx="50" cy="425" rx="10" ry="12" fill="#2C3E50"/><circle cx="100" cy="415" r="8" fill="#2C3E50"/><ellipse cx="100" cy="430" rx="10" ry="12" fill="#2C3E50"/><circle cx="150" cy="410" r="8" fill="#2C3E50"/><ellipse cx="150" cy="425" rx="10" ry="12" fill="#2C3E50"/><circle cx="200" cy="415" r="8" fill="#2C3E50"/><ellipse cx="200" cy="430" rx="10" ry="12" fill="#2C3E50"/><circle cx="250" cy="410" r="8" fill="#2C3E50"/><ellipse cx="250" cy="425" rx="10" ry="12" fill="#2C3E50"/><circle cx="300" cy="415" r="8" fill="#2C3E50"/><ellipse cx="300" cy="430" rx="10" ry="12" fill="#2C3E50"/><circle cx="350" cy="410" r="8" fill="#2C3E50"/><ellipse cx="350" cy="425" rx="10" ry="12" fill="#2C3E50"/><circle cx="400" cy="415" r="8" fill="#2C3E50"/><ellipse cx="400" cy="430" rx="10" ry="12" fill="#2C3E50"/><circle cx="450" cy="410" r="8" fill="#2C3E50"/><ellipse cx="450" cy="425" rx="10" ry="12" fill="#2C3E50"/><circle cx="500" cy="415" r="8" fill="#2C3E50"/><ellipse cx="500" cy="430" rx="10" ry="12" fill="#2C3E50"/><circle cx="550" cy="410" r="8" fill="#2C3E50"/><ellipse cx="550" cy="425" rx="10" ry="12" fill="#2C3E50"/><circle cx="600" cy="415" r="8" fill="#2C3E50"/><ellipse cx="600" cy="430" rx="10" ry="12" fill="#2C3E50"/><circle cx="650" cy="410" r="8" fill="#2C3E50"/><ellipse cx="650" cy="425" rx="10" ry="12" fill="#2C3E50"/><circle cx="700" cy="415" r="8" fill="#2C3E50"/><ellipse cx="700" cy="430" rx="10" ry="12" fill="#2C3E50"/><circle cx="750" cy="410" r="8" fill="#2C3E50"/><ellipse cx="750" cy="425" rx="10" ry="12" fill="#2C3E50"/><g transform="translate(400, 320)">
      <ellipse cx="0" cy="15" rx="14" ry="18" fill="#5D4037"/>
      <circle cx="0" cy="-5" r="12" fill="#FFEAA7"/>
      <circle cx="-4" cy="-7" r="2" fill="#333"/>
      <circle cx="4" cy="-7" r="2" fill="#333"/>
      <path d="M-3,-1 Q0,2 3,-1" fill="none" stroke="#333" stroke-width="1.2"/>
      <line x1="12" y1="8" x2="35" y2="-20" stroke="#5D4037" stroke-width="5" stroke-linecap="round"/>
      <rect x="-13" y="-12" width="26" height="4" fill="#E74C3C"/>
    </g><g><circle cx="397.8378637439031" cy="157.5870338728256" r="2.2255300477593742" fill="#FF6B6B" opacity="0.7473213643531569"/><circle cx="397.5500009956177" cy="160.56140229215293" r="1.5811282070562183" fill="#F9CA24" opacity="0.6181768865645256"/><circle cx="400.42355955985585" cy="162.8335492313848" r="1.658599893966132" fill="#FF6B6B" opacity="0.9785672818563701"/><circle cx="399.96107538668343" cy="158.66939741558173" r="0.9632370439992488" fill="#F9CA24" opacity="0.5376647606069204"/><circle cx="402.9070737143678" cy="157.27283567101645" r="2.0545610856001506" fill="#FF6B6B" opacity="0.8648474996716675"/><circle cx="400.2313644313776" cy="157.1064224421068" r="1.1521316581732532" fill="#F9CA24" opacity="0.769799543013262"/><circle cx="404.44401604682326" cy="156.56694943473443" r="1.6884647415213614" fill="#FF6B6B" opacity="0.9511800920193729"/><circle cx="403.76597532211173" cy="152.70892690890304" r="0.74324821786738" fill="#F9CA24" opacity="0.5794887324469941"/><circle cx="405.3221528241551" cy="152.2112519711951" r="2.8863400633663967" fill="#FF6B6B" opacity="0.6315884130485352"/><circle cx="403.05232353845" cy="150.3686279706252" r="1.8452505658622191" fill="#F9CA24" opacity="0.6246858925741976"/><circle cx="409.85811418422963" cy="144.28413538497563" r="2.593590225174899" fill="#FF6B6B" opacity="0.9995780323640331"/><circle cx="406.28612887094937" cy="142.0285342575668" r="0.9732988695621388" fill="#F9CA24" opacity="0.6006842281423601"/><circle cx="415.4749471144381" cy="139.18086709898384" r="1.358484894675566" fill="#FF6B6B" opacity="0.6208130515132588"/><circle cx="410.21943138642933" cy="140.65569854715832" r="1.0791266396156898" fill="#F9CA24" opacity="0.5732877464481607"/><circle cx="417.3151623981385" cy="138.83424214047488" r="1.9314232038265742" fill="#FF6B6B" opacity="0.723379938627234"/><circle cx="416.55883607176986" cy="134.86734276431096" r="0.5333205749097136" fill="#F9CA24" opacity="0.5920721536525857"/><circle cx="420.8124647239169" cy="133.92198509929116" r="2.9691699276715355" fill="#FF6B6B" opacity="0.8022742706188937"/><circle cx="421.2023255936665" cy="132.96965673441343" r="1.4834842910710606" fill="#F9CA24" opacity="0.7030063294426773"/><circle cx="430.3007947945686" cy="135.37466474441737" r="2.56000360015128" fill="#FF6B6B" opacity="0.7033621498301983"/><circle cx="431.12705328588316" cy="131.87789158419932" r="1.3655975596271694" fill="#F9CA24" opacity="0.5858309280905186"/><circle cx="437.2086422679475" cy="134.55188396071773" r="1.8816718185467785" fill="#FF6B6B" opacity="0.8861232504117451"/><circle cx="439.62668235879585" cy="132.74874014628816" r="1.96600573249562" fill="#F9CA24" opacity="0.6516401545945867"/><circle cx="447.0033574358991" cy="136.72368630460966" r="1.2315912371340247" fill="#FF6B6B" opacity="0.7777525325896111"/><circle cx="446.5959379916318" cy="135.01325694920422" r="1.5567705148854083" fill="#F9CA24" opacity="0.5128984516053459"/><circle cx="453.5566313684566" cy="137.60427085438937" r="2.976938257194724" fill="#FF6B6B" opacity="0.6289896337515878"/><circle cx="453.7289946496057" cy="137.7448988621859" r="1.2868671908691227" fill="#F9CA24" opacity="0.6421255303744277"/><circle cx="453.58110121212667" cy="142.52185982633267" r="2.5962719399828798" fill="#FF6B6B" opacity="0.6302882639989428"/><circle cx="455.1551409458098" cy="145.77727655442425" r="0.9110197344934674" fill="#F9CA24" opacity="0.5092949951702587"/><circle cx="462.7695187270683" cy="155.26274451313742" r="2.714229482853682" fill="#FF6B6B" opacity="0.9417660701411477"/><circle cx="461.3270353100417" cy="151.4884909270886" r="1.2929402865269466" fill="#F9CA24" opacity="0.6778759992342831"/><circle cx="461.0075862162353" cy="161.28753515278854" r="2.343600593462045" fill="#FF6B6B" opacity="0.6922629958774248"/><circle cx="464.4715004509543" cy="156.85226912728703" r="1.7479163902901202" fill="#F9CA24" opacity="0.5703336640789785"/><circle cx="463.0473910356585" cy="169.00539641199373" r="2.072766353863389" fill="#FF6B6B" opacity="0.8529688328980639"/><circle cx="463.90886916182836" cy="165.92468020641547" r="0.9046618859862465" fill="#F9CA24" opacity="0.5981743001845854"/><circle cx="458.4842483092914" cy="174.87110854278495" r="2.3160030935744764" fill="#FF6B6B" opacity="0.8529391128077538"/><circle cx="462.65347173370264" cy="175.8776686786584" r="1.8901659590801785" fill="#F9CA24" opacity="0.5143523225293326"/><circle cx="458.27183475932117" cy="184.01218439584136" r="1.3661688790263051" fill="#FF6B6B" opacity="0.7254453505276829"/><circle cx="461.09952582594156" cy="179.2632677000981" r="0.6233070296971528" fill="#F9CA24" opacity="0.6069080363719903"/><circle cx="453.1837322959298" cy="190.62877317078417" r="1.5635425231988953" fill="#FF6B6B" opacity="0.7652428923952708"/><circle cx="454.9119810178855" cy="188.05623961960615" r="1.1986265260695352" fill="#F9CA24" opacity="0.7975758522582246"/><circle cx="451.3289047276088" cy="196.73657289991772" r="2.409813866941308" fill="#FF6B6B" opacity="0.9421913529203898"/><circle cx="447.77539282906105" cy="194.06031984107887" r="0.9659084766996371" fill="#F9CA24" opacity="0.59802759391204"/><circle cx="441.85810383933165" cy="201.3047042577343" r="2.531377380803098" fill="#FF6B6B" opacity="0.6768441514804437"/><circle cx="439.75139739761977" cy="201.29225155352245" r="1.0396272191209477" fill="#F9CA24" opacity="0.5182836213249896"/><circle cx="430.0483369718715" cy="206.19425815057744" r="2.9318411017527923" fill="#FF6B6B" opacity="0.7807068185573858"/><circle cx="434.0588518901286" cy="208.6472519626902" r="1.300326368082404" fill="#F9CA24" opacity="0.536736817698891"/><circle cx="426.8680272057355" cy="211.76588773988482" r="2.8495658503112984" fill="#FF6B6B" opacity="0.9436256469895454"/><circle cx="428.2260294492338" cy="213.40484554740422" r="1.2757181814935818" fill="#F9CA24" opacity="0.5192883988159659"/><circle cx="417.2050834549033" cy="224.4630025176594" r="2.235350220869192" fill="#FF6B6B" opacity="0.9282765690465751"/><circle cx="417.39241292378335" cy="223.26611374384711" r="1.5323259753644147" fill="#F9CA24" opacity="0.6296613874375079"/><circle cx="413.6241614447187" cy="224.8477855395578" r="1.7750559718473173" fill="#FF6B6B" opacity="0.9069352575347118"/><circle cx="413.32120628520636" cy="224.2875315445274" r="1.576619899306305" fill="#F9CA24" opacity="0.5768385279736222"/><circle cx="405.44711884469757" cy="229.010940952948" r="2.014206298338549" fill="#FF6B6B" opacity="0.606760864171685"/><circle cx="410.2418668433724" cy="232.11049992266118" r="0.7134195384463096" fill="#F9CA24" opacity="0.759938044198823"/><circle cx="403.4012094017431" cy="235.67345352094972" r="1.6033929213800098" fill="#FF6B6B" opacity="0.6875229900771755"/><circle cx="405.4618367151031" cy="238.57619820121937" r="0.7424419105602049" fill="#F9CA24" opacity="0.6197319014383711"/><circle cx="398.7803596990347" cy="238.76689527197001" r="1.4257614750046979" fill="#FF6B6B" opacity="0.7035601749070416"/><circle cx="402.06830942469185" cy="241.9836035320487" r="1.4906158621578995" fill="#F9CA24" opacity="0.7425939969702897"/><circle cx="398.5059789361403" cy="244.88613863530495" r="1.9666800793013277" fill="#FF6B6B" opacity="0.8789633881138081"/><circle cx="401.91040251717226" cy="246.86613301529724" r="1.6514153845083328" fill="#F9CA24" opacity="0.6173513418065643"/><circle cx="402.6161624470247" cy="245.61729726755328" r="1.1026348136047297" fill="#FF6B6B" opacity="0.8575066065043933"/><circle cx="400.49881576811555" cy="248.04617977196253" r="0.508952554699102" fill="#F9CA24" opacity="0.5162676978706373"/><circle cx="402.12335332017693" cy="245.6584374822629" r="1.636199156628563" fill="#FF6B6B" opacity="0.7140780985497668"/><circle cx="397.8708072150204" cy="249.40040805030824" r="0.964880925265013" fill="#F9CA24" opacity="0.6191528048082138"/><circle cx="396.1950592013991" cy="251.35736568316122" r="1.6148750131371012" fill="#FF6B6B" opacity="0.7660339278690335"/><circle cx="399.6321047806266" cy="248.0555530535832" r="1.713136884960048" fill="#F9CA24" opacity="0.6721366577279416"/><circle cx="396.72790911404866" cy="242.6017486296545" r="1.497126136555213" fill="#FF6B6B" opacity="0.7896193151488495"/><circle cx="401.75702336549807" cy="244.35227677861863" r="1.4954143218951026" fill="#F9CA24" opacity="0.6467366377638236"/><circle cx="396.54502955760825" cy="241.70515509520618" r="2.2323736184161573" fill="#FF6B6B" opacity="0.8802987143590553"/><circle cx="397.365973842135" cy="242.49234179749354" r="0.6072653037386412" fill="#F9CA24" opacity="0.7188879111242474"/><circle cx="399.2158402746737" cy="240.62496060983506" r="1.9085441310799571" fill="#FF6B6B" opacity="0.8786559234179337"/><circle cx="395.05402170353716" cy="239.4432210863995" r="1.0508118322257647" fill="#F9CA24" opacity="0.7771963590091326"/><circle cx="396.96464845228604" cy="237.07906855855575" r="1.751032392999323" fill="#FF6B6B" opacity="0.694958199392094"/><circle cx="394.8260683650222" cy="235.60876440495068" r="1.597415140751732" fill="#F9CA24" opacity="0.666796469555234"/><circle cx="393.4779657092997" cy="232.49757663009112" r="2.1466714059923815" fill="#FF6B6B" opacity="0.9828471570943147"/><circle cx="389.4322473430913" cy="229.7795815950084" r="1.3328838240395267" fill="#F9CA24" opacity="0.7770729901340369"/><circle cx="382.9812112771766" cy="227.74312954756567" r="1.3647884501754062" fill="#FF6B6B" opacity="0.7749390595939413"/><circle cx="385.88547674746735" cy="225.7923127448179" r="1.908421530808258" fill="#F9CA24" opacity="0.5533506621074693"/><circle cx="383.09255607031173" cy="216.99126014482084" r="2.1699255614417856" fill="#FF6B6B" opacity="0.997010205199598"/><circle cx="380.68485317489916" cy="219.4670662768036" r="0.8606577949854692" fill="#F9CA24" opacity="0.5725770493205772"/><circle cx="374.4900300246223" cy="215.30839656182195" r="2.14949464578515" fill="#FF6B6B" opacity="0.8166801304434826"/><circle cx="371.9714946283745" cy="213.28646891070596" r="1.663689421023711" fill="#F9CA24" opacity="0.5284966297981825"/><circle cx="367.244296256652" cy="209.9452858025004" r="2.11272394833638" fill="#FF6B6B" opacity="0.8255195066991539"/><circle cx="363.69780071467744" cy="207.54150051250812" r="1.2546389181572983" fill="#F9CA24" opacity="0.6463897301337959"/><circle cx="359.8793278653591" cy="200.53957213753014" r="2.190499596849488" fill="#FF6B6B" opacity="0.6979475405301406"/><circle cx="355.2242743174269" cy="199.79961175396826" r="1.6199307248989816" fill="#F9CA24" opacity="0.7777734781288265"/><circle cx="347.4358038323926" cy="196.7166631956884" r="1.4140155080086767" fill="#FF6B6B" opacity="0.8240062469973237"/><circle cx="351.7505816826662" cy="194.84748876793574" r="1.5528433164092066" fill="#F9CA24" opacity="0.5667726315171802"/><circle cx="347.23668042656476" cy="186.81197021242184" r="2.4763419874264914" fill="#FF6B6B" opacity="0.6122996244245186"/><circle cx="342.4196024778026" cy="185.93558870650594" r="0.517075333781442" fill="#F9CA24" opacity="0.665656080667823"/><circle cx="343.497604055379" cy="179.9507853584341" r="2.9729310937914715" fill="#FF6B6B" opacity="0.6870338772977866"/><circle cx="337.76087225190935" cy="181.52985665381527" r="1.841054642017154" fill="#F9CA24" opacity="0.672629571793852"/><circle cx="333.44539789008525" cy="168.84054796102657" r="2.813424326076384" fill="#FF6B6B" opacity="0.8611878050518338"/><circle cx="338.2781868751438" cy="171.11234333106677" r="1.0915191597269036" fill="#F9CA24" opacity="0.6936047062349652"/><circle cx="339.69397956124254" cy="165.48413735953326" r="2.360756824500416" fill="#FF6B6B" opacity="0.9895751368587357"/><circle cx="334.9657090222565" cy="166.80397171795255" r="0.5007194726173922" fill="#F9CA24" opacity="0.7559734351787817"/><circle cx="337.3918531120842" cy="157.46733005335133" r="2.1526569198507577" fill="#FF6B6B" opacity="0.7964912144937306"/><circle cx="337.2414205004611" cy="157.57539547278162" r="1.2398148277777103" fill="#F9CA24" opacity="0.6475828832847149"/><circle cx="340.94899594796243" cy="148.61576194758268" r="2.1043423281190443" fill="#FF6B6B" opacity="0.7077254059094121"/><circle cx="337.529962527292" cy="148.33068715597355" r="1.6522878954278704" fill="#F9CA24" opacity="0.5042564108497939"/><circle cx="343.28990657865967" cy="144.29745106136872" r="2.0292531217846728" fill="#FF6B6B" opacity="0.7340528664624405"/><circle cx="343.10802219531706" cy="145.07605590017798" r="1.9956797008701712" fill="#F9CA24" opacity="0.5070032945815199"/><circle cx="350.3320830859392" cy="138.4937155597392" r="1.7971405270621215" fill="#FF6B6B" opacity="0.7410633225077801"/><circle cx="351.46622670653414" cy="137.54620322325314" r="1.9525903878070696" fill="#F9CA24" opacity="0.7524762316760885"/><circle cx="356.88224167702134" cy="138.45983795294137" r="2.8521412929868695" fill="#FF6B6B" opacity="0.7844945170539505"/><circle cx="355.1603327181652" cy="135.29304537048324" r="1.7381856490625094" fill="#F9CA24" opacity="0.677933053783508"/><circle cx="361.4840199805169" cy="129.12278376993982" r="1.8683798796630828" fill="#FF6B6B" opacity="0.6433046577253098"/><circle cx="361.1604662726917" cy="131.55641051097484" r="0.8027519170864523" fill="#F9CA24" opacity="0.5470040807488482"/><circle cx="366.7551141803601" cy="129.67028926761174" r="1.8818960936909968" fill="#FF6B6B" opacity="0.819492618263574"/><circle cx="372.9492621836689" cy="134.56413760268458" r="1.9277312730102725" fill="#F9CA24" opacity="0.5650523736580618"/><circle cx="377.745131855678" cy="131.61156635975362" r="1.3354979922685126" fill="#FF6B6B" opacity="0.6958154753593958"/><circle cx="377.9038608701564" cy="131.66275364332608" r="1.8028957848534215" fill="#F9CA24" opacity="0.7969441135721892"/><circle cx="383.77287480576683" cy="138.978112850932" r="1.8168424965661527" fill="#FF6B6B" opacity="0.6119956367518615"/><circle cx="382.50698336512625" cy="136.88297245849938" r="0.9558049324284278" fill="#F9CA24" opacity="0.6699180940927432"/><circle cx="388.83206075444565" cy="140.32664847897271" r="2.0682045160208364" fill="#FF6B6B" opacity="0.7514253335343941"/><circle cx="388.8845008160308" cy="140.9988117706522" r="1.8776326443355558" fill="#F9CA24" opacity="0.5293129088643065"/><circle cx="393.3645048423391" cy="143.66641742797506" r="1.475135829884855" fill="#FF6B6B" opacity="0.6778288044753373"/><circle cx="393.41005114034374" cy="142.56321183653003" r="1.690479644106138" fill="#F9CA24" opacity="0.6815086726331474"/><circle cx="396.3069632846459" cy="145.7508837646645" r="1.7708716567561216" fill="#FF6B6B" opacity="0.635385105144843"/><circle cx="399.0863598789954" cy="150.56906533444734" r="1.805182679415454" fill="#F9CA24" opacity="0.5459968191979703"/><circle cx="397.40687120152296" cy="156.0554787345498" r="2.8041671470435308" fill="#FF6B6B" opacity="0.8507216219792262"/><circle cx="399.5607861068749" cy="154.70368243379528" r="0.7936171554294154" fill="#F9CA24" opacity="0.6309361091960057"/><circle cx="397.6827107491681" cy="161.21156935453976" r="1.948109464790785" fill="#FF6B6B" opacity="0.6677717525450083"/><circle cx="397.6330794432248" cy="159.14947340983778" r="1.855706834340781" fill="#F9CA24" opacity="0.6974152175124974"/><circle cx="402.8689799037587" cy="162.21271859934762" r="1.892507901479159" fill="#FF6B6B" opacity="0.8225670405865702"/><circle cx="399.98170776240437" cy="159.44792632262647" r="1.9113789092734388" fill="#F9CA24" opacity="0.6391371259649353"/><circle cx="408.31674426169184" cy="201.8455739365317" r="0.6392135733975927" fill="#fff" opacity="0.4532074667706372"/><circle cx="398.8310702529684" cy="206.94575127459336" r="0.6262105573935125" fill="#fff" opacity="0.7298916620156304"/><circle cx="408.9597990143471" cy="136.21273624084876" r="1.1902154706332924" fill="#fff" opacity="0.37038222024748296"/><circle cx="395.0716245851687" cy="180.25976433803518" r="0.6756417598105318" fill="#fff" opacity="0.673187308062569"/><circle cx="410.9409458889277" cy="136.96442167062082" r="0.5228962590596173" fill="#fff" opacity="0.6737607967794458"/><circle cx="427.6869593365787" cy="211.44770234849634" r="1.094120814432248" fill="#fff" opacity="0.5888417711781787"/><circle cx="425.3817891238987" cy="235.4871031609232" r="0.6481480688243947" fill="#fff" opacity="0.3991239476592422"/><circle cx="392.43708232221235" cy="150.58865721161635" r="1.1270837250239452" fill="#fff" opacity="0.49530871561984113"/><circle cx="386.1515477290883" cy="132.94165340660345" r="0.5742082995873994" fill="#fff" opacity="0.5204921528471667"/><circle cx="361.21039980387314" cy="149.89579190884842" r="1.296734322100919" fill="#fff" opacity="0.7907044207322687"/><circle cx="354.3735174450332" cy="199.21014329169128" r="0.8947434158849356" fill="#fff" opacity="0.6723532229958877"/><circle cx="360.27794787212247" cy="235.00165442399154" r="0.6025246331237744" fill="#fff" opacity="0.4407176645929116"/><circle cx="383.7940814294226" cy="231.98867212783654" r="1.2908280618421193" fill="#fff" opacity="0.7020044750728847"/><circle cx="364.9305597691333" cy="159.99638192653242" r="0.9809771814813398" fill="#fff" opacity="0.6152560924892261"/><circle cx="409.6810491058154" cy="235.0040502638651" r="1.3714950915989628" fill="#fff" opacity="0.5739961533851934"/><circle cx="395.6285137501765" cy="233.39085154486722" r="0.8866451866105309" fill="#fff" opacity="0.4046638280491728"/><circle cx="354.7017497658427" cy="167.5389914005611" r="1.2603648508748502" fill="#fff" opacity="0.7140530499166347"/><circle cx="427.7335028933312" cy="217.67923981190148" r="0.6314207572619295" fill="#fff" opacity="0.66083038372051"/><circle cx="371.9331220367757" cy="137.3345037764524" r="0.7642838207338003" fill="#fff" opacity="0.3520314271425615"/><circle cx="355.0702492679622" cy="161.26830061803037" r="0.8050255900692095" fill="#fff" opacity="0.37976438076843017"/><circle cx="387.83755330910253" cy="120.7987874233575" r="0.5131642083716551" fill="#fff" opacity="0.5016283510759603"/><circle cx="367.3331413523888" cy="171.457974685417" r="0.7428570388335128" fill="#fff" opacity="0.4015624031596173"/><circle cx="364.08627228148487" cy="145.7969874687073" r="0.5525133751625733" fill="#fff" opacity="0.6770474184906146"/><circle cx="403.20983251042526" cy="231.3274332285373" r="0.718033352214192" fill="#fff" opacity="0.4653419467705023"/><circle cx="409.45595480798704" cy="215.10925805877707" r="1.4808822468774845" fill="#fff" opacity="0.4018654717726178"/><circle cx="406.2984868482193" cy="212.4977213939283" r="0.8384432810994648" fill="#fff" opacity="0.682870575405816"/><circle cx="356.48968826262205" cy="184.1257862193413" r="1.4755979038612526" fill="#fff" opacity="0.7531979917122582"/><circle cx="365.32492893493986" cy="191.8632078814605" r="0.7394148722517631" fill="#fff" opacity="0.5165565367072382"/><circle cx="431.53676404944173" cy="238.56660905384314" r="1.0860819895346792" fill="#fff" opacity="0.4095657541603739"/><circle cx="380.40497171570865" cy="141.0083105295136" r="1.3825914268215271" fill="#fff" opacity="0.742348848878507"/></g><text x="150" y="395" font-size="14" fill="#FF6B6B" opacity="0.8">Oooh!</text><text x="400" y="400" text-anchor="middle" font-size="16" fill="#FF6B6B" opacity="0.8">Aaah!</text><text x="600" y="395" font-size="14" fill="#FF6B6B" opacity="0.8">Wow!</text>
</svg>