<svg xmlns="http://www.w3.org/2000/svg" viewBox="0 0 800 500" width="800" height="500">
  <defs>
    <style>
      text { font-family: 'Arial', 'Helvetica', sans-serif; }
    </style>
  </defs>
  <rect width="800" height="500" fill="#87CEEB"/>
  <g transform="translate(100,40) scale(1)">
    <ellipse cx="0" cy="0" rx="40" ry="25" fill="#fff" opacity="0.9"/>
    <ellipse cx="-30" cy="5" rx="25" ry="18" fill="#fff" opacity="0.9"/>
    <ellipse cx="30" cy="5" rx="28" ry="20" fill="#fff" opacity="0.9"/>
    <ellipse cx="15" cy="-10" rx="20" ry="15" fill="#fff" opacity="0.9"/>
  </g><circle cx="680" cy="55" r="30" fill="#FFD93D"/>
    <g stroke="#FFD93D" stroke-width="3" fill="none">
      <line x1="718" y1="55" x2="730" y2="55"/><line x1="706.8700576850888" y1="81.8700576850888" x2="715.3553390593274" y2="90.35533905932738"/><line x1="680" y1="93" x2="680" y2="105"/><line x1="653.1299423149112" y1="81.87005768508881" x2="644.6446609406727" y2="90.35533905932738"/><line x1="642" y1="55.00000000000001" x2="630" y2="55.00000000000001"/><line x1="653.1299423149112" y1="28.129942314911197" x2="644.6446609406726" y2="19.64466094067263"/><line x1="680" y1="17" x2="680" y2="5"/><line x1="706.8700576850888" y1="28.129942314911187" x2="715.3553390593273" y2="19.644660940672615"/>
    </g><g transform="translate(600, 200)">
      <path d="M-50,-15 L0,-40 L50,-15" fill="#C0392B"/>
      <rect x="-40" y="-15" width="80" height="50" fill="#F5E6CC"/>
      <rect x="-8" y="5" width="16" height="30" rx="6" fill="#8B4513"/>
    </g><rect x="0" y="380" width="800" height="120" fill="#7BC67E" opacity="0.5"/><g transform="translate(300, 200)">
      <path d="M0,180 Q-20,150 10,120 Q30,90 -10,60 Q-30,30 10,0" fill="none" stroke="#5D4037" stroke-width="15"/>
      <ellipse cx="10" cy="-10" rx="40" ry="30" fill="#27AE60"/>
      <ellipse cx="-10" cy="50" rx="35" ry="25" fill="#2ECC71"/>
      <ellipse cx="20" cy="100" rx="30" ry="20" fill="#27AE60"/>
      <path d="M10,0 Q40,-20 60,-40" fill="none" stroke="#5D4037" stroke-width="6"/>
      <ellipse cx="65" cy="-45" rx="20" ry="15" fill="#27AE60"/>
      <path d="M-10,60 Q-40,80 -60,70" fill="none" stroke="#5D4037" stroke-width="6"/>
      <ellipse cx="-65" cy="68" rx="20" ry="15" fill="#2ECC71"/>
    </g><g transform="translate(280,320) scale(0.8)">
    <ellipse cx="0" cy="0" rx="10" ry="8" fill="#4ECDC4"/>
    <circle cx="-7" cy="-5" r="6" fill="#4ECDC4"/>
    <circle cx="-5" cy="-6" r="1.5" fill="#333"/>
    <polygon points="-13,-5 -18,-3 -13,-2" fill="#FF6B6B"/>
    <path d="M5,-3 Q12,-8 8,2" fill="#4ECDC4" stroke="#4ECDC4" stroke-width="1"/>
  </g><g transform="translate(340,300) scale(0.7)">
    <ellipse cx="0" cy="0" rx="10" ry="8" fill="#FF6B6B"/>
    <circle cx="-7" cy="-5" r="6" fill="#FF6B6B"/>
    <circle cx="-5" cy="-6" r="1.5" fill="#333"/>
    <polygon points="-13,-5 -18,-3 -13,-2" fill="#FF6B6B"/>
    <path d="M5,-3 Q12,-8 8,2" fill="#FF6B6B" stroke="#FF6B6B" stroke-width="1"/>
  </g><g transform="translate(270,360) scale(0.6)">
    <ellipse cx="0" cy="0" rx="10" ry="8" fill="#F39C12"/>
    <circle cx="-7" cy="-5" r="6" fill="#F39C12"/>
    <circle cx="-5" cy="-6" r="1.5" fill="#333"/>
    <polygon points="-13,-5 -18,-3 -13,-2" fill="#FF6B6B"/>
    <path d="M5,-3 Q12,-8 8,2" fill="#F39C12" stroke="#F39C12" stroke-width="1"/>
  </g><text x="280" y="308" font-size="12" fill="#333">?</text><text x="345" y="288" font-size="12" fill="#333">?</text><g transform="translate(550, 280)">
      <path d="M0,100 Q20,70 -10,50 Q-25,30 5,10 Q20,-5 0,-15" fill="none" stroke="#5D4037" stroke-width="10"/>
      <ellipse cx="0" cy="-20" rx="25" ry="20" fill="#27AE60"/>
      <ellipse cx="-15" cy="30" rx="20" ry="15" fill="#2ECC71"/>
      <path d="M5,10 Q30,0 45,-10" fill="none" stroke="#5D4037" stroke-width="4"/>
      <ellipse cx="48" cy="-12" rx="12" ry="10" fill="#27AE60"/>
    </g><g transform="translate(100, 350)">
      <line x1="0" y1="0" x2="0" y2="40" stroke="#5D4037" stroke-width="3"/>
      <rect x="-40" y="-15" width="80" height="25" rx="3" fill="#F5E6CC" stroke="#8B7355" stroke-width="1"/>
      <text x="0" y="0" text-anchor="middle" font-size="8" fill="#333">1000-year old pines</text>
      <text x="0" y="10" text-anchor="middle" font-size="7" fill="#333">(still dabbing)</text>
    </g>
</svg>