<svg xmlns="http://www.w3.org/2000/svg" viewBox="0 0 800 500" width="800" height="500">
  <defs>
    <style>
      text { font-family: 'Arial', 'Helvetica', sans-serif; }
    </style>
  </defs>
  <rect width="800" height="500" fill="#87CEEB"/>
  <polygon points="0,0 120,0 80,500 0,500" fill="#8B7355"/><polygon points="800,0 680,0 720,500 800,500" fill="#7B6345"/><rect x="0" y="350" width="800" height="150" fill="#48C9B0"/>
    <path d="M0,365 Q50,358 100,365 Q150,372 200,365" fill="none" stroke="#fff" stroke-width="1.5" opacity="0.5"/><path d="M200,365 Q250,358 300,365 Q350,372 400,365" fill="none" stroke="#fff" stroke-width="1.5" opacity="0.5"/><path d="M400,365 Q450,358 500,365 Q550,372 600,365" fill="none" stroke="#fff" stroke-width="1.5" opacity="0.5"/><path d="M600,365 Q650,358 700,365 Q750,372 800,365" fill="none" stroke="#fff" stroke-width="1.5" opacity="0.5"/><path d="M800,365 Q850,358 900,365 Q950,372 1000,365" fill="none" stroke="#fff" stroke-width="1.5" opacity="0.5"/><g transform="translate(400, 340)">
      <rect x="-60" y="0" width="120" height="15" rx="5" fill="#A0522D"/>
      <rect x="-55" y="2" width="10" height="11" rx="2" fill="#8B4513"/>
      <rect x="-40" y="2" width="10" height="11" rx="2" fill="#8B4513"/>
      <rect x="-25" y="2" width="10" height="11" rx="2" fill="#8B4513"/>
      <rect x="-10" y="2" width="10" height="11" rx="2" fill="#8B4513"/>
      <rect x="5" y="2" width="10" height="11" rx="2" fill="#8B4513"/>
      <rect x="20" y="2" width="10" height="11" rx="2" fill="#8B4513"/>
      <rect x="35" y="2" width="10" height="11" rx="2" fill="#8B4513"/>
    </g><g transform="scale(0.7)">
    <!-- body -->
    <ellipse cx="360" cy="305" rx="14" ry="20" fill="#E74C3C"/>
    <!-- legs -->
    <line x1="353" y1="322" x2="351" y2="338" stroke="#E74C3C" stroke-width="5" stroke-linecap="round"/>
    <line x1="367" y1="322" x2="369" y2="338" stroke="#E74C3C" stroke-width="5" stroke-linecap="round"/>
    <!-- arms -->
    <line x1="348" y1="295" x2="342" y2="310" stroke="#E74C3C" stroke-width="5" stroke-linecap="round"/><line x1="372" y1="295" x2="378" y2="310" stroke="#E74C3C" stroke-width="5" stroke-linecap="round"/>
    <!-- head -->
    <circle cx="360" cy="270" r="16" fill="#FFEAA7"/>
    <!-- hair -->
    <ellipse cx="360" cy="258" rx="16" ry="8" fill="#333"/>
    <circle cx="354" cy="264" r="3" fill="#fff" stroke="#333" stroke-width="1.5"/>
      <circle cx="354" cy="264" r="1.5" fill="#333"/>
      <circle cx="366" cy="264" r="3" fill="#fff" stroke="#333" stroke-width="1.5"/>
      <circle cx="366" cy="264" r="1.5" fill="#333"/>
    <ellipse cx="360" cy="276" rx="6" ry="8" fill="#333"/>
    <!-- blush -->
    <circle cx="350" cy="271" r="3" fill="#FF9999" opacity="0.4"/>
    <circle cx="370" cy="271" r="3" fill="#FF9999" opacity="0.4"/>
  </g><g transform="scale(0.7)">
    <!-- body -->
    <ellipse cx="400" cy="303" rx="14" ry="20" fill="#3498DB"/>
    <!-- legs -->
    <line x1="393" y1="320" x2="391" y2="336" stroke="#3498DB" stroke-width="5" stroke-linecap="round"/>
    <line x1="407" y1="320" x2="409" y2="336" stroke="#3498DB" stroke-width="5" stroke-linecap="round"/>
    <!-- arms -->
    <line x1="388" y1="293" x2="382" y2="308" stroke="#3498DB" stroke-width="5" stroke-linecap="round"/><line x1="412" y1="293" x2="418" y2="308" stroke="#3498DB" stroke-width="5" stroke-linecap="round"/>
    <!-- head -->
    <circle cx="400" cy="268" r="16" fill="#FFEAA7"/>
    <!-- hair -->
    <ellipse cx="400" cy="256" rx="16" ry="8" fill="#333"/>
    <circle cx="394" cy="262" r="3" fill="#fff" stroke="#333" stroke-width="1.5"/>
      <circle cx="394" cy="262" r="1.5" fill="#333"/>
      <circle cx="406" cy="262" r="3" fill="#fff" stroke="#333" stroke-width="1.5"/>
      <circle cx="406" cy="262" r="1.5" fill="#333"/>
    <ellipse cx="400" cy="274" rx="6" ry="8" fill="#333"/>
    <!-- blush -->
    <circle cx="390" cy="269" r="3" fill="#FF9999" opacity="0.4"/>
    <circle cx="410" cy="269" r="3" fill="#FF9999" opacity="0.4"/>
  </g><g transform="translate(450, 310) rotate(130)">
      <ellipse cx="0" cy="8" rx="8" ry="12" fill="#2ECC71"/>
      <circle cx="0" cy="-6" r="9" fill="#FFEAA7"/>
      <circle cx="-3" cy="-8" r="2" fill="#fff" stroke="#333"/>
      <circle cx="-3" cy="-8" r="1" fill="#333"/>
      <circle cx="3" cy="-8" r="2" fill="#fff" stroke="#333"/>
      <circle cx="3" cy="-8" r="1" fill="#333"/>
      <ellipse cx="0" cy="-1" rx="4" ry="5" fill="#333"/>
      <line x1="-8" y1="2" x2="-20" y2="-8" stroke="#2ECC71" stroke-width="3" stroke-linecap="round"/>
      <line x1="8" y1="2" x2="18" y2="-10" stroke="#2ECC71" stroke-width="3" stroke-linecap="round"/>
    </g><g opacity="0.8">
      <path d="M430,350 Q440,310 445,355" fill="none" stroke="#fff" stroke-width="3"/>
      <path d="M450,345 Q465,300 470,350" fill="none" stroke="#fff" stroke-width="3"/>
      <path d="M460,355 Q470,325 475,358" fill="none" stroke="#fff" stroke-width="2"/>
      <circle cx="445" cy="340" r="4" fill="#fff" opacity="0.6"/>
      <circle cx="465" cy="330" r="3" fill="#fff" opacity="0.5"/>
      <circle cx="455" cy="320" r="5" fill="#fff" opacity="0.4"/>
      <path d="M440,350 Q430,320 425,355" fill="none" stroke="#fff" stroke-width="2"/>
    </g><text x="400" y="250" text-anchor="middle" font-size="20" fill="#E74C3C" font-weight="bold">AHHHHH!</text>
</svg>