<svg xmlns="http://www.w3.org/2000/svg" viewBox="0 0 800 500" width="800" height="500">
  <defs>
    <style>
      text { font-family: 'Arial', 'Helvetica', sans-serif; }
    </style>
  </defs>
  <rect width="800" height="500" fill="#87CEEB"/>
  <g transform="translate(100,40) scale(1)">
    <ellipse cx="0" cy="0" rx="40" ry="25" fill="#fff" opacity="0.9"/>
    <ellipse cx="-30" cy="5" rx="25" ry="18" fill="#fff" opacity="0.9"/>
    <ellipse cx="30" cy="5" rx="28" ry="20" fill="#fff" opacity="0.9"/>
    <ellipse cx="15" cy="-10" rx="20" ry="15" fill="#fff" opacity="0.9"/>
  </g><circle cx="680" cy="55" r="30" fill="#FFD93D"/>
    <g stroke="#FFD93D" stroke-width="3" fill="none">
      <line x1="718" y1="55" x2="730" y2="55"/><line x1="706.8700576850888" y1="81.8700576850888" x2="715.3553390593274" y2="90.35533905932738"/><line x1="680" y1="93" x2="680" y2="105"/><line x1="653.1299423149112" y1="81.87005768508881" x2="644.6446609406727" y2="90.35533905932738"/><line x1="642" y1="55.00000000000001" x2="630" y2="55.00000000000001"/><line x1="653.1299423149112" y1="28.129942314911197" x2="644.6446609406726" y2="19.64466094067263"/><line x1="680" y1="17" x2="680" y2="5"/><line x1="706.8700576850888" y1="28.129942314911187" x2="715.3553390593273" y2="19.644660940672615"/>
    </g><g transform="translate(500, 200)">
      <rect x="0" y="0" width="80" height="60" fill="#F5E6CC"/>
      <path d="M-5,0 L40,-25 L85,0" fill="#8B4513"/>
      <rect x="15" y="20" width="20" height="30" rx="2" fill="#5D4037"/>
      <rect x="45" y="10" width="15" height="15" rx="1" fill="#85C1E9"/>
    </g><g transform="translate(600, 210)">
      <rect x="0" y="0" width="70" height="50" fill="#F5E6CC"/>
      <path d="M-5,0 L35,-20 L75,0" fill="#8B4513"/>
      <rect x="10" y="15" width="15" height="25" rx="2" fill="#5D4037"/>
    </g><rect x="0" y="350" width="800" height="150" fill="#C4A882" opacity="0.4"/><ellipse cx="200" cy="380" rx="15" ry="8" fill="#BDC3C7" opacity="0.5"/><ellipse cx="250" cy="385" rx="15" ry="8" fill="#BDC3C7" opacity="0.5"/><ellipse cx="300" cy="380" rx="15" ry="8" fill="#BDC3C7" opacity="0.5"/><ellipse cx="350" cy="385" rx="15" ry="8" fill="#BDC3C7" opacity="0.5"/><ellipse cx="400" cy="380" rx="15" ry="8" fill="#BDC3C7" opacity="0.5"/><ellipse cx="450" cy="385" rx="15" ry="8" fill="#BDC3C7" opacity="0.5"/><ellipse cx="500" cy="380" rx="15" ry="8" fill="#BDC3C7" opacity="0.5"/><ellipse cx="550" cy="385" rx="15" ry="8" fill="#BDC3C7" opacity="0.5"/><ellipse cx="600" cy="380" rx="15" ry="8" fill="#BDC3C7" opacity="0.5"/><ellipse cx="650" cy="385" rx="15" ry="8" fill="#BDC3C7" opacity="0.5"/><g transform="translate(250, 280)">
      <rect x="-30" y="20" width="60" height="5" fill="#8B4513"/>
      <rect x="-25" y="25" width="5" height="20" fill="#8B4513"/>
      <rect x="20" y="25" width="5" height="20" fill="#8B4513"/>
    </g><g transform="scale(0.65)">
    <!-- body -->
    <ellipse cx="250" cy="280" rx="14" ry="20" fill="#3498DB"/>
    <!-- legs -->
    <line x1="243" y1="297" x2="241" y2="313" stroke="#3498DB" stroke-width="5" stroke-linecap="round"/>
    <line x1="257" y1="297" x2="259" y2="313" stroke="#3498DB" stroke-width="5" stroke-linecap="round"/>
    <!-- arms -->
    <line x1="238" y1="270" x2="232" y2="285" stroke="#3498DB" stroke-width="5" stroke-linecap="round"/><line x1="262" y1="270" x2="268" y2="285" stroke="#3498DB" stroke-width="5" stroke-linecap="round"/>
    <!-- head -->
    <circle cx="250" cy="245" r="16" fill="#FFEAA7"/>
    <!-- hair -->
    <ellipse cx="250" cy="233" rx="16" ry="8" fill="#333"/>
    <line x1="241" y1="237" x2="245" y2="239" stroke="#333" stroke-width="2"/>
      <circle cx="244" cy="241" r="2" fill="#333"/>
      <line x1="255" y1="237" x2="259" y2="239" stroke="#333" stroke-width="2"/>
      <circle cx="256" cy="241" r="2" fill="#333"/>
    <path d="M245,250 Q250,247 255,250" fill="none" stroke="#333" stroke-width="1.5"/>
    <!-- blush -->
    <circle cx="240" cy="246" r="3" fill="#FF9999" opacity="0.4"/>
    <circle cx="260" cy="246" r="3" fill="#FF9999" opacity="0.4"/>
  </g><rect x="225" y="285" width="50" height="35" fill="#fff" stroke="#ddd" stroke-width="0.5"/><g opacity="0.6">
      <text x="250" y="310" text-anchor="middle" font-size="10" fill="#E74C3C">X X X</text>
    </g><circle cx="231.96118934237433" cy="339.87972999079875" r="3.7058995575065854" fill="#fff" stroke="#ddd" stroke-width="0.5"/><circle cx="289.5169443152342" cy="340.43351948422173" r="5.157646185132693" fill="#fff" stroke="#ddd" stroke-width="0.5"/><circle cx="294.81388422129095" cy="346.87119401963304" r="4.8279507998810285" fill="#fff" stroke="#ddd" stroke-width="0.5"/><circle cx="270.2173311165475" cy="348.20970189806127" r="4.702395460434058" fill="#fff" stroke="#ddd" stroke-width="0.5"/><circle cx="297.19564853966233" cy="356.9532342943045" r="4.6684690351084415" fill="#fff" stroke="#ddd" stroke-width="0.5"/><circle cx="203.80490281929647" cy="335.7603432467789" r="4.476015426354083" fill="#fff" stroke="#ddd" stroke-width="0.5"/><g transform="scale(0.5)">
    <!-- body -->
    <ellipse cx="500" cy="345" rx="14" ry="20" fill="#F39C12"/>
    <!-- legs -->
    <line x1="493" y1="362" x2="491" y2="378" stroke="#F39C12" stroke-width="5" stroke-linecap="round"/>
    <line x1="507" y1="362" x2="509" y2="378" stroke="#F39C12" stroke-width="5" stroke-linecap="round"/>
    <!-- arms -->
    <line x1="488" y1="335" x2="482" y2="350" stroke="#F39C12" stroke-width="5" stroke-linecap="round"/><line x1="512" y1="335" x2="518" y2="350" stroke="#F39C12" stroke-width="5" stroke-linecap="round"/>
    <!-- head -->
    <circle cx="500" cy="310" r="16" fill="#FFEAA7"/>
    <!-- hair -->
    <ellipse cx="500" cy="298" rx="16" ry="8" fill="#333"/>
    <circle cx="494" cy="305" r="2.5" fill="#333"/><circle cx="506" cy="305" r="2.5" fill="#333"/>
    <path d="M495,313 Q500,319 505,313" fill="none" stroke="#333" stroke-width="1.5"/>
    <!-- blush -->
    <circle cx="490" cy="311" r="3" fill="#FF9999" opacity="0.4"/>
    <circle cx="510" cy="311" r="3" fill="#FF9999" opacity="0.4"/>
  </g><g transform="scale(0.5)">
    <!-- body -->
    <ellipse cx="540" cy="347" rx="14" ry="20" fill="#E74C3C"/>
    <!-- legs -->
    <line x1="533" y1="364" x2="531" y2="380" stroke="#E74C3C" stroke-width="5" stroke-linecap="round"/>
    <line x1="547" y1="364" x2="549" y2="380" stroke="#E74C3C" stroke-width="5" stroke-linecap="round"/>
    <!-- arms -->
    <line x1="528" y1="337" x2="522" y2="352" stroke="#E74C3C" stroke-width="5" stroke-linecap="round"/><line x1="552" y1="337" x2="558" y2="352" stroke="#E74C3C" stroke-width="5" stroke-linecap="round"/>
    <!-- head -->
    <circle cx="540" cy="312" r="16" fill="#FFEAA7"/>
    <!-- hair -->
    <ellipse cx="540" cy="300" rx="16" ry="8" fill="#333"/>
    <circle cx="534" cy="307" r="2.5" fill="#333"/><circle cx="546" cy="307" r="2.5" fill="#333"/>
    <path d="M535,315 Q540,321 545,315" fill="none" stroke="#333" stroke-width="1.5"/>
    <!-- blush -->
    <circle cx="530" cy="313" r="3" fill="#FF9999" opacity="0.4"/>
    <circle cx="550" cy="313" r="3" fill="#FF9999" opacity="0.4"/>
  </g><g transform="scale(0.5)">
    <!-- body -->
    <ellipse cx="575" cy="345" rx="14" ry="20" fill="#27AE60"/>
    <!-- legs -->
    <line x1="568" y1="362" x2="566" y2="378" stroke="#27AE60" stroke-width="5" stroke-linecap="round"/>
    <line x1="582" y1="362" x2="584" y2="378" stroke="#27AE60" stroke-width="5" stroke-linecap="round"/>
    <!-- arms -->
    <line x1="563" y1="335" x2="557" y2="350" stroke="#27AE60" stroke-width="5" stroke-linecap="round"/><line x1="587" y1="335" x2="593" y2="350" stroke="#27AE60" stroke-width="5" stroke-linecap="round"/>
    <!-- head -->
    <circle cx="575" cy="310" r="16" fill="#FFEAA7"/>
    <!-- hair -->
    <ellipse cx="575" cy="298" rx="16" ry="8" fill="#333"/>
    <circle cx="569" cy="305" r="2.5" fill="#333"/><circle cx="581" cy="305" r="2.5" fill="#333"/>
    <path d="M570,313 Q575,319 580,313" fill="none" stroke="#333" stroke-width="1.5"/>
    <!-- blush -->
    <circle cx="565" cy="311" r="3" fill="#FF9999" opacity="0.4"/>
    <circle cx="585" cy="311" r="3" fill="#FF9999" opacity="0.4"/>
  </g><text x="540" y="300" text-anchor="middle" font-size="10" fill="#333">hahaha!</text><g transform="translate(100, 200)">
      <rect x="-40" y="-30" width="80" height="60" rx="3" fill="#F5E6CC" stroke="#8B4513" stroke-width="2"/>
      <text x="0" y="10" text-anchor="middle" font-size="36" fill="#333" font-weight="bold">&#x7228;</text>
    </g><g>
    <rect x="190" y="193" width="120" height="22" rx="10" fill="#fff" stroke="#333" stroke-width="1.5"/>
    <polygon points="245,215 255,215 250,225" fill="#fff"/>
    <text x="250" y="207" text-anchor="middle" font-size="9" font-family="Arial, sans-serif" fill="#333">How do you even...?!</text>
  </g>
</svg>