<svg xmlns="http://www.w3.org/2000/svg" viewBox="0 0 800 500" width="800" height="500">
  <defs>
    <style>
      text { font-family: 'Arial', 'Helvetica', sans-serif; }
    </style>
  </defs>
  <rect width="800" height="500" fill="#87CEEB"/>
  <g transform="translate(500,40) scale(0.7)">
    <ellipse cx="0" cy="0" rx="40" ry="25" fill="#fff" opacity="0.9"/>
    <ellipse cx="-30" cy="5" rx="25" ry="18" fill="#fff" opacity="0.9"/>
    <ellipse cx="30" cy="5" rx="28" ry="20" fill="#fff" opacity="0.9"/>
    <ellipse cx="15" cy="-10" rx="20" ry="15" fill="#fff" opacity="0.9"/>
  </g><circle cx="680" cy="55" r="30" fill="#FFD93D"/>
    <g stroke="#FFD93D" stroke-width="3" fill="none">
      <line x1="718" y1="55" x2="730" y2="55"/><line x1="706.8700576850888" y1="81.8700576850888" x2="715.3553390593274" y2="90.35533905932738"/><line x1="680" y1="93" x2="680" y2="105"/><line x1="653.1299423149112" y1="81.87005768508881" x2="644.6446609406727" y2="90.35533905932738"/><line x1="642" y1="55.00000000000001" x2="630" y2="55.00000000000001"/><line x1="653.1299423149112" y1="28.129942314911197" x2="644.6446609406726" y2="19.64466094067263"/><line x1="680" y1="17" x2="680" y2="5"/><line x1="706.8700576850888" y1="28.129942314911187" x2="715.3553390593273" y2="19.644660940672615"/>
    </g><rect x="0" y="350" width="800" height="150" fill="#7BC67E" opacity="0.5"/><line x1="400" y1="120" x2="400" y2="350" stroke="#8B7355" stroke-width="20"/><path d="M400,160 Q300,100 250,120" fill="none" stroke="#8B7355" stroke-width="8"/><path d="M400,160 Q500,100 550,120" fill="none" stroke="#8B7355" stroke-width="8"/><path d="M400,200 Q320,170 280,180" fill="none" stroke="#8B7355" stroke-width="6"/><path d="M400,200 Q480,170 520,180" fill="none" stroke="#8B7355" stroke-width="6"/><g transform="translate(250,115)">
        <ellipse cx="0" cy="-5" rx="4" ry="8" fill="#FFB7C5"/>
        <ellipse cx="4" cy="-2" rx="4" ry="7" fill="#FFCDD2" transform="rotate(30)"/>
        <ellipse cx="-4" cy="-2" rx="4" ry="7" fill="#FFCDD2" transform="rotate(-30)"/>
        <circle cx="0" cy="0" r="3" fill="#F9CA24"/>
      </g><g transform="translate(300,100)">
        <ellipse cx="0" cy="-5" rx="4" ry="8" fill="#FFB7C5"/>
        <ellipse cx="4" cy="-2" rx="4" ry="7" fill="#FFCDD2" transform="rotate(30)"/>
        <ellipse cx="-4" cy="-2" rx="4" ry="7" fill="#FFCDD2" transform="rotate(-30)"/>
        <circle cx="0" cy="0" r="3" fill="#F9CA24"/>
      </g><g transform="translate(350,130)">
        <ellipse cx="0" cy="-5" rx="4" ry="8" fill="#FFB7C5"/>
        <ellipse cx="4" cy="-2" rx="4" ry="7" fill="#FFCDD2" transform="rotate(30)"/>
        <ellipse cx="-4" cy="-2" rx="4" ry="7" fill="#FFCDD2" transform="rotate(-30)"/>
        <circle cx="0" cy="0" r="3" fill="#F9CA24"/>
      </g><g transform="translate(450,130)">
        <ellipse cx="0" cy="-5" rx="4" ry="8" fill="#FFB7C5"/>
        <ellipse cx="4" cy="-2" rx="4" ry="7" fill="#FFCDD2" transform="rotate(30)"/>
        <ellipse cx="-4" cy="-2" rx="4" ry="7" fill="#FFCDD2" transform="rotate(-30)"/>
        <circle cx="0" cy="0" r="3" fill="#F9CA24"/>
      </g><g transform="translate(500,100)">
        <ellipse cx="0" cy="-5" rx="4" ry="8" fill="#FFB7C5"/>
        <ellipse cx="4" cy="-2" rx="4" ry="7" fill="#FFCDD2" transform="rotate(30)"/>
        <ellipse cx="-4" cy="-2" rx="4" ry="7" fill="#FFCDD2" transform="rotate(-30)"/>
        <circle cx="0" cy="0" r="3" fill="#F9CA24"/>
      </g><g transform="translate(550,115)">
        <ellipse cx="0" cy="-5" rx="4" ry="8" fill="#FFB7C5"/>
        <ellipse cx="4" cy="-2" rx="4" ry="7" fill="#FFCDD2" transform="rotate(30)"/>
        <ellipse cx="-4" cy="-2" rx="4" ry="7" fill="#FFCDD2" transform="rotate(-30)"/>
        <circle cx="0" cy="0" r="3" fill="#F9CA24"/>
      </g><g transform="translate(280,175)">
        <ellipse cx="0" cy="-5" rx="4" ry="8" fill="#FFB7C5"/>
        <ellipse cx="4" cy="-2" rx="4" ry="7" fill="#FFCDD2" transform="rotate(30)"/>
        <ellipse cx="-4" cy="-2" rx="4" ry="7" fill="#FFCDD2" transform="rotate(-30)"/>
        <circle cx="0" cy="0" r="3" fill="#F9CA24"/>
      </g><g transform="translate(330,160)">
        <ellipse cx="0" cy="-5" rx="4" ry="8" fill="#FFB7C5"/>
        <ellipse cx="4" cy="-2" rx="4" ry="7" fill="#FFCDD2" transform="rotate(30)"/>
        <ellipse cx="-4" cy="-2" rx="4" ry="7" fill="#FFCDD2" transform="rotate(-30)"/>
        <circle cx="0" cy="0" r="3" fill="#F9CA24"/>
      </g><g transform="translate(470,160)">
        <ellipse cx="0" cy="-5" rx="4" ry="8" fill="#FFB7C5"/>
        <ellipse cx="4" cy="-2" rx="4" ry="7" fill="#FFCDD2" transform="rotate(30)"/>
        <ellipse cx="-4" cy="-2" rx="4" ry="7" fill="#FFCDD2" transform="rotate(-30)"/>
        <circle cx="0" cy="0" r="3" fill="#F9CA24"/>
      </g><g transform="translate(520,175)">
        <ellipse cx="0" cy="-5" rx="4" ry="8" fill="#FFB7C5"/>
        <ellipse cx="4" cy="-2" rx="4" ry="7" fill="#FFCDD2" transform="rotate(30)"/>
        <ellipse cx="-4" cy="-2" rx="4" ry="7" fill="#FFCDD2" transform="rotate(-30)"/>
        <circle cx="0" cy="0" r="3" fill="#F9CA24"/>
      </g><rect x="340" y="310" width="120" height="8" rx="2" fill="#BDC3C7"/>
      <rect x="360" y="318" width="10" height="25" fill="#95A5A6"/>
      <rect x="430" y="318" width="10" height="25" fill="#95A5A6"/><rect x="370" y="302" width="60" height="10" rx="1" fill="#F5DEB3" stroke="#333" stroke-width="0.5"/><ellipse cx="418.61811621888916" cy="307.4134431366961" rx="3" ry="2" fill="#FFB7C5" opacity="0.8" transform="rotate(211.60113278199242)"/><ellipse cx="375.87806639673346" cy="311.0206437787094" rx="3" ry="2" fill="#FFB7C5" opacity="0.8" transform="rotate(273.5198789965174)"/><ellipse cx="384.65625692895264" cy="303.30657770908897" rx="3" ry="2" fill="#FFB7C5" opacity="0.8" transform="rotate(309.50850093587945)"/><ellipse cx="400.108262847708" cy="309.2519384566801" rx="3" ry="2" fill="#FFB7C5" opacity="0.8" transform="rotate(45.01940195290373)"/><ellipse cx="395.3254934797367" cy="303.5186374585415" rx="3" ry="2" fill="#FFB7C5" opacity="0.8" transform="rotate(303.571626592864)"/><ellipse cx="409.24308519865275" cy="303.2792925173445" rx="3" ry="2" fill="#FFB7C5" opacity="0.8" transform="rotate(338.7514756534885)"/><ellipse cx="397.33906169967776" cy="302.5415088654087" rx="3" ry="2" fill="#FFB7C5" opacity="0.8" transform="rotate(137.65225919563747)"/><ellipse cx="384.3804261699161" cy="311.51946810977756" rx="3" ry="2" fill="#FFB7C5" opacity="0.8" transform="rotate(121.09219198977561)"/><ellipse cx="412.9828715659053" cy="307.25873669879985" rx="3" ry="2" fill="#FFB7C5" opacity="0.8" transform="rotate(95.23086671428028)"/><ellipse cx="382.62112667167804" cy="306.1272116316625" rx="3" ry="2" fill="#FFB7C5" opacity="0.8" transform="rotate(228.27705541201837)"/><ellipse cx="380.8183660314923" cy="305.1286703773182" rx="3" ry="2" fill="#FFB7C5" opacity="0.8" transform="rotate(347.96227722828854)"/><ellipse cx="378.8983744712291" cy="307.1472871343143" rx="3" ry="2" fill="#FFB7C5" opacity="0.8" transform="rotate(359.18029267671363)"/><g transform="translate(360, 275)">
      <ellipse cx="0" cy="12" rx="8" ry="12" fill="#8B7355"/>
      <circle cx="0" cy="-2" r="9" fill="#FFEAA7"/>
      <circle cx="0" cy="-12" r="6" fill="#C0C0C0"/>
      <line x1="-5" y1="-3" x2="-1" y2="-3" stroke="#333" stroke-width="1.5"/>
      <line x1="1" y1="-3" x2="5" y2="-3" stroke="#333" stroke-width="1.5"/>
      <path d="M-3,3 L3,3" stroke="#333" stroke-width="1"/>
      <line x1="6" y1="8" x2="20" y2="3" stroke="#8B7355" stroke-width="3" stroke-linecap="round"/>
    </g><g transform="translate(440, 275)">
      <ellipse cx="0" cy="12" rx="8" ry="12" fill="#2C3E50"/>
      <circle cx="0" cy="-2" r="9" fill="#FFEAA7"/>
      <circle cx="0" cy="-12" r="6" fill="#C0C0C0"/>
      <line x1="-5" y1="-3" x2="-1" y2="-3" stroke="#333" stroke-width="1.5"/>
      <line x1="1" y1="-3" x2="5" y2="-3" stroke="#333" stroke-width="1.5"/>
      <path d="M-3,3 Q0,1 3,3" fill="none" stroke="#333" stroke-width="1"/>
      <line x1="-6" y1="8" x2="-10" y2="0" stroke="#2C3E50" stroke-width="3" stroke-linecap="round"/>
    </g><ellipse cx="451.32781836314706" cy="341.0594890212898" rx="3" ry="2" fill="#FFB7C5" opacity="0.7" transform="rotate(178.33815893720714)"/><ellipse cx="437.4366080113198" cy="220.45873506786148" rx="3" ry="2" fill="#FFB7C5" opacity="0.7" transform="rotate(47.79133539624979)"/><ellipse cx="313.5310238489543" cy="330.49336579587964" rx="3" ry="2" fill="#FFB7C5" opacity="0.7" transform="rotate(256.2658990074384)"/><ellipse cx="440.5028554509174" cy="323.6354078795247" rx="3" ry="2" fill="#FFB7C5" opacity="0.7" transform="rotate(351.6108480956406)"/><ellipse cx="337.24458328371236" cy="240.02012374008171" rx="3" ry="2" fill="#FFB7C5" opacity="0.7" transform="rotate(337.01787615501064)"/><ellipse cx="383.7054960157327" cy="233.7286218654598" rx="3" ry="2" fill="#FFB7C5" opacity="0.7" transform="rotate(183.5367183183065)"/><ellipse cx="343.80967186157187" cy="311.9977345498868" rx="3" ry="2" fill="#FFB7C5" opacity="0.7" transform="rotate(217.0690051787756)"/><ellipse cx="356.16781887452856" cy="333.3066037945633" rx="3" ry="2" fill="#FFB7C5" opacity="0.7" transform="rotate(120.5551231085906)"/><ellipse cx="466.85627498978135" cy="190.5703473629762" rx="3" ry="2" fill="#FFB7C5" opacity="0.7" transform="rotate(210.46133075770442)"/><ellipse cx="338.6005303995427" cy="311.7902617752228" rx="3" ry="2" fill="#FFB7C5" opacity="0.7" transform="rotate(262.77456957355196)"/><ellipse cx="378.1603829703879" cy="318.75407759436007" rx="3" ry="2" fill="#FFB7C5" opacity="0.7" transform="rotate(291.09823248089265)"/><ellipse cx="341.9106277305376" cy="159.29403167705817" rx="3" ry="2" fill="#FFB7C5" opacity="0.7" transform="rotate(56.200351257402396)"/><ellipse cx="456.70921546622776" cy="174.49760290170332" rx="3" ry="2" fill="#FFB7C5" opacity="0.7" transform="rotate(16.988247533469224)"/><ellipse cx="430.3560664487472" cy="249.14271423215015" rx="3" ry="2" fill="#FFB7C5" opacity="0.7" transform="rotate(332.03255096733585)"/><ellipse cx="427.2141978313796" cy="257.46116109871025" rx="3" ry="2" fill="#FFB7C5" opacity="0.7" transform="rotate(347.8402315845888)"/><text x="400" y="260" text-anchor="middle" font-size="9" fill="#333" opacity="0.6">*have not noticed the petals*</text>
</svg>