<svg xmlns="http://www.w3.org/2000/svg" viewBox="0 0 800 500" width="800" height="500">
  <defs>
    <style>
      text { font-family: 'Arial', 'Helvetica', sans-serif; }
    </style>
  </defs>
  <rect width="800" height="500" fill="#2C3E50"/>
  <rect width="800" height="500" fill="#2C3E50"/><ellipse cx="400" cy="200" rx="400" ry="200" fill="#E67E22" opacity="0.15"/><ellipse cx="400" cy="250" rx="300" ry="100" fill="#F39C12" opacity="0.1"/><circle cx="767.1312688478868" cy="92.21822551163726" r="1.4927921994789153" fill="#fff" opacity="0.3546308538950914"/><circle cx="452.45644735185067" cy="35.95028143763565" r="1.4950746685184546" fill="#fff" opacity="0.36612910493247974"/><circle cx="96.19360097838143" cy="106.64204292552765" r="0.6517310804324393" fill="#fff" opacity="0.17226356307358662"/><circle cx="616.8288104694414" cy="70.32436436074259" r="1.2015425036654936" fill="#fff" opacity="0.1128593238151527"/><circle cx="542.7413064235283" cy="24.465868895661774" r="1.3333427092177577" fill="#fff" opacity="0.23803185951397726"/><circle cx="629.0989316358672" cy="9.4412089748391" r="1.0853126405350348" fill="#fff" opacity="0.23661945853929228"/><circle cx="677.9749131531486" cy="4.440051407338164" r="1.208403159969409" fill="#fff" opacity="0.22138271928314887"/><circle cx="108.56694595455494" cy="70.18611786515694" r="1.1387036996734055" fill="#fff" opacity="0.3303088450060634"/><circle cx="687.7473574391447" cy="115.53071498050886" r="1.3573413799801264" fill="#fff" opacity="0.36440572738148413"/><circle cx="0.7586698583358142" cy="39.65688288597207" r="0.5137082636688206" fill="#fff" opacity="0.36299719664994945"/><circle cx="557.8142469496622" cy="45.47556858306533" r="0.556323283104553" fill="#fff" opacity="0.3530726639570767"/><circle cx="183.91398313391366" cy="148.4410655081465" r="1.20630901463317" fill="#fff" opacity="0.28848447462611615"/><circle cx="598.0804183712868" cy="39.14818820057415" r="1.4492114853589804" fill="#fff" opacity="0.10142678112192965"/><circle cx="132.4549532188323" cy="77.81763707298968" r="0.6279038852438142" fill="#fff" opacity="0.19193099430033764"/><circle cx="423.3240044594505" cy="122.08346305689294" r="0.6662935604103575" fill="#fff" opacity="0.29790569499480524"/><polygon points="400,120 100,400 700,400" fill="#1a2a3a"/>
    <polygon points="400,120 310,204 490,204" fill="#fff" opacity="0.6"/><polygon points="200,200 50,400 350,400" fill="#1a2a3a"/>
    <polygon points="200,200 155,260 245,260" fill="#fff" opacity="0.6"/><rect x="350" y="125" width="100" height="5" fill="#2a3a4a"/><polygon points="400,80 440,130 360,130" fill="#27AE60"/>
      <polygon points="400,80 420,130 380,130" fill="#229954"/>
      <rect x="393" y="110" width="14" height="20" fill="#1E8449"/><g transform="translate(450, 105)">
      <circle cx="0" cy="0" r="12" fill="#E74C3C" stroke="#C0392B" stroke-width="2"/>
      <circle cx="0" cy="0" r="9" fill="#fff"/>
      <line x1="0" y1="0" x2="0" y2="-6" stroke="#333" stroke-width="1.5"/>
      <line x1="0" y1="0" x2="4" y2="2" stroke="#333" stroke-width="1"/>
      <circle cx="0" cy="0" r="1" fill="#333"/>
      <circle cx="-8" cy="-10" r="4" fill="#C0392B"/>
      <circle cx="8" cy="-10" r="4" fill="#C0392B"/>
      <path d="M-15,-12 L-20,-16" stroke="#F39C12" stroke-width="2"/>
      <path d="M15,-12 L20,-16" stroke="#F39C12" stroke-width="2"/>
      <path d="M-18,-8 L-24,-10" stroke="#F39C12" stroke-width="1.5"/>
      <path d="M18,-8 L24,-10" stroke="#F39C12" stroke-width="1.5"/>
    </g><g>
      <path d="M393,115 Q380,108 370,100 Q360,95 355,105" fill="none" stroke="#FFEAA7" stroke-width="6" stroke-linecap="round"/>
      <circle cx="355" cy="105" r="5" fill="#FFEAA7"/>
    </g><g>
    <rect x="355" y="30" width="90" height="25" rx="10" fill="#fff" stroke="#333" stroke-width="1.5"/>
    <polygon points="395,55 405,55 400,65" fill="#fff"/>
    <text x="400" y="45.833333333333336" text-anchor="middle" font-size="10" font-family="Arial, sans-serif" fill="#333">5 more min...</text>
  </g><ellipse cx="400" cy="400" rx="200" ry="30" fill="#F39C12" opacity="0.3"/>
</svg>