<svg xmlns="http://www.w3.org/2000/svg" viewBox="0 0 800 500" width="800" height="500">
  <defs>
    <style>
      text { font-family: 'Arial', 'Helvetica', sans-serif; }
    </style>
  </defs>
  <rect width="800" height="500" fill="#87CEEB"/>
  <g transform="translate(100,40) scale(1)">
    <ellipse cx="0" cy="0" rx="40" ry="25" fill="#fff" opacity="0.9"/>
    <ellipse cx="-30" cy="5" rx="25" ry="18" fill="#fff" opacity="0.9"/>
    <ellipse cx="30" cy="5" rx="28" ry="20" fill="#fff" opacity="0.9"/>
    <ellipse cx="15" cy="-10" rx="20" ry="15" fill="#fff" opacity="0.9"/>
  </g><circle cx="680" cy="55" r="30" fill="#FFD93D"/>
    <g stroke="#FFD93D" stroke-width="3" fill="none">
      <line x1="718" y1="55" x2="730" y2="55"/><line x1="706.8700576850888" y1="81.8700576850888" x2="715.3553390593274" y2="90.35533905932738"/><line x1="680" y1="93" x2="680" y2="105"/><line x1="653.1299423149112" y1="81.87005768508881" x2="644.6446609406727" y2="90.35533905932738"/><line x1="642" y1="55.00000000000001" x2="630" y2="55.00000000000001"/><line x1="653.1299423149112" y1="28.129942314911197" x2="644.6446609406726" y2="19.64466094067263"/><line x1="680" y1="17" x2="680" y2="5"/><line x1="706.8700576850888" y1="28.129942314911187" x2="715.3553390593273" y2="19.644660940672615"/>
    </g><ellipse cx="400" cy="450" rx="500" ry="100" fill="#7BC67E"/><circle cx="298.35702243713695" cy="325.89486301238014" r="6.559549044947202" fill="#FF1493"/>
        <line x1="298.35702243713695" y1="328.89486301238014" x2="298.35702243713695" y2="337.89486301238014" stroke="#27AE60" stroke-width="1.5"/><circle cx="34.2159654665096" cy="343.51789035261595" r="4.936914181695756" fill="#E74C3C"/>
        <line x1="34.2159654665096" y1="346.51789035261595" x2="34.2159654665096" y2="355.51789035261595" stroke="#27AE60" stroke-width="1.5"/><circle cx="519.9766149600381" cy="448.74730272405725" r="6.70519323169079" fill="#FF6B6B"/>
        <line x1="519.9766149600381" y1="451.74730272405725" x2="519.9766149600381" y2="460.74730272405725" stroke="#27AE60" stroke-width="1.5"/><circle cx="388.060260925603" cy="408.9433925119354" r="5.7542264919977075" fill="#FF69B4"/>
        <line x1="388.060260925603" y1="411.9433925119354" x2="388.060260925603" y2="420.9433925119354" stroke="#27AE60" stroke-width="1.5"/><circle cx="467.02857991346696" cy="440.45988277307566" r="4.683728058223518" fill="#E74C3C"/>
        <line x1="467.02857991346696" y1="443.45988277307566" x2="467.02857991346696" y2="452.45988277307566" stroke="#27AE60" stroke-width="1.5"/><circle cx="260.5411726629217" cy="429.34927179554245" r="3.285647981926752" fill="#FF1493"/>
        <line x1="260.5411726629217" y1="432.34927179554245" x2="260.5411726629217" y2="441.34927179554245" stroke="#27AE60" stroke-width="1.5"/><circle cx="277.4366255060399" cy="451.1082574407725" r="5.146491542312212" fill="#FF6B6B"/>
        <line x1="277.4366255060399" y1="454.1082574407725" x2="277.4366255060399" y2="463.1082574407725" stroke="#27AE60" stroke-width="1.5"/><circle cx="209.78666358916877" cy="380.2891148519461" r="6.814693668196876" fill="#C0392B"/>
        <line x1="209.78666358916877" y1="383.2891148519461" x2="209.78666358916877" y2="392.2891148519461" stroke="#27AE60" stroke-width="1.5"/><circle cx="774.8593232444916" cy="411.98129096822686" r="5.365761083198415" fill="#FF69B4"/>
        <line x1="774.8593232444916" y1="414.98129096822686" x2="774.8593232444916" y2="423.98129096822686" stroke="#27AE60" stroke-width="1.5"/><circle cx="725.5614171173332" cy="414.59519746273645" r="6.44675523552459" fill="#C0392B"/>
        <line x1="725.5614171173332" y1="417.59519746273645" x2="725.5614171173332" y2="426.59519746273645" stroke="#27AE60" stroke-width="1.5"/><circle cx="345.1724461183368" cy="457.1618452220619" r="3.9312863879654247" fill="#C0392B"/>
        <line x1="345.1724461183368" y1="460.1618452220619" x2="345.1724461183368" y2="469.1618452220619" stroke="#27AE60" stroke-width="1.5"/><circle cx="238.17355421055524" cy="357.9921892292759" r="6.738384701482589" fill="#FF6B6B"/>
        <line x1="238.17355421055524" y1="360.9921892292759" x2="238.17355421055524" y2="369.9921892292759" stroke="#27AE60" stroke-width="1.5"/><circle cx="144.46083120259433" cy="384.1442895875065" r="5.206458668999922" fill="#C0392B"/>
        <line x1="144.46083120259433" y1="387.1442895875065" x2="144.46083120259433" y2="396.1442895875065" stroke="#27AE60" stroke-width="1.5"/><circle cx="706.2799195082354" cy="401.68601200685345" r="3.609924563861899" fill="#E74C3C"/>
        <line x1="706.2799195082354" y1="404.68601200685345" x2="706.2799195082354" y2="413.68601200685345" stroke="#27AE60" stroke-width="1.5"/><circle cx="787.4949411676521" cy="364.66925082670787" r="3.127920031391713" fill="#C0392B"/>
        <line x1="787.4949411676521" y1="367.66925082670787" x2="787.4949411676521" y2="376.66925082670787" stroke="#27AE60" stroke-width="1.5"/><circle cx="15.6345333296251" cy="411.06036282245407" r="5.439475294242614" fill="#FF1493"/>
        <line x1="15.6345333296251" y1="414.06036282245407" x2="15.6345333296251" y2="423.06036282245407" stroke="#27AE60" stroke-width="1.5"/><circle cx="11.647310421212875" cy="400.5418924616299" r="4.869703018924193" fill="#FF1493"/>
        <line x1="11.647310421212875" y1="403.5418924616299" x2="11.647310421212875" y2="412.5418924616299" stroke="#27AE60" stroke-width="1.5"/><circle cx="461.4183865985117" cy="414.46375853566803" r="3.5234586578947247" fill="#C0392B"/>
        <line x1="461.4183865985117" y1="417.46375853566803" x2="461.4183865985117" y2="426.46375853566803" stroke="#27AE60" stroke-width="1.5"/><circle cx="394.2472934981961" cy="465.5840585661739" r="4.128088588262457" fill="#FF1493"/>
        <line x1="394.2472934981961" y1="468.5840585661739" x2="394.2472934981961" y2="477.5840585661739" stroke="#27AE60" stroke-width="1.5"/><circle cx="724.5723853243965" cy="381.33821806319713" r="3.343368299734172" fill="#C0392B"/>
        <line x1="724.5723853243965" y1="384.33821806319713" x2="724.5723853243965" y2="393.33821806319713" stroke="#27AE60" stroke-width="1.5"/><circle cx="537.0218542594849" cy="461.0655315183151" r="5.255694636649441" fill="#C0392B"/>
        <line x1="537.0218542594849" y1="464.0655315183151" x2="537.0218542594849" y2="473.0655315183151" stroke="#27AE60" stroke-width="1.5"/><circle cx="457.53230095835767" cy="432.00357208091043" r="6.364751646784521" fill="#C0392B"/>
        <line x1="457.53230095835767" y1="435.00357208091043" x2="457.53230095835767" y2="444.00357208091043" stroke="#27AE60" stroke-width="1.5"/><circle cx="400.8055307517834" cy="400.31698209615826" r="5.767308843116648" fill="#FF1493"/>
        <line x1="400.8055307517834" y1="403.31698209615826" x2="400.8055307517834" y2="412.31698209615826" stroke="#27AE60" stroke-width="1.5"/><circle cx="395.5027289678373" cy="364.1875610261468" r="3.300662321054211" fill="#C0392B"/>
        <line x1="395.5027289678373" y1="367.1875610261468" x2="395.5027289678373" y2="376.1875610261468" stroke="#27AE60" stroke-width="1.5"/><circle cx="359.5470126336946" cy="400.0270481483817" r="6.23947170004522" fill="#FF69B4"/>
        <line x1="359.5470126336946" y1="403.0270481483817" x2="359.5470126336946" y2="412.0270481483817" stroke="#27AE60" stroke-width="1.5"/><circle cx="503.3280043000292" cy="348.77115081174026" r="4.377167549608323" fill="#FF69B4"/>
        <line x1="503.3280043000292" y1="351.77115081174026" x2="503.3280043000292" y2="360.77115081174026" stroke="#27AE60" stroke-width="1.5"/><circle cx="366.4802469454206" cy="441.87192234721124" r="4.075666480312117" fill="#FF1493"/>
        <line x1="366.4802469454206" y1="444.87192234721124" x2="366.4802469454206" y2="453.87192234721124" stroke="#27AE60" stroke-width="1.5"/><circle cx="740.5727622308167" cy="388.229994669255" r="4.173191866847236" fill="#FF1493"/>
        <line x1="740.5727622308167" y1="391.229994669255" x2="740.5727622308167" y2="400.229994669255" stroke="#27AE60" stroke-width="1.5"/><circle cx="506.82873646153644" cy="418.11349461915546" r="6.402387083286346" fill="#FF69B4"/>
        <line x1="506.82873646153644" y1="421.11349461915546" x2="506.82873646153644" y2="430.11349461915546" stroke="#27AE60" stroke-width="1.5"/><circle cx="62.01546966844873" cy="406.16212632595733" r="6.070580088378945" fill="#FF1493"/>
        <line x1="62.01546966844873" y1="409.16212632595733" x2="62.01546966844873" y2="418.16212632595733" stroke="#27AE60" stroke-width="1.5"/><circle cx="371.25823857986535" cy="379.41155267684553" r="4.621393344154393" fill="#FF6B6B"/>
        <line x1="371.25823857986535" y1="382.41155267684553" x2="371.25823857986535" y2="391.41155267684553" stroke="#27AE60" stroke-width="1.5"/><circle cx="323.7134253851631" cy="343.1696573909721" r="3.815374896057931" fill="#E74C3C"/>
        <line x1="323.7134253851631" y1="346.1696573909721" x2="323.7134253851631" y2="355.1696573909721" stroke="#27AE60" stroke-width="1.5"/><circle cx="435.29002249931665" cy="433.59944631274124" r="4.3945031960643846" fill="#FF69B4"/>
        <line x1="435.29002249931665" y1="436.59944631274124" x2="435.29002249931665" y2="445.59944631274124" stroke="#27AE60" stroke-width="1.5"/><circle cx="227.79175180016472" cy="405.4369491395441" r="5.920695344819055" fill="#FF6B6B"/>
        <line x1="227.79175180016472" y1="408.4369491395441" x2="227.79175180016472" y2="417.4369491395441" stroke="#27AE60" stroke-width="1.5"/><circle cx="44.62285450729553" cy="453.92778003322667" r="6.20638509500971" fill="#FF69B4"/>
        <line x1="44.62285450729553" y1="456.92778003322667" x2="44.62285450729553" y2="465.92778003322667" stroke="#27AE60" stroke-width="1.5"/><circle cx="598.0151839130118" cy="442.98152993042163" r="6.096166932768852" fill="#FF69B4"/>
        <line x1="598.0151839130118" y1="445.98152993042163" x2="598.0151839130118" y2="454.98152993042163" stroke="#27AE60" stroke-width="1.5"/><circle cx="781.3993003352113" cy="465.84157053376" r="6.0934955990497555" fill="#FF6B6B"/>
        <line x1="781.3993003352113" y1="468.84157053376" x2="781.3993003352113" y2="477.84157053376" stroke="#27AE60" stroke-width="1.5"/><circle cx="120.02788969578377" cy="432.00295738250014" r="3.52273111807142" fill="#E74C3C"/>
        <line x1="120.02788969578377" y1="435.00295738250014" x2="120.02788969578377" y2="444.00295738250014" stroke="#27AE60" stroke-width="1.5"/><circle cx="652.4978592947858" cy="346.85175591934467" r="5.4938675061511155" fill="#FF1493"/>
        <line x1="652.4978592947858" y1="349.85175591934467" x2="652.4978592947858" y2="358.85175591934467" stroke="#27AE60" stroke-width="1.5"/><circle cx="160.51284256666926" cy="323.2376526797865" r="5.396844730647686" fill="#E74C3C"/>
        <line x1="160.51284256666926" y1="326.2376526797865" x2="160.51284256666926" y2="335.2376526797865" stroke="#27AE60" stroke-width="1.5"/><circle cx="193.3578015043425" cy="337.4437056409765" r="3.309728016882775" fill="#FF69B4"/>
        <line x1="193.3578015043425" y1="340.4437056409765" x2="193.3578015043425" y2="349.4437056409765" stroke="#27AE60" stroke-width="1.5"/><circle cx="338.9983934738573" cy="394.25545461518493" r="6.70143814912473" fill="#C0392B"/>
        <line x1="338.9983934738573" y1="397.25545461518493" x2="338.9983934738573" y2="406.25545461518493" stroke="#27AE60" stroke-width="1.5"/><circle cx="341.19066940858136" cy="362.0475740474806" r="3.8354430135944413" fill="#FF1493"/>
        <line x1="341.19066940858136" y1="365.0475740474806" x2="341.19066940858136" y2="374.0475740474806" stroke="#27AE60" stroke-width="1.5"/><circle cx="592.6048303972323" cy="323.7523667350783" r="5.913296295179051" fill="#FF69B4"/>
        <line x1="592.6048303972323" y1="326.7523667350783" x2="592.6048303972323" y2="335.7523667350783" stroke="#27AE60" stroke-width="1.5"/><circle cx="161.89671280284443" cy="342.069317202004" r="5.01957382239855" fill="#C0392B"/>
        <line x1="161.89671280284443" y1="345.069317202004" x2="161.89671280284443" y2="354.069317202004" stroke="#27AE60" stroke-width="1.5"/><circle cx="70.42307434967671" cy="427.29365578135605" r="3.662941584971735" fill="#C0392B"/>
        <line x1="70.42307434967671" y1="430.29365578135605" x2="70.42307434967671" y2="439.29365578135605" stroke="#27AE60" stroke-width="1.5"/><circle cx="315.5930126841353" cy="321.59826214658494" r="6.244985342053327" fill="#FF6B6B"/>
        <line x1="315.5930126841353" y1="324.59826214658494" x2="315.5930126841353" y2="333.59826214658494" stroke="#27AE60" stroke-width="1.5"/><circle cx="588.3323904095406" cy="432.51185005010996" r="4.386730736563649" fill="#FF69B4"/>
        <line x1="588.3323904095406" y1="435.51185005010996" x2="588.3323904095406" y2="444.51185005010996" stroke="#27AE60" stroke-width="1.5"/><circle cx="319.5978661953136" cy="400.8419892207661" r="6.691754432886993" fill="#FF6B6B"/>
        <line x1="319.5978661953136" y1="403.8419892207661" x2="319.5978661953136" y2="412.8419892207661" stroke="#27AE60" stroke-width="1.5"/><circle cx="75.90318953472313" cy="425.07032177644044" r="4.942810836155752" fill="#FF1493"/>
        <line x1="75.90318953472313" y1="428.07032177644044" x2="75.90318953472313" y2="437.07032177644044" stroke="#27AE60" stroke-width="1.5"/><circle cx="479.23970649947483" cy="326.9853115062328" r="5.484199452491465" fill="#FF6B6B"/>
        <line x1="479.23970649947483" y1="329.9853115062328" x2="479.23970649947483" y2="338.9853115062328" stroke="#27AE60" stroke-width="1.5"/><circle cx="228.00632519031421" cy="389.0565044860841" r="4.117713845252101" fill="#C0392B"/>
        <line x1="228.00632519031421" y1="392.0565044860841" x2="228.00632519031421" y2="401.0565044860841" stroke="#27AE60" stroke-width="1.5"/><circle cx="624.9505405609489" cy="449.9656575831099" r="4.091285830734107" fill="#C0392B"/>
        <line x1="624.9505405609489" y1="452.9656575831099" x2="624.9505405609489" y2="461.9656575831099" stroke="#27AE60" stroke-width="1.5"/><circle cx="674.2038999723432" cy="340.5522065151674" r="4.419913531764544" fill="#C0392B"/>
        <line x1="674.2038999723432" y1="343.5522065151674" x2="674.2038999723432" y2="352.5522065151674" stroke="#27AE60" stroke-width="1.5"/><circle cx="710.7930424230312" cy="416.8127813660482" r="5.231798326432548" fill="#FF1493"/>
        <line x1="710.7930424230312" y1="419.8127813660482" x2="710.7930424230312" y2="428.8127813660482" stroke="#27AE60" stroke-width="1.5"/><circle cx="464.2090213939813" cy="370.6948643967454" r="5.840583509197685" fill="#FF1493"/>
        <line x1="464.2090213939813" y1="373.6948643967454" x2="464.2090213939813" y2="382.6948643967454" stroke="#27AE60" stroke-width="1.5"/><circle cx="37.77868510766646" cy="338.7187012861895" r="6.332429032759553" fill="#C0392B"/>
        <line x1="37.77868510766646" y1="341.7187012861895" x2="37.77868510766646" y2="350.7187012861895" stroke="#27AE60" stroke-width="1.5"/><circle cx="664.7553439089818" cy="444.06194486681375" r="3.0740965087486627" fill="#FF1493"/>
        <line x1="664.7553439089818" y1="447.06194486681375" x2="664.7553439089818" y2="456.06194486681375" stroke="#27AE60" stroke-width="1.5"/><circle cx="137.66501976175977" cy="390.525133301781" r="6.36410826930795" fill="#C0392B"/>
        <line x1="137.66501976175977" y1="393.525133301781" x2="137.66501976175977" y2="402.525133301781" stroke="#27AE60" stroke-width="1.5"/><circle cx="534.6343702951444" cy="394.0210653783169" r="6.163267810446113" fill="#C0392B"/>
        <line x1="534.6343702951444" y1="397.0210653783169" x2="534.6343702951444" y2="406.0210653783169" stroke="#27AE60" stroke-width="1.5"/><circle cx="531.6029302828582" cy="354.55583489909947" r="4.105794487425198" fill="#FF6B6B"/>
        <line x1="531.6029302828582" y1="357.55583489909947" x2="531.6029302828582" y2="366.55583489909947" stroke="#27AE60" stroke-width="1.5"/><circle cx="431.45767975694616" cy="429.61216332684216" r="6.204077464602381" fill="#E74C3C"/>
        <line x1="431.45767975694616" y1="432.61216332684216" x2="431.45767975694616" y2="441.61216332684216" stroke="#27AE60" stroke-width="1.5"/><circle cx="99.8617002463324" cy="353.716814273864" r="3.0008984995812633" fill="#FF1493"/>
        <line x1="99.8617002463324" y1="356.716814273864" x2="99.8617002463324" y2="365.716814273864" stroke="#27AE60" stroke-width="1.5"/><circle cx="320.2592930676812" cy="455.00220478084367" r="5.3585412655386255" fill="#C0392B"/>
        <line x1="320.2592930676812" y1="458.00220478084367" x2="320.2592930676812" y2="467.00220478084367" stroke="#27AE60" stroke-width="1.5"/><circle cx="102.80221057298861" cy="339.4451854950489" r="5.029166037413631" fill="#FF6B6B"/>
        <line x1="102.80221057298861" y1="342.4451854950489" x2="102.80221057298861" y2="351.4451854950489" stroke="#27AE60" stroke-width="1.5"/><circle cx="143.7940188559785" cy="407.0384198148914" r="5.432541178890359" fill="#FF1493"/>
        <line x1="143.7940188559785" y1="410.0384198148914" x2="143.7940188559785" y2="419.0384198148914" stroke="#27AE60" stroke-width="1.5"/><circle cx="673.4304289405949" cy="459.18605977820306" r="4.033544207264862" fill="#C0392B"/>
        <line x1="673.4304289405949" y1="462.18605977820306" x2="673.4304289405949" y2="471.18605977820306" stroke="#27AE60" stroke-width="1.5"/><circle cx="185.09899213358008" cy="359.1984325814299" r="6.206203738279484" fill="#E74C3C"/>
        <line x1="185.09899213358008" y1="362.1984325814299" x2="185.09899213358008" y2="371.1984325814299" stroke="#27AE60" stroke-width="1.5"/><circle cx="250.59848122825272" cy="452.37719812439326" r="4.129875424372248" fill="#E74C3C"/>
        <line x1="250.59848122825272" y1="455.37719812439326" x2="250.59848122825272" y2="464.37719812439326" stroke="#27AE60" stroke-width="1.5"/><circle cx="429.8947252269714" cy="324.48944166729984" r="6.735026760655199" fill="#FF6B6B"/>
        <line x1="429.8947252269714" y1="327.48944166729984" x2="429.8947252269714" y2="336.48944166729984" stroke="#27AE60" stroke-width="1.5"/><circle cx="616.9848522407427" cy="399.8697623017998" r="4.084613301047845" fill="#FF6B6B"/>
        <line x1="616.9848522407427" y1="402.8697623017998" x2="616.9848522407427" y2="411.8697623017998" stroke="#27AE60" stroke-width="1.5"/><circle cx="87.07384152077226" cy="430.03288441500314" r="3.597633787126216" fill="#FF1493"/>
        <line x1="87.07384152077226" y1="433.03288441500314" x2="87.07384152077226" y2="442.03288441500314" stroke="#27AE60" stroke-width="1.5"/><circle cx="72.05698809501185" cy="337.2645778587121" r="4.106229107147655" fill="#C0392B"/>
        <line x1="72.05698809501185" y1="340.2645778587121" x2="72.05698809501185" y2="349.2645778587121" stroke="#27AE60" stroke-width="1.5"/><circle cx="133.10877170557438" cy="395.64937937850857" r="4.35186304255609" fill="#FF69B4"/>
        <line x1="133.10877170557438" y1="398.64937937850857" x2="133.10877170557438" y2="407.64937937850857" stroke="#27AE60" stroke-width="1.5"/><circle cx="351.84142329294065" cy="416.7129202870566" r="3.6472574461686973" fill="#FF69B4"/>
        <line x1="351.84142329294065" y1="419.7129202870566" x2="351.84142329294065" y2="428.7129202870566" stroke="#27AE60" stroke-width="1.5"/><circle cx="414.36787805817914" cy="345.08824815579544" r="4.3168220381471345" fill="#FF1493"/>
        <line x1="414.36787805817914" y1="348.08824815579544" x2="414.36787805817914" y2="357.08824815579544" stroke="#27AE60" stroke-width="1.5"/><circle cx="232.23863544147693" cy="404.8984162519373" r="3.0663985516441397" fill="#FF6B6B"/>
        <line x1="232.23863544147693" y1="407.8984162519373" x2="232.23863544147693" y2="416.8984162519373" stroke="#27AE60" stroke-width="1.5"/><circle cx="329.0449274089032" cy="465.60192076317674" r="6.842047510572222" fill="#FF1493"/>
        <line x1="329.0449274089032" y1="468.60192076317674" x2="329.0449274089032" y2="477.60192076317674" stroke="#27AE60" stroke-width="1.5"/><circle cx="412.65734527283666" cy="464.42273133268037" r="4.659736045640886" fill="#FF6B6B"/>
        <line x1="412.65734527283666" y1="467.42273133268037" x2="412.65734527283666" y2="476.42273133268037" stroke="#27AE60" stroke-width="1.5"/><circle cx="655.6115043118409" cy="372.55836636694966" r="5.81527587614797" fill="#FF1493"/>
        <line x1="655.6115043118409" y1="375.55836636694966" x2="655.6115043118409" y2="384.55836636694966" stroke="#27AE60" stroke-width="1.5"/><g transform="translate(400, 280)">
      <ellipse cx="0" cy="0" rx="12" ry="8" fill="#F9CA24"/>
      <rect x="-8" y="-3" width="4" height="6" fill="#333"/>
      <rect x="-2" y="-3" width="4" height="6" fill="#333"/>
      <rect x="4" y="-3" width="4" height="6" fill="#333"/>
      <circle cx="-14" cy="0" r="6" fill="#F9CA24"/>
      <circle cx="-17" cy="-2" r="1.5" fill="#333"/>
      <ellipse cx="2" cy="-10" rx="8" ry="5" fill="#fff" opacity="0.6"/>
      <ellipse cx="8" cy="-8" rx="7" ry="4" fill="#fff" opacity="0.5"/>
      <rect x="-19" y="-8" width="12" height="4" rx="1" fill="#F39C12"/>
      <rect x="-17" y="-11" width="8" height="5" rx="2" fill="#FF9F43"/>
      <polygon points="12,0 18,0 15,-3" fill="#333"/>
      <line x1="-10" y1="6" x2="-10" y2="18" stroke="#8B4513" stroke-width="1.5"/>
      <circle cx="-10" cy="20" r="5" fill="#E74C3C"/>
      <text x="-10" y="22" text-anchor="middle" font-size="4" fill="#fff" font-weight="bold">STOP</text>
    </g><g transform="translate(250,250) scale(0.6)">
        <ellipse cx="0" cy="0" rx="10" ry="6" fill="#F9CA24"/>
        <rect x="-6" y="-2" width="3" height="4" fill="#333"/>
        <rect x="-1" y="-2" width="3" height="4" fill="#333"/>
        <rect x="4" y="-2" width="3" height="4" fill="#333"/>
        <circle cx="-12" cy="0" r="5" fill="#F9CA24"/>
        <circle cx="-14" cy="-1" r="1" fill="#333"/>
        <ellipse cx="0" cy="-7" rx="6" ry="4" fill="#fff" opacity="0.5"/>
        <ellipse cx="0" cy="8" rx="5" ry="4" fill="#F39C12" opacity="0.8"/>
      </g><g transform="translate(500,260) scale(0.6)">
        <ellipse cx="0" cy="0" rx="10" ry="6" fill="#F9CA24"/>
        <rect x="-6" y="-2" width="3" height="4" fill="#333"/>
        <rect x="-1" y="-2" width="3" height="4" fill="#333"/>
        <rect x="4" y="-2" width="3" height="4" fill="#333"/>
        <circle cx="-12" cy="0" r="5" fill="#F9CA24"/>
        <circle cx="-14" cy="-1" r="1" fill="#333"/>
        <ellipse cx="0" cy="-7" rx="6" ry="4" fill="#fff" opacity="0.5"/>
        <ellipse cx="0" cy="8" rx="5" ry="4" fill="#F39C12" opacity="0.8"/>
      </g><g transform="translate(150,300) scale(0.6)">
        <ellipse cx="0" cy="0" rx="10" ry="6" fill="#F9CA24"/>
        <rect x="-6" y="-2" width="3" height="4" fill="#333"/>
        <rect x="-1" y="-2" width="3" height="4" fill="#333"/>
        <rect x="4" y="-2" width="3" height="4" fill="#333"/>
        <circle cx="-12" cy="0" r="5" fill="#F9CA24"/>
        <circle cx="-14" cy="-1" r="1" fill="#333"/>
        <ellipse cx="0" cy="-7" rx="6" ry="4" fill="#fff" opacity="0.5"/>
        <ellipse cx="0" cy="8" rx="5" ry="4" fill="#F39C12" opacity="0.8"/>
      </g><g transform="translate(600,290) scale(0.6)">
        <ellipse cx="0" cy="0" rx="10" ry="6" fill="#F9CA24"/>
        <rect x="-6" y="-2" width="3" height="4" fill="#333"/>
        <rect x="-1" y="-2" width="3" height="4" fill="#333"/>
        <rect x="4" y="-2" width="3" height="4" fill="#333"/>
        <circle cx="-12" cy="0" r="5" fill="#F9CA24"/>
        <circle cx="-14" cy="-1" r="1" fill="#333"/>
        <ellipse cx="0" cy="-7" rx="6" ry="4" fill="#fff" opacity="0.5"/>
        <ellipse cx="0" cy="8" rx="5" ry="4" fill="#F39C12" opacity="0.8"/>
      </g><g transform="translate(350,320) scale(0.6)">
        <ellipse cx="0" cy="0" rx="10" ry="6" fill="#F9CA24"/>
        <rect x="-6" y="-2" width="3" height="4" fill="#333"/>
        <rect x="-1" y="-2" width="3" height="4" fill="#333"/>
        <rect x="4" y="-2" width="3" height="4" fill="#333"/>
        <circle cx="-12" cy="0" r="5" fill="#F9CA24"/>
        <circle cx="-14" cy="-1" r="1" fill="#333"/>
        <ellipse cx="0" cy="-7" rx="6" ry="4" fill="#fff" opacity="0.5"/>
        <ellipse cx="0" cy="8" rx="5" ry="4" fill="#F39C12" opacity="0.8"/>
      </g><g>
    <rect x="360" y="223" width="80" height="22" rx="10" fill="#fff" stroke="#333" stroke-width="1.5"/>
    <polygon points="395,245 405,245 400,255" fill="#fff"/>
    <text x="400" y="237.33333333333334" text-anchor="middle" font-size="10" font-family="Arial, sans-serif" fill="#333">Lane 3, GO!</text>
  </g>
</svg>