<svg xmlns="http://www.w3.org/2000/svg" viewBox="0 0 800 500" width="800" height="500">
  <defs>
    <style>
      text { font-family: 'Arial', 'Helvetica', sans-serif; }
    </style>
  </defs>
  <rect width="800" height="500" fill="#FFD89B"/>
  <rect width="800" height="500" fill="#FFD89B"/><ellipse cx="200" cy="200" rx="150" ry="100" fill="#FF9A76" opacity="0.3"/><circle cx="200" cy="200" r="40" fill="#FF6B6B" opacity="0.6"/><rect x="0" y="280" width="800" height="220" fill="#5DADE2"/>
    <path d="M0,295 Q50,288 100,295 Q150,302 200,295" fill="none" stroke="#fff" stroke-width="1.5" opacity="0.5"/><path d="M200,295 Q250,288 300,295 Q350,302 400,295" fill="none" stroke="#fff" stroke-width="1.5" opacity="0.5"/><path d="M400,295 Q450,288 500,295 Q550,302 600,295" fill="none" stroke="#fff" stroke-width="1.5" opacity="0.5"/><path d="M600,295 Q650,288 700,295 Q750,302 800,295" fill="none" stroke="#fff" stroke-width="1.5" opacity="0.5"/><path d="M800,295 Q850,288 900,295 Q950,302 1000,295" fill="none" stroke="#fff" stroke-width="1.5" opacity="0.5"/><ellipse cx="400" cy="430" rx="450" ry="100" fill="#F5DEB3"/><g transform="translate(400, 340)">
      <ellipse cx="0" cy="10" rx="10" ry="14" fill="#E74C3C"/>
      <circle cx="0" cy="-6" r="10" fill="#FFEAA7"/>
      <circle cx="-4" cy="-8" r="2" fill="#333"/>
      <circle cx="4" cy="-8" r="2" fill="#333"/>
      <path d="M-4,-1 Q0,-4 4,-1" fill="none" stroke="#333" stroke-width="1.5"/>
      <line x1="-5" y1="22" x2="-5" y2="40" stroke="#E74C3C" stroke-width="4" stroke-linecap="round"/>
      <line x1="5" y1="22" x2="15" y2="15" stroke="#E74C3C" stroke-width="4" stroke-linecap="round"/>
      <ellipse cx="-5" cy="42" rx="6" ry="3" fill="#3498DB"/>
      <circle cx="17" cy="14" r="4" fill="#FFEAA7"/>
      <line x1="-8" y1="5" x2="-25" y2="-5" stroke="#E74C3C" stroke-width="3" stroke-linecap="round"/>
      <line x1="8" y1="5" x2="25" y2="-5" stroke="#E74C3C" stroke-width="3" stroke-linecap="round"/>
    </g><g transform="translate(300, 390)">
      <ellipse cx="0" cy="0" rx="15" ry="10" fill="#E74C3C"/>
      <line x1="-5" y1="-8" x2="-5" y2="-15" stroke="#E74C3C" stroke-width="2"/>
      <circle cx="-5" cy="-16" r="3" fill="#E74C3C"/>
      <circle cx="-5" cy="-16" r="1.5" fill="#333"/>
      <line x1="5" y1="-8" x2="5" y2="-15" stroke="#E74C3C" stroke-width="2"/>
      <circle cx="5" cy="-16" r="3" fill="#E74C3C"/>
      <circle cx="5" cy="-16" r="1.5" fill="#333"/>
      <path d="M-15,0 Q-25,-5 -20,-12 Q-15,-8 -15,0" fill="#C0392B"/>
      <path d="M15,0 Q25,-5 20,-12" fill="none" stroke="#C0392B" stroke-width="3"/>
      <ellipse cx="22" cy="-14" rx="8" ry="4" fill="#3498DB" transform="rotate(-20, 22, -14)"/>
      <line x1="-12" y1="5" x2="-18" y2="12" stroke="#C0392B" stroke-width="2"/>
      <line x1="-8" y1="8" x2="-14" y2="15" stroke="#C0392B" stroke-width="2"/>
      <line x1="12" y1="5" x2="18" y2="12" stroke="#C0392B" stroke-width="2"/>
      <line x1="8" y1="8" x2="14" y2="15" stroke="#C0392B" stroke-width="2"/>
      <line x1="-25" y1="0" x2="-35" y2="0" stroke="#333" stroke-width="1" opacity="0.4"/>
      <line x1="-25" y1="5" x2="-33" y2="5" stroke="#333" stroke-width="1" opacity="0.3"/>
    </g><text x="350" y="330" text-anchor="middle" font-size="14" fill="#E74C3C" font-weight="bold">COME BACK!!</text><ellipse cx="330" cy="400" rx="3" ry="5" fill="#D4AC0D" opacity="0.4"/><ellipse cx="310" cy="405" rx="3" ry="5" fill="#D4AC0D" opacity="0.4"/><ellipse cx="290" cy="410" rx="3" ry="5" fill="#D4AC0D" opacity="0.4"/><ellipse cx="270" cy="415" rx="3" ry="5" fill="#D4AC0D" opacity="0.4"/><ellipse cx="250" cy="420" rx="3" ry="5" fill="#D4AC0D" opacity="0.4"/>
</svg>