<svg xmlns="http://www.w3.org/2000/svg" viewBox="0 0 800 500" width="800" height="500">
  <defs>
    <style>
      text { font-family: 'Arial', 'Helvetica', sans-serif; }
    </style>
  </defs>
  <rect width="800" height="500" fill="#87CEEB"/>
  <g transform="translate(100,40) scale(0.8)">
    <ellipse cx="0" cy="0" rx="40" ry="25" fill="#fff" opacity="0.9"/>
    <ellipse cx="-30" cy="5" rx="25" ry="18" fill="#fff" opacity="0.9"/>
    <ellipse cx="30" cy="5" rx="28" ry="20" fill="#fff" opacity="0.9"/>
    <ellipse cx="15" cy="-10" rx="20" ry="15" fill="#fff" opacity="0.9"/>
  </g><g transform="translate(600,50) scale(0.6)">
    <ellipse cx="0" cy="0" rx="40" ry="25" fill="#fff" opacity="0.9"/>
    <ellipse cx="-30" cy="5" rx="25" ry="18" fill="#fff" opacity="0.9"/>
    <ellipse cx="30" cy="5" rx="28" ry="20" fill="#fff" opacity="0.9"/>
    <ellipse cx="15" cy="-10" rx="20" ry="15" fill="#fff" opacity="0.9"/>
  </g><polygon points="400,80 100,430 700,430" fill="#6C9A8B"/>
    <polygon points="400,80 310,185.00000000000003 490,185.00000000000003" fill="#fff" opacity="0.6"/><polygon points="200,180 50,430 350,430" fill="#5D8A7B"/>
    <polygon points="200,180 155,255 245,255" fill="#fff" opacity="0.6"/><rect x="385" y="80" width="30" height="5" fill="#5D8A7B"/><g transform="translate(400, 40)">
      <circle cx="0" cy="0" r="12" fill="#FFEAA7"/>
      <circle cx="-4" cy="-2" r="2" fill="#333"/>
      <circle cx="4" cy="-2" r="2" fill="#333"/>
      <path d="M-4,4 Q0,7 4,4" fill="none" stroke="#333" stroke-width="1.2"/>
      <ellipse cx="0" cy="18" rx="10" ry="14" fill="#E74C3C"/>
      <line x1="-10" y1="12" x2="-20" y2="0" stroke="#E74C3C" stroke-width="3" stroke-linecap="round"/>
      <line x1="10" y1="12" x2="20" y2="0" stroke="#E74C3C" stroke-width="3" stroke-linecap="round"/>
      <path d="M-5,30 Q-8,36 -5,42 Q-2,48 -5,54" fill="none" stroke="#E74C3C" stroke-width="4" stroke-linecap="round"/>
      <path d="M5,30 Q8,36 5,42 Q2,48 5,54" fill="none" stroke="#E74C3C" stroke-width="4" stroke-linecap="round"/>
      <ellipse cx="-5" cy="56" rx="6" ry="3" fill="#333"/>
      <ellipse cx="5" cy="56" rx="6" ry="3" fill="#333"/>
    </g><g transform="translate(400, 10)">
      <rect x="-60" y="-12" width="120" height="24" rx="3" fill="#fff" stroke="#333" stroke-width="1.5"/>
      <text x="0" y="3" text-anchor="middle" font-size="9" fill="#333" font-weight="bold">I climbed Beijing highest!</text>
    </g><circle cx="385" cy="35" r="2.5" fill="#74B9FF"/>
      <circle cx="418" cy="30" r="2" fill="#74B9FF"/>
      <circle cx="380" cy="50" r="1.5" fill="#74B9FF"/><path d="M382,70 L378,75" stroke="#333" stroke-width="1" opacity="0.4"/>
      <path d="M422,70 L426,75" stroke="#333" stroke-width="1" opacity="0.4"/>
      <path d="M380,80 L375,82" stroke="#333" stroke-width="1" opacity="0.3"/>
      <path d="M424,80 L429,82" stroke="#333" stroke-width="1" opacity="0.3"/><g transform="translate(450, 75)">
      <rect x="0" y="0" width="60" height="20" rx="3" fill="#F39C12"/>
      <text x="30" y="14" text-anchor="middle" font-size="9" fill="#fff" font-weight="bold">2303m</text>
    </g>
</svg>