<svg xmlns="http://www.w3.org/2000/svg" viewBox="0 0 800 500" width="800" height="500">
  <defs>
    <style>
      text { font-family: 'Arial', 'Helvetica', sans-serif; }
    </style>
  </defs>
  <rect width="800" height="500" fill="#87CEEB"/>
  <polygon points="0,0 200,0 180,500 0,500" fill="#A0522D"/><polygon points="800,0 600,0 620,500 800,500" fill="#8B4513"/><polygon points="200,0 250,0 230,500 180,500" fill="#8B6914" opacity="0.5"/><polygon points="600,0 550,0 570,500 620,500" fill="#8B6914" opacity="0.5"/><g transform="translate(400,30) scale(0.5)">
    <ellipse cx="0" cy="0" rx="40" ry="25" fill="#fff" opacity="0.9"/>
    <ellipse cx="-30" cy="5" rx="25" ry="18" fill="#fff" opacity="0.9"/>
    <ellipse cx="30" cy="5" rx="28" ry="20" fill="#fff" opacity="0.9"/>
    <ellipse cx="15" cy="-10" rx="20" ry="15" fill="#fff" opacity="0.9"/>
  </g><rect x="180" y="400" width="440" height="100" fill="#C4A882"/><g transform="scale(0.6)">
    <!-- body -->
    <ellipse cx="350" cy="365" rx="14" ry="20" fill="#3498DB"/>
    <!-- legs -->
    <line x1="343" y1="382" x2="341" y2="398" stroke="#3498DB" stroke-width="5" stroke-linecap="round"/>
    <line x1="357" y1="382" x2="359" y2="398" stroke="#3498DB" stroke-width="5" stroke-linecap="round"/>
    <!-- arms -->
    <line x1="338" y1="355" x2="332" y2="370" stroke="#3498DB" stroke-width="5" stroke-linecap="round"/><line x1="362" y1="355" x2="368" y2="370" stroke="#3498DB" stroke-width="5" stroke-linecap="round"/>
    <!-- head -->
    <circle cx="350" cy="330" r="16" fill="#FFEAA7"/>
    <!-- hair -->
    <ellipse cx="350" cy="318" rx="16" ry="8" fill="#333"/>
    <circle cx="344" cy="325" r="2.5" fill="#333"/><circle cx="356" cy="325" r="2.5" fill="#333"/>
    <path d="M345,333 Q350,339 355,333" fill="none" stroke="#333" stroke-width="1.5"/>
    <!-- blush -->
    <circle cx="340" cy="331" r="3" fill="#FF9999" opacity="0.4"/>
    <circle cx="360" cy="331" r="3" fill="#FF9999" opacity="0.4"/>
  </g><g transform="scale(0.6)">
    <!-- body -->
    <ellipse cx="300" cy="370" rx="14" ry="20" fill="#E74C3C"/>
    <!-- legs -->
    <line x1="293" y1="387" x2="291" y2="403" stroke="#E74C3C" stroke-width="5" stroke-linecap="round"/>
    <line x1="307" y1="387" x2="309" y2="403" stroke="#E74C3C" stroke-width="5" stroke-linecap="round"/>
    <!-- arms -->
    <line x1="288" y1="360" x2="282" y2="375" stroke="#E74C3C" stroke-width="5" stroke-linecap="round"/><line x1="312" y1="360" x2="318" y2="375" stroke="#E74C3C" stroke-width="5" stroke-linecap="round"/>
    <!-- head -->
    <circle cx="300" cy="335" r="16" fill="#FFEAA7"/>
    <!-- hair -->
    <ellipse cx="300" cy="323" rx="16" ry="8" fill="#333"/>
    <line x1="291" y1="327" x2="295" y2="329" stroke="#333" stroke-width="2"/>
      <circle cx="294" cy="331" r="2" fill="#333"/>
      <line x1="305" y1="327" x2="309" y2="329" stroke="#333" stroke-width="2"/>
      <circle cx="306" cy="331" r="2" fill="#333"/>
    <path d="M295,340 Q300,337 305,340" fill="none" stroke="#333" stroke-width="1.5"/>
    <!-- blush -->
    <circle cx="290" cy="336" r="3" fill="#FF9999" opacity="0.4"/>
    <circle cx="310" cy="336" r="3" fill="#FF9999" opacity="0.4"/>
  </g><g transform="translate(400, 340)">
      <ellipse cx="0" cy="10" rx="8" ry="12" fill="#2ECC71"/>
      <circle cx="0" cy="-5" r="9" fill="#FFEAA7"/>
      <line x1="-6" y1="-9" x2="-2" y2="-7" stroke="#333" stroke-width="1.5"/>
      <circle cx="-4" cy="-5" r="1.5" fill="#333"/>
      <line x1="2" y1="-9" x2="6" y2="-7" stroke="#333" stroke-width="1.5"/>
      <circle cx="4" cy="-5" r="1.5" fill="#333"/>
      <path d="M-3,1 Q0,-1 3,1" fill="none" stroke="#333" stroke-width="1.2"/>
      <rect x="-30" y="-10" width="25" height="30" rx="5" fill="#F39C12"/>
      <rect x="5" y="-10" width="25" height="30" rx="5" fill="#F39C12"/>
      <text x="-35" y="5" font-size="14" fill="#E74C3C">!</text>
      <text x="33" y="5" font-size="14" fill="#E74C3C">!</text>
    </g><g transform="translate(450, 345)">
      <circle cx="0" cy="0" r="8" fill="#FFEAA7"/>
      <circle cx="-3" cy="-2" r="1.5" fill="#333"/>
      <circle cx="3" cy="-2" r="1.5" fill="#333"/>
      <ellipse cx="0" cy="4" rx="3" ry="4" fill="#333"/>
      <ellipse cx="0" cy="14" rx="7" ry="10" fill="#F39C12"/>
      <line x1="-7" y1="10" x2="-20" y2="5" stroke="#F39C12" stroke-width="3" stroke-linecap="round"/>
    </g><text x="400" y="300" text-anchor="middle" font-size="12" fill="#E74C3C" font-weight="bold">STUCK!</text><circle cx="388" cy="325" r="2" fill="#74B9FF"/>
      <circle cx="415" cy="320" r="1.5" fill="#74B9FF"/>
</svg>