<svg xmlns="http://www.w3.org/2000/svg" viewBox="0 0 800 500" width="800" height="500">
  <defs>
    <style>
      text { font-family: 'Arial', 'Helvetica', sans-serif; }
    </style>
  </defs>
  <rect width="800" height="500" fill="#FDEBD0"/>
  <rect width="800" height="500" fill="#FDEBD0"/><ellipse cx="100" cy="124.42261692710514" rx="37.47982829121102" ry="18.29684312835422" fill="#fff" opacity="0.21249182262927438"/><ellipse cx="190" cy="148.340127898979" rx="33.130492720976996" ry="22.235966206870895" fill="#fff" opacity="0.26085347801285996"/><ellipse cx="280" cy="133.49871261405173" rx="32.53109401101164" ry="24.90761573550601" fill="#fff" opacity="0.32039168550361863"/><ellipse cx="370" cy="102.09895030170033" rx="31.021005191986607" ry="21.108426581171145" fill="#fff" opacity="0.26592542576389505"/><ellipse cx="460" cy="137.18931354624013" rx="41.079638971532475" ry="15.050190924411291" fill="#fff" opacity="0.2645797459583596"/><ellipse cx="550" cy="117.49953651972339" rx="40.50728214263547" ry="21.002567141781462" fill="#fff" opacity="0.20312118792603595"/><ellipse cx="640" cy="126.48735115739159" rx="30.114056345351326" ry="15.660066345436974" fill="#fff" opacity="0.30236734324999065"/><ellipse cx="730" cy="129.39092529936553" rx="33.25089511346957" ry="22.803100907003078" fill="#fff" opacity="0.39355077984514775"/><ellipse cx="400" cy="350" rx="250" ry="100" fill="#8ED1FC" opacity="0.6"/><ellipse cx="400" cy="345" rx="240" ry="95" fill="#6FC3DF" opacity="0.5"/><ellipse cx="400" cy="350" rx="260" ry="105" fill="none" stroke="#BDC3C7" stroke-width="8"/><path d="M250,300 Q240,280 250,260 Q260,240 250,220" fill="none" stroke="#fff" stroke-width="3" opacity="0.4"/><path d="M310,300 Q300,280 310,260 Q320,240 310,220" fill="none" stroke="#fff" stroke-width="3" opacity="0.4"/><path d="M370,300 Q360,280 370,260 Q380,240 370,220" fill="none" stroke="#fff" stroke-width="3" opacity="0.4"/><path d="M430,300 Q420,280 430,260 Q440,240 430,220" fill="none" stroke="#fff" stroke-width="3" opacity="0.4"/><path d="M490,300 Q480,280 490,260 Q500,240 490,220" fill="none" stroke="#fff" stroke-width="3" opacity="0.4"/><path d="M550,300 Q540,280 550,260 Q560,240 550,220" fill="none" stroke="#fff" stroke-width="3" opacity="0.4"/><g transform="translate(400, 330)">
      <path d="M-60,0 Q-40,-15 -20,0 Q0,15 20,0 Q40,-15 60,0" fill="none" stroke="#FFEAA7" stroke-width="14" stroke-linecap="round"/>
      <circle cx="-65" cy="5" r="14" fill="#FFEAA7"/>
      <path d="M-70,2 Q-68,0 -66,2" fill="none" stroke="#333" stroke-width="1.5"/>
      <path d="M-64,2 Q-62,0 -60,2" fill="none" stroke="#333" stroke-width="1.5"/>
      <path d="M-68,8 Q-65,11 -62,8" fill="none" stroke="#333" stroke-width="1.2"/>
      <circle cx="65" cy="5" r="5" fill="#FFEAA7"/>
      <circle cx="72" cy="3" r="4" fill="#FFEAA7"/>
    </g><g transform="scale(0.6)">
    <ellipse cx="300" cy="318" rx="14" ry="10" fill="#F9CA24"/>
    <circle cx="298" cy="308" r="10" fill="#F9CA24"/>
    <circle cx="296" cy="305" r="2" fill="#333"/>
    <ellipse cx="288" cy="310" rx="6" ry="3" fill="#FF9F43"/>
    
  </g><g transform="scale(0.5)">
    <ellipse cx="480" cy="323" rx="14" ry="10" fill="#F9CA24"/>
    <circle cx="478" cy="313" r="10" fill="#F9CA24"/>
    <circle cx="476" cy="310" r="2" fill="#333"/>
    <ellipse cx="468" cy="315" rx="6" ry="3" fill="#FF9F43"/>
    
  </g><g>
    <rect x="290" y="255" width="100" height="25" rx="10" fill="#fff" stroke="#333" stroke-width="1.5"/>
    <polygon points="335,280 345,280 340,290" fill="#fff"/>
    <text x="340" y="270.8333333333333" text-anchor="middle" font-size="10" font-family="Arial, sans-serif" fill="#333">I am... noodle...</text>
  </g><rect x="318" y="315" width="35" height="8" rx="2" fill="#fff"/><line x1="50" y1="150" x2="50" y2="400" stroke="#27AE60" stroke-width="6"/><path d="M50,180 Q30,170 20,180" fill="none" stroke="#27AE60" stroke-width="3"/><path d="M50,220 Q30,210 15,220" fill="none" stroke="#27AE60" stroke-width="3"/><line x1="750" y1="160" x2="750" y2="400" stroke="#27AE60" stroke-width="6"/><path d="M750,190 Q770,180 780,190" fill="none" stroke="#27AE60" stroke-width="3"/>
</svg>