<svg xmlns="http://www.w3.org/2000/svg" viewBox="0 0 800 500" width="800" height="500">
  <defs>
    <style>
      text { font-family: 'Arial', 'Helvetica', sans-serif; }
    </style>
  </defs>
  <rect width="800" height="500" fill="#87CEEB"/>
  <polygon points="0,0 150,0 100,500 0,500" fill="#8B7355"/><polygon points="800,0 650,0 700,500 800,500" fill="#7B6345"/><g transform="translate(400,40) scale(0.6)">
    <ellipse cx="0" cy="0" rx="40" ry="25" fill="#fff" opacity="0.9"/>
    <ellipse cx="-30" cy="5" rx="25" ry="18" fill="#fff" opacity="0.9"/>
    <ellipse cx="30" cy="5" rx="28" ry="20" fill="#fff" opacity="0.9"/>
    <ellipse cx="15" cy="-10" rx="20" ry="15" fill="#fff" opacity="0.9"/>
  </g><rect x="100" y="80" width="600" height="15" fill="#888" rx="3"/><rect x="90" y="60" width="15" height="40" fill="#666"/><rect x="695" y="60" width="15" height="40" fill="#666"/><path d="M400,95 Q390,250 400,300" fill="none" stroke="#2ECC71" stroke-width="3" stroke-dasharray="5,3"/><g transform="translate(400, 280)">
      <ellipse cx="0" cy="8" rx="10" ry="14" fill="#3498DB"/>
      <circle cx="0" cy="-8" r="11" fill="#FFEAA7"/>
      <circle cx="-4" cy="-10" r="3" fill="#fff" stroke="#333" stroke-width="1"/>
      <circle cx="-4" cy="-10" r="1.5" fill="#333"/>
      <circle cx="4" cy="-10" r="3" fill="#fff" stroke="#333" stroke-width="1"/>
      <circle cx="4" cy="-10" r="1.5" fill="#333"/>
      <ellipse cx="0" cy="-1" rx="5" ry="7" fill="#333"/>
      <line x1="-10" y1="2" x2="-25" y2="-10" stroke="#3498DB" stroke-width="4" stroke-linecap="round"/>
      <line x1="10" y1="2" x2="25" y2="-10" stroke="#3498DB" stroke-width="4" stroke-linecap="round"/>
      <line x1="-5" y1="20" x2="-10" y2="35" stroke="#3498DB" stroke-width="4" stroke-linecap="round"/>
      <line x1="5" y1="20" x2="10" y2="35" stroke="#3498DB" stroke-width="4" stroke-linecap="round"/>
    </g><g transform="translate(420, 220)">
      <ellipse cx="0" cy="0" rx="14" ry="8" fill="#8B4513"/>
      <path d="M-10,-3 Q-5,-8 0,-3 Q5,-8 10,-3" fill="#8B4513"/>
      <line x1="15" y1="0" x2="25" y2="-5" stroke="#333" stroke-width="1" opacity="0.5"/>
      <line x1="15" y1="3" x2="28" y2="3" stroke="#333" stroke-width="1" opacity="0.5"/>
    </g><g transform="scale(0.6)">
    <!-- body -->
    <ellipse cx="250" cy="435" rx="14" ry="20" fill="#E74C3C"/>
    <!-- legs -->
    <line x1="243" y1="452" x2="241" y2="468" stroke="#E74C3C" stroke-width="5" stroke-linecap="round"/>
    <line x1="257" y1="452" x2="259" y2="468" stroke="#E74C3C" stroke-width="5" stroke-linecap="round"/>
    <!-- arms -->
    <line x1="238" y1="425" x2="232" y2="440" stroke="#E74C3C" stroke-width="5" stroke-linecap="round"/><line x1="262" y1="425" x2="268" y2="440" stroke="#E74C3C" stroke-width="5" stroke-linecap="round"/>
    <!-- head -->
    <circle cx="250" cy="400" r="16" fill="#FFEAA7"/>
    <!-- hair -->
    <ellipse cx="250" cy="388" rx="16" ry="8" fill="#333"/>
    <circle cx="244" cy="395" r="2.5" fill="#333"/><circle cx="256" cy="395" r="2.5" fill="#333"/>
    <path d="M245,403 Q250,409 255,403" fill="none" stroke="#333" stroke-width="1.5"/>
    <!-- blush -->
    <circle cx="240" cy="401" r="3" fill="#FF9999" opacity="0.4"/>
    <circle cx="260" cy="401" r="3" fill="#FF9999" opacity="0.4"/>
  </g><g transform="scale(0.6)">
    <!-- body -->
    <ellipse cx="350" cy="445" rx="14" ry="20" fill="#F39C12"/>
    <!-- legs -->
    <line x1="343" y1="462" x2="341" y2="478" stroke="#F39C12" stroke-width="5" stroke-linecap="round"/>
    <line x1="357" y1="462" x2="359" y2="478" stroke="#F39C12" stroke-width="5" stroke-linecap="round"/>
    <!-- arms -->
    <line x1="338" y1="435" x2="332" y2="450" stroke="#F39C12" stroke-width="5" stroke-linecap="round"/><line x1="362" y1="435" x2="368" y2="450" stroke="#F39C12" stroke-width="5" stroke-linecap="round"/>
    <!-- head -->
    <circle cx="350" cy="410" r="16" fill="#FFEAA7"/>
    <!-- hair -->
    <ellipse cx="350" cy="398" rx="16" ry="8" fill="#333"/>
    <circle cx="344" cy="405" r="2.5" fill="#333"/><circle cx="356" cy="405" r="2.5" fill="#333"/>
    <path d="M345,413 Q350,419 355,413" fill="none" stroke="#333" stroke-width="1.5"/>
    <!-- blush -->
    <circle cx="340" cy="411" r="3" fill="#FF9999" opacity="0.4"/>
    <circle cx="360" cy="411" r="3" fill="#FF9999" opacity="0.4"/>
  </g><g transform="scale(0.6)">
    <!-- body -->
    <ellipse cx="500" cy="440" rx="14" ry="20" fill="#9B59B6"/>
    <!-- legs -->
    <line x1="493" y1="457" x2="491" y2="473" stroke="#9B59B6" stroke-width="5" stroke-linecap="round"/>
    <line x1="507" y1="457" x2="509" y2="473" stroke="#9B59B6" stroke-width="5" stroke-linecap="round"/>
    <!-- arms -->
    <line x1="488" y1="430" x2="482" y2="445" stroke="#9B59B6" stroke-width="5" stroke-linecap="round"/><line x1="512" y1="430" x2="518" y2="445" stroke="#9B59B6" stroke-width="5" stroke-linecap="round"/>
    <!-- head -->
    <circle cx="500" cy="405" r="16" fill="#FFEAA7"/>
    <!-- hair -->
    <ellipse cx="500" cy="393" rx="16" ry="8" fill="#333"/>
    <circle cx="494" cy="400" r="2.5" fill="#333"/><circle cx="506" cy="400" r="2.5" fill="#333"/>
    <path d="M495,408 Q500,414 505,408" fill="none" stroke="#333" stroke-width="1.5"/>
    <!-- blush -->
    <circle cx="490" cy="406" r="3" fill="#FF9999" opacity="0.4"/>
    <circle cx="510" cy="406" r="3" fill="#FF9999" opacity="0.4"/>
  </g><text x="300" y="390" font-size="16" fill="#E74C3C" font-weight="bold">HA HA HA!</text><rect x="0" y="440" width="800" height="60" fill="#48C9B0"/>
    <path d="M0,455 Q50,448 100,455 Q150,462 200,455" fill="none" stroke="#fff" stroke-width="1.5" opacity="0.5"/><path d="M200,455 Q250,448 300,455 Q350,462 400,455" fill="none" stroke="#fff" stroke-width="1.5" opacity="0.5"/><path d="M400,455 Q450,448 500,455 Q550,462 600,455" fill="none" stroke="#fff" stroke-width="1.5" opacity="0.5"/><path d="M600,455 Q650,448 700,455 Q750,462 800,455" fill="none" stroke="#fff" stroke-width="1.5" opacity="0.5"/><path d="M800,455 Q850,448 900,455 Q950,462 1000,455" fill="none" stroke="#fff" stroke-width="1.5" opacity="0.5"/>
</svg>