<svg xmlns="http://www.w3.org/2000/svg" viewBox="0 0 800 500" width="800" height="500">
  <defs>
    <style>
      text { font-family: 'Arial', 'Helvetica', sans-serif; }
    </style>
  </defs>
  <rect width="800" height="500" fill="#87CEEB"/>
  <g transform="translate(100,40) scale(1)">
    <ellipse cx="0" cy="0" rx="40" ry="25" fill="#fff" opacity="0.9"/>
    <ellipse cx="-30" cy="5" rx="25" ry="18" fill="#fff" opacity="0.9"/>
    <ellipse cx="30" cy="5" rx="28" ry="20" fill="#fff" opacity="0.9"/>
    <ellipse cx="15" cy="-10" rx="20" ry="15" fill="#fff" opacity="0.9"/>
  </g><g transform="translate(500,50) scale(0.7)">
    <ellipse cx="0" cy="0" rx="40" ry="25" fill="#fff" opacity="0.9"/>
    <ellipse cx="-30" cy="5" rx="25" ry="18" fill="#fff" opacity="0.9"/>
    <ellipse cx="30" cy="5" rx="28" ry="20" fill="#fff" opacity="0.9"/>
    <ellipse cx="15" cy="-10" rx="20" ry="15" fill="#fff" opacity="0.9"/>
  </g><circle cx="680" cy="55" r="30" fill="#FFD93D"/>
    <g stroke="#FFD93D" stroke-width="3" fill="none">
      <line x1="718" y1="55" x2="730" y2="55"/><line x1="706.8700576850888" y1="81.8700576850888" x2="715.3553390593274" y2="90.35533905932738"/><line x1="680" y1="93" x2="680" y2="105"/><line x1="653.1299423149112" y1="81.87005768508881" x2="644.6446609406727" y2="90.35533905932738"/><line x1="642" y1="55.00000000000001" x2="630" y2="55.00000000000001"/><line x1="653.1299423149112" y1="28.129942314911197" x2="644.6446609406726" y2="19.64466094067263"/><line x1="680" y1="17" x2="680" y2="5"/><line x1="706.8700576850888" y1="28.129942314911187" x2="715.3553390593273" y2="19.644660940672615"/>
    </g><rect x="0" y="300" width="800" height="200" fill="#7BC67E"/><g transform="translate(600, 280)">
      <ellipse cx="0" cy="20" rx="45" ry="15" fill="#F5E6CC"/>
      <path d="M-45,20 Q0,-20 45,20" fill="#fff" stroke="#D4AC0D" stroke-width="2"/>
      <rect x="-8" y="5" width="16" height="25" rx="3" fill="#8B4513"/>
    </g><g transform="translate(300, 310)">
      <ellipse cx="0" cy="0" rx="40" ry="22" fill="#8B4513"/>
      <ellipse cx="-45" cy="20" rx="15" ry="10" fill="#A0522D" transform="rotate(-15)"/>
      <polygon points="-48,6 -44,0 -40,6" fill="#A0522D"/>
      <polygon points="-38,6 -34,0 -30,6" fill="#A0522D"/>
      <circle cx="-48" cy="14" r="2" fill="#333"/>
      <path d="M-30,-10 Q-20,-20 -10,-8 Q0,-18 10,-8" fill="#5D4037"/>
      <line x1="-25" y1="20" x2="-25" y2="45" stroke="#8B4513" stroke-width="5"/>
      <line x1="-10" y1="20" x2="-10" y2="45" stroke="#8B4513" stroke-width="5"/>
      <line x1="15" y1="20" x2="15" y2="45" stroke="#8B4513" stroke-width="5"/>
      <line x1="30" y1="20" x2="30" y2="45" stroke="#8B4513" stroke-width="5"/>
      <path d="M38,0 Q50,-5 45,10" fill="none" stroke="#5D4037" stroke-width="4"/>
      <line x1="-55" y1="28" x2="-50" y2="22" stroke="#27AE60" stroke-width="2"/>
      <line x1="-52" y1="28" x2="-48" y2="23" stroke="#27AE60" stroke-width="2"/>
    </g><g transform="translate(300, 278)">
      <ellipse cx="0" cy="5" rx="8" ry="10" fill="#3498DB"/>
      <circle cx="0" cy="-7" r="9" fill="#FFEAA7"/>
      <line x1="-6" y1="-11" x2="-2" y2="-9" stroke="#333" stroke-width="1.5"/>
      <circle cx="-4" cy="-7" r="1.5" fill="#333"/>
      <line x1="2" y1="-11" x2="6" y2="-9" stroke="#333" stroke-width="1.5"/>
      <circle cx="4" cy="-7" r="1.5" fill="#333"/>
      <path d="M-3,-1 Q0,-3 3,-1" fill="none" stroke="#333" stroke-width="1.2"/>
      <line x1="-8" y1="2" x2="-20" y2="15" stroke="#3498DB" stroke-width="3" stroke-linecap="round"/>
      <line x1="8" y1="2" x2="20" y2="15" stroke="#3498DB" stroke-width="3" stroke-linecap="round"/>
    </g><path d="M280,293 Q270,300 260,310" fill="none" stroke="#333" stroke-width="1.5"/>
      <path d="M320,293 Q310,300 260,310" fill="none" stroke="#333" stroke-width="1.5"/><g>
    <rect x="255" y="223" width="90" height="22" rx="10" fill="#fff" stroke="#333" stroke-width="1.5"/>
    <polygon points="295,245 305,245 300,255" fill="#fff"/>
    <text x="300" y="237.33333333333334" text-anchor="middle" font-size="10" font-family="Arial, sans-serif" fill="#333">MOVE please!</text>
  </g><path d="M755.1042479594793,456.59373350133546 Q752.1042479594793,446.59373350133546 757.1042479594793,456.59373350133546" fill="none" stroke="#27AE60" stroke-width="1.5"/>
        <path d="M757.1042479594793,456.59373350133546 Q760.1042479594793,448.59373350133546 761.1042479594793,456.59373350133546" fill="none" stroke="#2ECC71" stroke-width="1.5"/><path d="M106.45858234000576,392.46280580279165 Q103.45858234000576,382.46280580279165 108.45858234000576,392.46280580279165" fill="none" stroke="#27AE60" stroke-width="1.5"/>
        <path d="M108.45858234000576,392.46280580279165 Q111.45858234000576,384.46280580279165 112.45858234000576,392.46280580279165" fill="none" stroke="#2ECC71" stroke-width="1.5"/><path d="M580.3167137207666,380.44272269058234 Q577.3167137207666,370.44272269058234 582.3167137207666,380.44272269058234" fill="none" stroke="#27AE60" stroke-width="1.5"/>
        <path d="M582.3167137207666,380.44272269058234 Q585.3167137207666,372.44272269058234 586.3167137207666,380.44272269058234" fill="none" stroke="#2ECC71" stroke-width="1.5"/><path d="M633.5483816842632,449.70315583478356 Q630.5483816842632,439.70315583478356 635.5483816842632,449.70315583478356" fill="none" stroke="#27AE60" stroke-width="1.5"/>
        <path d="M635.5483816842632,449.70315583478356 Q638.5483816842632,441.70315583478356 639.5483816842632,449.70315583478356" fill="none" stroke="#2ECC71" stroke-width="1.5"/><path d="M328.52498430213933,453.6907514111998 Q325.52498430213933,443.6907514111998 330.52498430213933,453.6907514111998" fill="none" stroke="#27AE60" stroke-width="1.5"/>
        <path d="M330.52498430213933,453.6907514111998 Q333.52498430213933,445.6907514111998 334.52498430213933,453.6907514111998" fill="none" stroke="#2ECC71" stroke-width="1.5"/><path d="M693.2372432847048,453.971654894551 Q690.2372432847048,443.971654894551 695.2372432847048,453.971654894551" fill="none" stroke="#27AE60" stroke-width="1.5"/>
        <path d="M695.2372432847048,453.971654894551 Q698.2372432847048,445.971654894551 699.2372432847048,453.971654894551" fill="none" stroke="#2ECC71" stroke-width="1.5"/><path d="M587.3407925338967,454.3081942412862 Q584.3407925338967,444.3081942412862 589.3407925338967,454.3081942412862" fill="none" stroke="#27AE60" stroke-width="1.5"/>
        <path d="M589.3407925338967,454.3081942412862 Q592.3407925338967,446.3081942412862 593.3407925338967,454.3081942412862" fill="none" stroke="#2ECC71" stroke-width="1.5"/><path d="M788.8724054899982,415.3317249162388 Q785.8724054899982,405.3317249162388 790.8724054899982,415.3317249162388" fill="none" stroke="#27AE60" stroke-width="1.5"/>
        <path d="M790.8724054899982,415.3317249162388 Q793.8724054899982,407.3317249162388 794.8724054899982,415.3317249162388" fill="none" stroke="#2ECC71" stroke-width="1.5"/><path d="M383.9193385280549,368.31584791689824 Q380.9193385280549,358.31584791689824 385.9193385280549,368.31584791689824" fill="none" stroke="#27AE60" stroke-width="1.5"/>
        <path d="M385.9193385280549,368.31584791689824 Q388.9193385280549,360.31584791689824 389.9193385280549,368.31584791689824" fill="none" stroke="#2ECC71" stroke-width="1.5"/><path d="M538.8920560032466,410.23956567284426 Q535.8920560032466,400.23956567284426 540.8920560032466,410.23956567284426" fill="none" stroke="#27AE60" stroke-width="1.5"/>
        <path d="M540.8920560032466,410.23956567284426 Q543.8920560032466,402.23956567284426 544.8920560032466,410.23956567284426" fill="none" stroke="#2ECC71" stroke-width="1.5"/><path d="M53.38213368386189,387.80426548080567 Q50.38213368386189,377.80426548080567 55.38213368386189,387.80426548080567" fill="none" stroke="#27AE60" stroke-width="1.5"/>
        <path d="M55.38213368386189,387.80426548080567 Q58.38213368386189,379.80426548080567 59.38213368386189,387.80426548080567" fill="none" stroke="#2ECC71" stroke-width="1.5"/><path d="M694.270470765092,443.353737573923 Q691.270470765092,433.353737573923 696.270470765092,443.353737573923" fill="none" stroke="#27AE60" stroke-width="1.5"/>
        <path d="M696.270470765092,443.353737573923 Q699.270470765092,435.353737573923 700.270470765092,443.353737573923" fill="none" stroke="#2ECC71" stroke-width="1.5"/><path d="M664.3189310519326,386.85724819141296 Q661.3189310519326,376.85724819141296 666.3189310519326,386.85724819141296" fill="none" stroke="#27AE60" stroke-width="1.5"/>
        <path d="M666.3189310519326,386.85724819141296 Q669.3189310519326,378.85724819141296 670.3189310519326,386.85724819141296" fill="none" stroke="#2ECC71" stroke-width="1.5"/><path d="M24.029979070349583,453.57815594392156 Q21.029979070349583,443.57815594392156 26.029979070349583,453.57815594392156" fill="none" stroke="#27AE60" stroke-width="1.5"/>
        <path d="M26.029979070349583,453.57815594392156 Q29.029979070349583,445.57815594392156 30.029979070349583,453.57815594392156" fill="none" stroke="#2ECC71" stroke-width="1.5"/><path d="M117.64438659148357,400.7438353823697 Q114.64438659148357,390.7438353823697 119.64438659148357,400.7438353823697" fill="none" stroke="#27AE60" stroke-width="1.5"/>
        <path d="M119.64438659148357,400.7438353823697 Q122.64438659148357,392.7438353823697 123.64438659148357,400.7438353823697" fill="none" stroke="#2ECC71" stroke-width="1.5"/>
</svg>