<svg xmlns="http://www.w3.org/2000/svg" viewBox="0 0 800 500" width="800" height="500">
  <defs>
    <style>
      text { font-family: 'Arial', 'Helvetica', sans-serif; }
    </style>
  </defs>
  <rect width="800" height="500" fill="#87CEEB"/>
  <g transform="translate(100,50) scale(0.7)">
    <ellipse cx="0" cy="0" rx="40" ry="25" fill="#fff" opacity="0.9"/>
    <ellipse cx="-30" cy="5" rx="25" ry="18" fill="#fff" opacity="0.9"/>
    <ellipse cx="30" cy="5" rx="28" ry="20" fill="#fff" opacity="0.9"/>
    <ellipse cx="15" cy="-10" rx="20" ry="15" fill="#fff" opacity="0.9"/>
  </g><g transform="translate(500,40) scale(1)">
    <ellipse cx="0" cy="0" rx="40" ry="25" fill="#fff" opacity="0.9"/>
    <ellipse cx="-30" cy="5" rx="25" ry="18" fill="#fff" opacity="0.9"/>
    <ellipse cx="30" cy="5" rx="28" ry="20" fill="#fff" opacity="0.9"/>
    <ellipse cx="15" cy="-10" rx="20" ry="15" fill="#fff" opacity="0.9"/>
  </g><circle cx="700" cy="70" r="30" fill="#FFD93D"/>
    <g stroke="#FFD93D" stroke-width="3" fill="none">
      <line x1="738" y1="70" x2="750" y2="70"/><line x1="726.8700576850888" y1="96.8700576850888" x2="735.3553390593274" y2="105.35533905932738"/><line x1="700" y1="108" x2="700" y2="120"/><line x1="673.1299423149112" y1="96.87005768508881" x2="664.6446609406727" y2="105.35533905932738"/><line x1="662" y1="70" x2="650" y2="70"/><line x1="673.1299423149112" y1="43.1299423149112" x2="664.6446609406726" y2="34.64466094067263"/><line x1="700" y1="32" x2="700" y2="20"/><line x1="726.8700576850888" y1="43.12994231491119" x2="735.3553390593273" y2="34.644660940672615"/>
    </g><polygon points="150,200 0,350 300,350" fill="#6C9A8B"/>
    <polygon points="150,200 105,245 195,245" fill="#fff" opacity="0.6"/><polygon points="600,170 425,350 775,350" fill="#5D8A7B"/>
    <polygon points="600,170 547.5,224 652.5,224" fill="#fff" opacity="0.6"/><rect x="0" y="300" width="800" height="200" fill="#74B9FF"/>
    <path d="M0,315 Q50,308 100,315 Q150,322 200,315" fill="none" stroke="#fff" stroke-width="1.5" opacity="0.5"/><path d="M200,315 Q250,308 300,315 Q350,322 400,315" fill="none" stroke="#fff" stroke-width="1.5" opacity="0.5"/><path d="M400,315 Q450,308 500,315 Q550,322 600,315" fill="none" stroke="#fff" stroke-width="1.5" opacity="0.5"/><path d="M600,315 Q650,308 700,315 Q750,322 800,315" fill="none" stroke="#fff" stroke-width="1.5" opacity="0.5"/><path d="M800,315 Q850,308 900,315 Q950,322 1000,315" fill="none" stroke="#fff" stroke-width="1.5" opacity="0.5"/><polygon points="600,250 640,300 560,300" fill="#E74C3C"/>
      <polygon points="600,250 620,300 580,300" fill="#C0392B"/>
      <rect x="595" y="280" width="10" height="20" fill="#2C3E50"/><ellipse cx="555" cy="295" rx="6" ry="4" fill="#FFEAA7"/>
      <ellipse cx="545" cy="293" rx="6" ry="4" fill="#FFEAA7"/><text x="615" y="240" font-size="14" fill="#333" opacity="0.6" font-weight="bold">Z</text>
      <text x="625" y="225" font-size="18" fill="#333" opacity="0.5" font-weight="bold">Z</text>
      <text x="638" y="208" font-size="22" fill="#333" opacity="0.4" font-weight="bold">Z</text><g transform="translate(350, 250)">
      <ellipse cx="0" cy="0" rx="25" ry="15" fill="#F9CA24" transform="rotate(-20)"/>
      <polygon points="20,-5 35,-15 35,5" fill="#F39C12"/>
      <circle cx="-8" cy="-5" r="4" fill="#fff"/>
      <circle cx="-8" cy="-5" r="2" fill="#333"/>
      <path d="M-12,3 Q-5,10 2,3" fill="none" stroke="#333" stroke-width="1.5"/>
      <path d="M5,-10 Q15,-20 10,-5" fill="#F39C12"/>
    </g><g>
    <rect x="324" y="228" width="12" height="20" rx="2" fill="#333"/>
    <rect x="325" y="230" width="10" height="16" rx="1" fill="#74B9FF"/>
    <circle cx="330" cy="229" r="1.5" fill="#555"/>
  </g><g>
      <path d="M330,270 Q325,260 320,272" fill="none" stroke="#fff" stroke-width="2"/>
      <path d="M370,268 Q375,255 380,270" fill="none" stroke="#fff" stroke-width="2"/>
      <path d="M345,275 Q340,262 338,278" fill="none" stroke="#fff" stroke-width="1.5"/>
      <circle cx="325" cy="265" r="3" fill="#fff" opacity="0.6"/>
      <circle cx="378" cy="263" r="2" fill="#fff" opacity="0.5"/>
    </g><g>
    <rect x="300" y="185" width="100" height="25" rx="10" fill="#fff" stroke="#333" stroke-width="1.5"/>
    <polygon points="345,210 355,210 350,220" fill="#fff"/>
    <text x="350" y="200.83333333333334" text-anchor="middle" font-size="10" font-family="Arial, sans-serif" fill="#333">#ReservoirLife</text>
  </g><rect x="45" y="260" width="10" height="40" fill="#8B4513" rx="2"/>
    <ellipse cx="50" cy="250" rx="25" ry="30" fill="#27AE60"/>
    <ellipse cx="35" cy="265" rx="18" ry="22" fill="#27AE60"/>
    <ellipse cx="65" cy="265" rx="18" ry="22" fill="#27AE60"/><rect x="715" y="265" width="10" height="35" fill="#8B4513" rx="2"/>
    <ellipse cx="720" cy="255" rx="25" ry="30" fill="#27AE60"/>
    <ellipse cx="705" cy="270" rx="18" ry="22" fill="#27AE60"/>
    <ellipse cx="735" cy="270" rx="18" ry="22" fill="#27AE60"/>
</svg>