<svg xmlns="http://www.w3.org/2000/svg" viewBox="0 0 800 500" width="800" height="500">
  <defs>
    <style>
      text { font-family: 'Arial', 'Helvetica', sans-serif; }
    </style>
  </defs>
  <rect width="800" height="500" fill="#B8D4E3"/>
  <rect width="800" height="500" fill="#B8D4E3"/><polygon points="250,120 0,400 500,400" fill="#E8E8E8"/>
    <polygon points="250,120 175,204 325,204" fill="#fff" opacity="0.6"/><polygon points="600,150 400,400 800,400" fill="#F0F0F0"/>
    <polygon points="600,150 540,225 660,225" fill="#fff" opacity="0.6"/><path d="M200,200 Q400,350 700,420" fill="none" stroke="#fff" stroke-width="40" opacity="0.5"/><rect x="0" y="400" width="800" height="100" fill="#fff"/><g transform="translate(300, 320)">
      <ellipse cx="0" cy="10" rx="20" ry="25" fill="#2C3E50"/>
      <ellipse cx="0" cy="12" rx="13" ry="18" fill="#fff"/>
      <circle cx="0" cy="-12" r="16" fill="#2C3E50"/>
      <circle cx="-5" cy="-14" r="3" fill="#fff"/>
      <circle cx="-5" cy="-14" r="1.5" fill="#333"/>
      <circle cx="5" cy="-14" r="3" fill="#fff"/>
      <circle cx="5" cy="-14" r="1.5" fill="#333"/>
      <polygon points="-3,-8 3,-8 0,-3" fill="#F39C12"/>
      <path d="M-20,5 L-35,-5" stroke="#2C3E50" stroke-width="8" stroke-linecap="round"/>
      <circle cx="8" cy="-3" r="3" fill="#F39C12"/>
      <rect x="-15" y="34" width="30" height="3" rx="1" fill="#E74C3C"/>
    </g><g>
    <rect x="260" y="245" width="80" height="25" rx="10" fill="#fff" stroke="#333" stroke-width="1.5"/>
    <polygon points="295,270 305,270 300,280" fill="#fff"/>
    <text x="300" y="260.8333333333333" text-anchor="middle" font-size="10" font-family="Arial, sans-serif" fill="#333">Bend knees!</text>
  </g><g transform="translate(450, 350) rotate(30)">
      <ellipse cx="0" cy="5" rx="8" ry="12" fill="#E74C3C"/>
      <circle cx="0" cy="-8" r="8" fill="#FFEAA7"/>
      <circle cx="-3" cy="-9" r="1.5" fill="#333"/>
      <circle cx="3" cy="-9" r="1.5" fill="#333"/>
      <ellipse cx="0" cy="-4" rx="3" ry="4" fill="#333"/>
      <line x1="-8" y1="0" x2="-18" y2="-10" stroke="#E74C3C" stroke-width="3" stroke-linecap="round"/>
      <line x1="8" y1="0" x2="15" y2="12" stroke="#E74C3C" stroke-width="3" stroke-linecap="round"/>
    </g><g transform="translate(550, 380) rotate(-90)">
      <ellipse cx="0" cy="5" rx="7" ry="10" fill="#3498DB"/>
      <circle cx="0" cy="-6" r="7" fill="#FFEAA7"/>
      <path d="M-4,-5 Q0,-8 4,-5" fill="none" stroke="#333" stroke-width="1"/>
      <path d="M-4,-3 Q0,-8 4,-3" fill="none" stroke="#333" stroke-width="1"/>
      <line x1="-7" y1="2" x2="-14" y2="-5" stroke="#3498DB" stroke-width="3" stroke-linecap="round"/>
      <line x1="7" y1="2" x2="14" y2="-5" stroke="#3498DB" stroke-width="3" stroke-linecap="round"/>
    </g><line x1="470" y1="340" x2="500" y2="380" stroke="#888" stroke-width="2"/>
      <line x1="520" y1="360" x2="540" y2="400" stroke="#888" stroke-width="2"/><line x1="690.001681540659" y1="22.135063484948603" x2="697.1226372508194" y2="22.135063484948603" stroke="#fff" stroke-width="1" opacity="0.7"/><line x1="691.781920468199" y1="19.05159921283721" x2="695.3423983232793" y2="25.218527757059995" stroke="#fff" stroke-width="1" opacity="0.7"/><line x1="695.3423983232793" y1="19.05159921283721" x2="691.781920468199" y2="25.218527757059995" stroke="#fff" stroke-width="1" opacity="0.7"/><line x1="273.23174081881433" y1="37.10011446095854" x2="278.6042396593105" y2="37.10011446095854" stroke="#fff" stroke-width="1" opacity="0.7"/><line x1="274.5748655289384" y1="34.773754222122484" x2="277.26111494918644" y2="39.42647469979459" stroke="#fff" stroke-width="1" opacity="0.7"/><line x1="277.26111494918644" y1="34.773754222122484" x2="274.5748655289384" y2="39.42647469979459" stroke="#fff" stroke-width="1" opacity="0.7"/><line x1="765.1478925967112" y1="27.078288400760187" x2="773.9052338704992" y2="27.078288400760187" stroke="#fff" stroke-width="1" opacity="0.7"/><line x1="767.3372279151582" y1="23.28624839440502" x2="771.7158985520522" y2="30.870328407115352" stroke="#fff" stroke-width="1" opacity="0.7"/><line x1="771.7158985520522" y1="23.28624839440502" x2="767.3372279151582" y2="30.870328407115352" stroke="#fff" stroke-width="1" opacity="0.7"/><line x1="320.6100422196633" y1="275.7481152409289" x2="326.99694767242767" y2="275.7481152409289" stroke="#fff" stroke-width="1" opacity="0.7"/><line x1="322.20676858285435" y1="272.9825040540972" x2="325.4002213092366" y2="278.51372642776056" stroke="#fff" stroke-width="1" opacity="0.7"/><line x1="325.4002213092366" y1="272.9825040540972" x2="322.20676858285435" y2="278.51372642776056" stroke="#fff" stroke-width="1" opacity="0.7"/><line x1="752.2094806859823" y1="371.35307668211783" x2="760.1089667942815" y2="371.35307668211783" stroke="#fff" stroke-width="1" opacity="0.7"/><line x1="754.1843522130571" y1="367.9324988588031" x2="758.1340952672067" y2="374.77365450543255" stroke="#fff" stroke-width="1" opacity="0.7"/><line x1="758.1340952672067" y1="367.9324988588031" x2="754.1843522130571" y2="374.77365450543255" stroke="#fff" stroke-width="1" opacity="0.7"/><line x1="478.4420753427409" y1="281.63459453161835" x2="486.90308214836404" y2="281.63459453161835" stroke="#fff" stroke-width="1" opacity="0.7"/><line x1="480.5573270441467" y1="277.970871113987" x2="484.78783044695825" y2="285.2983179492497" stroke="#fff" stroke-width="1" opacity="0.7"/><line x1="484.78783044695825" y1="277.970871113987" x2="480.5573270441467" y2="285.2983179492497" stroke="#fff" stroke-width="1" opacity="0.7"/><line x1="183.72029033563047" y1="273.57664901326143" x2="190.1824490454443" y2="273.57664901326143" stroke="#fff" stroke-width="1" opacity="0.7"/><line x1="185.33583001308392" y1="270.7784522102686" x2="188.56690936799083" y2="276.37484581625426" stroke="#fff" stroke-width="1" opacity="0.7"/><line x1="188.56690936799083" y1="270.7784522102686" x2="185.33583001308392" y2="276.37484581625426" stroke="#fff" stroke-width="1" opacity="0.7"/><line x1="286.8560955674677" y1="206.333574951897" x2="291.94620321911884" y2="206.333574951897" stroke="#fff" stroke-width="1" opacity="0.7"/><line x1="288.1286224803805" y1="204.12949368473326" x2="290.67367630620606" y2="208.53765621906072" stroke="#fff" stroke-width="1" opacity="0.7"/><line x1="290.67367630620606" y1="204.12949368473326" x2="288.1286224803805" y2="208.53765621906072" stroke="#fff" stroke-width="1" opacity="0.7"/><line x1="795.4246105880411" y1="151.00859131862018" x2="800.2457719090849" y2="151.00859131862018" stroke="#fff" stroke-width="1" opacity="0.7"/><line x1="796.629900918302" y1="148.9209672287368" x2="799.0404815788239" y2="153.09621540850355" stroke="#fff" stroke-width="1" opacity="0.7"/><line x1="799.0404815788239" y1="148.9209672287368" x2="796.629900918302" y2="153.09621540850355" stroke="#fff" stroke-width="1" opacity="0.7"/><line x1="473.845454817393" y1="387.42124099936" x2="483.570479472655" y2="387.42124099936" stroke="#fff" stroke-width="1" opacity="0.7"/><line x1="476.2767109812085" y1="383.21018179741657" x2="481.13922330883946" y2="391.63230020130345" stroke="#fff" stroke-width="1" opacity="0.7"/><line x1="481.13922330883946" y1="383.21018179741657" x2="476.2767109812085" y2="391.63230020130345" stroke="#fff" stroke-width="1" opacity="0.7"/><line x1="527.4427386830785" y1="146.65946964551813" x2="532.7247006684054" y2="146.65946964551813" stroke="#fff" stroke-width="1" opacity="0.7"/><line x1="528.7632291794102" y1="144.37231301495976" x2="531.4042101720736" y2="148.9466262760765" stroke="#fff" stroke-width="1" opacity="0.7"/><line x1="531.4042101720736" y1="144.37231301495976" x2="528.7632291794102" y2="148.9466262760765" stroke="#fff" stroke-width="1" opacity="0.7"/><line x1="531.5711798974216" y1="80.62899973858642" x2="537.6634300707781" y2="80.62899973858642" stroke="#fff" stroke-width="1" opacity="0.7"/><line x1="533.0942424407607" y1="77.99097803041798" x2="536.140367527439" y2="83.26702144675485" stroke="#fff" stroke-width="1" opacity="0.7"/><line x1="536.140367527439" y1="77.99097803041798" x2="533.0942424407607" y2="83.26702144675485" stroke="#fff" stroke-width="1" opacity="0.7"/><line x1="9.706266159970621" y1="208.6159632978207" x2="18.30742711928629" y2="208.6159632978207" stroke="#fff" stroke-width="1" opacity="0.7"/><line x1="11.856556399799537" y1="204.89155135141755" x2="16.157136879457376" y2="212.34037524422388" stroke="#fff" stroke-width="1" opacity="0.7"/><line x1="16.157136879457372" y1="204.89155135141755" x2="11.856556399799539" y2="212.34037524422388" stroke="#fff" stroke-width="1" opacity="0.7"/><line x1="338.3209147547539" y1="146.89693290331883" x2="344.1978869918391" y2="146.89693290331883" stroke="#fff" stroke-width="1" opacity="0.7"/><line x1="339.79015781402524" y1="144.35212927599304" x2="342.72864393256776" y2="149.44173653064462" stroke="#fff" stroke-width="1" opacity="0.7"/><line x1="342.72864393256776" y1="144.35212927599304" x2="339.79015781402524" y2="149.44173653064462" stroke="#fff" stroke-width="1" opacity="0.7"/><line x1="790.2331859432937" y1="181.8851399566492" x2="796.1029408123044" y2="181.8851399566492" stroke="#fff" stroke-width="1" opacity="0.7"/><line x1="791.7006246605464" y1="179.34346154137384" x2="794.6355020950517" y2="184.42681837192455" stroke="#fff" stroke-width="1" opacity="0.7"/><line x1="794.6355020950517" y1="179.34346154137384" x2="791.7006246605464" y2="184.42681837192455" stroke="#fff" stroke-width="1" opacity="0.7"/><line x1="264.8013871488947" y1="184.24384282523306" x2="269.0764495923215" y2="184.24384282523306" stroke="#fff" stroke-width="1" opacity="0.7"/><line x1="265.8701527597514" y1="182.39268648584687" x2="268.0076839814648" y2="186.09499916461925" stroke="#fff" stroke-width="1" opacity="0.7"/><line x1="268.0076839814648" y1="182.39268648584687" x2="265.8701527597514" y2="186.09499916461925" stroke="#fff" stroke-width="1" opacity="0.7"/><line x1="221.25676705962962" y1="158.97317714631717" x2="228.58305863474834" y2="158.97317714631717" stroke="#fff" stroke-width="1" opacity="0.7"/><line x1="223.0883399534093" y1="155.80079983652482" x2="226.75148574096866" y2="162.14555445610952" stroke="#fff" stroke-width="1" opacity="0.7"/><line x1="226.75148574096866" y1="155.80079983652482" x2="223.0883399534093" y2="162.14555445610952" stroke="#fff" stroke-width="1" opacity="0.7"/><line x1="294.98007626409026" y1="336.77010643479844" x2="302.7125504181746" y2="336.77010643479844" stroke="#fff" stroke-width="1" opacity="0.7"/><line x1="296.9131948026114" y1="333.42184690902667" x2="300.7794318796535" y2="340.1183659605702" stroke="#fff" stroke-width="1" opacity="0.7"/><line x1="300.7794318796535" y1="333.42184690902667" x2="296.9131948026114" y2="340.1183659605702" stroke="#fff" stroke-width="1" opacity="0.7"/><line x1="562.7604056307835" y1="388.59566796897207" x2="571.1524420428625" y2="388.59566796897207" stroke="#fff" stroke-width="1" opacity="0.7"/><line x1="564.8584147338032" y1="384.9618096077998" x2="569.0544329398427" y2="392.2295263301443" stroke="#fff" stroke-width="1" opacity="0.7"/><line x1="569.0544329398427" y1="384.9618096077998" x2="564.8584147338032" y2="392.2295263301443" stroke="#fff" stroke-width="1" opacity="0.7"/><line x1="637.9449479505777" y1="164.4295272512441" x2="642.2727107855433" y2="164.4295272512441" stroke="#fff" stroke-width="1" opacity="0.7"/><line x1="639.0268886593191" y1="162.55555097292688" x2="641.1907700768019" y2="166.30350352956134" stroke="#fff" stroke-width="1" opacity="0.7"/><line x1="641.1907700768019" y1="162.55555097292688" x2="639.0268886593191" y2="166.30350352956134" stroke="#fff" stroke-width="1" opacity="0.7"/><line x1="205.14207837597638" y1="124.3893148005402" x2="211.5331364052227" y2="124.3893148005402" stroke="#fff" stroke-width="1" opacity="0.7"/><line x1="206.73984288328796" y1="121.6219054953463" x2="209.93537189791112" y2="127.15672410573411" stroke="#fff" stroke-width="1" opacity="0.7"/><line x1="209.93537189791112" y1="121.6219054953463" x2="206.73984288328796" y2="127.15672410573411" stroke="#fff" stroke-width="1" opacity="0.7"/><line x1="710.8257508312065" y1="170.09257943834646" x2="718.2418230333294" y2="170.09257943834646" stroke="#fff" stroke-width="1" opacity="0.7"/><line x1="712.6797688817372" y1="166.88132597667743" x2="716.3878049827987" y2="173.3038329000155" stroke="#fff" stroke-width="1" opacity="0.7"/><line x1="716.3878049827987" y1="166.88132597667743" x2="712.6797688817372" y2="173.3038329000155" stroke="#fff" stroke-width="1" opacity="0.7"/><line x1="518.8200281798614" y1="19.78412760663457" x2="526.3449101927287" y2="19.78412760663457" stroke="#fff" stroke-width="1" opacity="0.7"/><line x1="520.7012486830782" y1="16.5257581148228" x2="524.4636896895119" y2="23.04249709844634" stroke="#fff" stroke-width="1" opacity="0.7"/><line x1="524.4636896895119" y1="16.5257581148228" x2="520.7012486830782" y2="23.04249709844634" stroke="#fff" stroke-width="1" opacity="0.7"/><line x1="28.685633793281195" y1="72.17257949183127" x2="33.39352398881441" y2="72.17257949183127" stroke="#fff" stroke-width="1" opacity="0.7"/><line x1="29.862606342164497" y1="70.13400323805155" x2="32.21655143993111" y2="74.211155745611" stroke="#fff" stroke-width="1" opacity="0.7"/><line x1="32.21655143993111" y1="70.13400323805155" x2="29.8626063421645" y2="74.211155745611" stroke="#fff" stroke-width="1" opacity="0.7"/><line x1="600.2135142700649" y1="53.703164466080324" x2="604.4096967000582" y2="53.703164466080324" stroke="#fff" stroke-width="1" opacity="0.7"/><line x1="601.2625598775633" y1="51.886164174436246" x2="603.3606510925599" y2="55.5201647577244" stroke="#fff" stroke-width="1" opacity="0.7"/><line x1="603.3606510925599" y1="51.886164174436246" x2="601.2625598775633" y2="55.5201647577244" stroke="#fff" stroke-width="1" opacity="0.7"/>
</svg>