<svg xmlns="http://www.w3.org/2000/svg" viewBox="0 0 800 500" width="800" height="500">
  <defs>
    <style>
      text { font-family: 'Arial', 'Helvetica', sans-serif; }
    </style>
  </defs>
  <rect width="800" height="500" fill="#87CEEB"/>
  <g transform="translate(100,40) scale(1)">
    <ellipse cx="0" cy="0" rx="40" ry="25" fill="#fff" opacity="0.9"/>
    <ellipse cx="-30" cy="5" rx="25" ry="18" fill="#fff" opacity="0.9"/>
    <ellipse cx="30" cy="5" rx="28" ry="20" fill="#fff" opacity="0.9"/>
    <ellipse cx="15" cy="-10" rx="20" ry="15" fill="#fff" opacity="0.9"/>
  </g><g transform="translate(550,55) scale(0.7)">
    <ellipse cx="0" cy="0" rx="40" ry="25" fill="#fff" opacity="0.9"/>
    <ellipse cx="-30" cy="5" rx="25" ry="18" fill="#fff" opacity="0.9"/>
    <ellipse cx="30" cy="5" rx="28" ry="20" fill="#fff" opacity="0.9"/>
    <ellipse cx="15" cy="-10" rx="20" ry="15" fill="#fff" opacity="0.9"/>
  </g><circle cx="680" cy="60" r="30" fill="#FFD93D"/>
    <g stroke="#FFD93D" stroke-width="3" fill="none">
      <line x1="718" y1="60" x2="730" y2="60"/><line x1="706.8700576850888" y1="86.8700576850888" x2="715.3553390593274" y2="95.35533905932738"/><line x1="680" y1="98" x2="680" y2="110"/><line x1="653.1299423149112" y1="86.87005768508881" x2="644.6446609406727" y2="95.35533905932738"/><line x1="642" y1="60.00000000000001" x2="630" y2="60.00000000000001"/><line x1="653.1299423149112" y1="33.1299423149112" x2="644.6446609406726" y2="24.64466094067263"/><line x1="680" y1="22" x2="680" y2="10"/><line x1="706.8700576850888" y1="33.12994231491119" x2="715.3553390593273" y2="24.644660940672615"/>
    </g><polygon points="400,120 100,420 700,420" fill="#6C9A8B"/>
    <polygon points="400,120 310,210 490,210" fill="#fff" opacity="0.6"/><polygon points="200,220 50,420 350,420" fill="#5D8A7B"/>
    <polygon points="200,220 155,280 245,280" fill="#fff" opacity="0.6"/><rect x="0" y="420" width="800" height="80" fill="#5DADE2"/>
    <path d="M0,435 Q50,428 100,435 Q150,442 200,435" fill="none" stroke="#fff" stroke-width="1.5" opacity="0.5"/><path d="M200,435 Q250,428 300,435 Q350,442 400,435" fill="none" stroke="#fff" stroke-width="1.5" opacity="0.5"/><path d="M400,435 Q450,428 500,435 Q550,442 600,435" fill="none" stroke="#fff" stroke-width="1.5" opacity="0.5"/><path d="M600,435 Q650,428 700,435 Q750,442 800,435" fill="none" stroke="#fff" stroke-width="1.5" opacity="0.5"/><path d="M800,435 Q850,428 900,435 Q950,442 1000,435" fill="none" stroke="#fff" stroke-width="1.5" opacity="0.5"/><rect x="370" y="120" width="60" height="5" fill="#8B7355"/><g transform="scale(0.8)">
    <!-- body -->
    <ellipse cx="400" cy="105" rx="14" ry="20" fill="#E74C3C"/>
    <!-- legs -->
    <line x1="393" y1="122" x2="391" y2="138" stroke="#E74C3C" stroke-width="5" stroke-linecap="round"/>
    <line x1="407" y1="122" x2="409" y2="138" stroke="#E74C3C" stroke-width="5" stroke-linecap="round"/>
    <!-- arms -->
    <line x1="388" y1="95" x2="375" y2="75" stroke="#E74C3C" stroke-width="5" stroke-linecap="round"/><line x1="412" y1="95" x2="425" y2="75" stroke="#E74C3C" stroke-width="5" stroke-linecap="round"/>
    <!-- head -->
    <circle cx="400" cy="70" r="16" fill="#FFEAA7"/>
    <!-- hair -->
    <ellipse cx="400" cy="58" rx="16" ry="8" fill="#333"/>
    <circle cx="394" cy="65" r="2.5" fill="#333"/><circle cx="406" cy="65" r="2.5" fill="#333"/>
    <path d="M395,73 Q400,79 405,73" fill="none" stroke="#333" stroke-width="1.5"/>
    <!-- blush -->
    <circle cx="390" cy="71" r="3" fill="#FF9999" opacity="0.4"/>
    <circle cx="410" cy="71" r="3" fill="#FF9999" opacity="0.4"/>
  </g><line x1="430" y1="50" x2="430" y2="100" stroke="#5D4037" stroke-width="2"/>
      <polygon points="430,50 460,58 430,66" fill="#E74C3C"/><g transform="translate(0,0) scale(1.2)">
    <!-- cat body -->
    <ellipse cx="360" cy="115" rx="12" ry="15" fill="#FF9F43"/>
    <!-- tail -->
    <path d="M370,120 Q390,105 385,125" fill="none" stroke="#FF9F43" stroke-width="4" stroke-linecap="round"/>
    <!-- head -->
    <circle cx="360" cy="95" r="14" fill="#FF9F43"/>
    <!-- ears -->
    <polygon points="348,85 354,73 358,87" fill="#FF9F43"/>
    <polygon points="372,85 366,73 362,87" fill="#FF9F43"/>
    <polygon points="350,84 354,76 357,86" fill="#FFB8B8"/>
    <polygon points="370,84 366,76 363,86" fill="#FFB8B8"/>
    <path d="M353,93 Q356,95 359,93" fill="none" stroke="#333" stroke-width="1.5"/>
      <path d="M361,93 Q364,95 367,93" fill="none" stroke="#333" stroke-width="1.5"/>
    <path d="M358,98 Q360,100 362,98" fill="none" stroke="#333" stroke-width="1"/>
    <!-- whiskers -->
    <line x1="346" y1="95" x2="336" y2="92" stroke="#333" stroke-width="0.8"/>
    <line x1="346" y1="97" x2="336" y2="99" stroke="#333" stroke-width="0.8"/>
    <line x1="374" y1="95" x2="384" y2="92" stroke="#333" stroke-width="0.8"/>
    <line x1="374" y1="97" x2="384" y2="99" stroke="#333" stroke-width="0.8"/>
  </g><text x="340" y="80" font-size="10" fill="#333" opacity="0.5" font-weight="bold">z</text>
      <text x="330" y="68" font-size="14" fill="#333" opacity="0.4" font-weight="bold">Z</text>
      <text x="318" y="53" font-size="18" fill="#333" opacity="0.3" font-weight="bold">Z</text><g>
    <rect x="350" y="0" width="100" height="25" rx="10" fill="#fff" stroke="#333" stroke-width="1.5"/>
    <polygon points="395,25 405,25 400,35" fill="#fff"/>
    <text x="400" y="15.5" text-anchor="middle" font-size="9" font-family="Arial, sans-serif" fill="#333">I'm FIRST!...wait</text>
  </g><rect x="245" y="320" width="10" height="30" fill="#8B4513" rx="2"/>
    <ellipse cx="250" cy="310" rx="25" ry="30" fill="#27AE60"/>
    <ellipse cx="235" cy="325" rx="18" ry="22" fill="#27AE60"/>
    <ellipse cx="265" cy="325" rx="18" ry="22" fill="#27AE60"/><rect x="545" y="345" width="10" height="25" fill="#8B4513" rx="2"/>
    <ellipse cx="550" cy="335" rx="25" ry="30" fill="#2ECC71"/>
    <ellipse cx="535" cy="350" rx="18" ry="22" fill="#2ECC71"/>
    <ellipse cx="565" cy="350" rx="18" ry="22" fill="#2ECC71"/>
</svg>