<svg xmlns="http://www.w3.org/2000/svg" viewBox="0 0 800 500" width="800" height="500">
  <defs>
    <style>
      text { font-family: 'Arial', 'Helvetica', sans-serif; }
    </style>
  </defs>
  <rect width="800" height="500" fill="#D2B48C"/>
  <rect width="800" height="500" fill="#D2B48C"/><ellipse cx="400" cy="250" rx="350" ry="250" fill="#8B7355"/><ellipse cx="400" cy="260" rx="320" ry="230" fill="#A0522D"/><rect x="100" y="350" width="600" height="150" fill="#8B6914" opacity="0.5"/><g transform="translate(300, 280)">
      <ellipse cx="0" cy="20" rx="16" ry="22" fill="#D2691E"/>
      <path d="M-16,20 L-14,25 L-10,20 L-6,26 L-2,20 L2,26 L6,20 L10,26 L14,20 L16,20" fill="#D2691E"/>
      <circle cx="0" cy="-5" r="16" fill="#FDDCB1"/>
      <path d="M-16,-10 Q-10,-25 0,-20 Q10,-25 16,-10" fill="#5D4037"/>
      <path d="M-12,-15 Q-5,-28 5,-15" fill="#5D4037"/>
      <circle cx="-5" cy="-7" r="3" fill="#fff" stroke="#333" stroke-width="1"/>
      <circle cx="-5" cy="-7" r="1.5" fill="#333"/>
      <circle cx="5" cy="-7" r="3" fill="#fff" stroke="#333" stroke-width="1"/>
      <circle cx="5" cy="-7" r="1.5" fill="#333"/>
      <path d="M-4,3 Q0,0 4,3" fill="none" stroke="#333" stroke-width="1.5"/>
      <rect x="18" y="-10" width="12" height="20" rx="2" fill="#333"/>
      <rect x="19" y="-8" width="10" height="16" rx="1" fill="#74B9FF"/>
      <line x1="12" y1="10" x2="22" y2="0" stroke="#FDDCB1" stroke-width="5" stroke-linecap="round"/>
      <ellipse cx="-22" cy="10" rx="8" ry="6" fill="#888"/>
      <line x1="-12" y1="10" x2="-18" y2="10" stroke="#FDDCB1" stroke-width="5" stroke-linecap="round"/>
    </g><text x="300" y="240" text-anchor="middle" font-size="30" fill="#333" font-weight="bold">???</text><g transform="scale(0.7)">
    <!-- body -->
    <ellipse cx="500" cy="315" rx="14" ry="20" fill="#3498DB"/>
    <!-- legs -->
    <line x1="493" y1="332" x2="491" y2="348" stroke="#3498DB" stroke-width="5" stroke-linecap="round"/>
    <line x1="507" y1="332" x2="509" y2="348" stroke="#3498DB" stroke-width="5" stroke-linecap="round"/>
    <!-- arms -->
    <line x1="488" y1="305" x2="482" y2="320" stroke="#3498DB" stroke-width="5" stroke-linecap="round"/><line x1="512" y1="305" x2="518" y2="320" stroke="#3498DB" stroke-width="5" stroke-linecap="round"/>
    <!-- head -->
    <circle cx="500" cy="280" r="16" fill="#FFEAA7"/>
    <!-- hair -->
    <ellipse cx="500" cy="268" rx="16" ry="8" fill="#333"/>
    <circle cx="494" cy="275" r="4" fill="#fff" stroke="#333" stroke-width="1.5"/>
      <circle cx="494" cy="275" r="2" fill="#333"/>
      <circle cx="506" cy="275" r="4" fill="#fff" stroke="#333" stroke-width="1.5"/>
      <circle cx="506" cy="275" r="2" fill="#333"/>
    <ellipse cx="500" cy="285" rx="5" ry="7" fill="#333" opacity="0.7"/>
    <!-- blush -->
    <circle cx="490" cy="281" r="3" fill="#FF9999" opacity="0.4"/>
    <circle cx="510" cy="281" r="3" fill="#FF9999" opacity="0.4"/>
  </g><g>
    <rect x="460" y="218" width="80" height="22" rx="10" fill="#fff" stroke="#333" stroke-width="1.5"/>
    <polygon points="495,240 505,240 500,250" fill="#fff"/>
    <text x="500" y="232.33333333333334" text-anchor="middle" font-size="10" font-family="Arial, sans-serif" fill="#333">My iPhone!</text>
  </g><g opacity="0.4">
      <circle cx="150" cy="200" r="8" fill="none" stroke="#5D4037" stroke-width="2"/>
      <line x1="150" y1="208" x2="150" y2="230" stroke="#5D4037" stroke-width="2"/>
      <line x1="140" y1="215" x2="160" y2="215" stroke="#5D4037" stroke-width="2"/>
      <line x1="150" y1="230" x2="140" y2="245" stroke="#5D4037" stroke-width="2"/>
      <line x1="150" y1="230" x2="160" y2="245" stroke="#5D4037" stroke-width="2"/>
    </g>
</svg>