<svg xmlns="http://www.w3.org/2000/svg" viewBox="0 0 800 500" width="800" height="500">
  <defs>
    <style>
      text { font-family: 'Arial', 'Helvetica', sans-serif; }
    </style>
  </defs>
  <rect width="800" height="500" fill="#87CEEB"/>
  <g transform="translate(100,40) scale(1)">
    <ellipse cx="0" cy="0" rx="40" ry="25" fill="#fff" opacity="0.9"/>
    <ellipse cx="-30" cy="5" rx="25" ry="18" fill="#fff" opacity="0.9"/>
    <ellipse cx="30" cy="5" rx="28" ry="20" fill="#fff" opacity="0.9"/>
    <ellipse cx="15" cy="-10" rx="20" ry="15" fill="#fff" opacity="0.9"/>
  </g><circle cx="680" cy="55" r="30" fill="#FFD93D"/>
    <g stroke="#FFD93D" stroke-width="3" fill="none">
      <line x1="718" y1="55" x2="730" y2="55"/><line x1="706.8700576850888" y1="81.8700576850888" x2="715.3553390593274" y2="90.35533905932738"/><line x1="680" y1="93" x2="680" y2="105"/><line x1="653.1299423149112" y1="81.87005768508881" x2="644.6446609406727" y2="90.35533905932738"/><line x1="642" y1="55.00000000000001" x2="630" y2="55.00000000000001"/><line x1="653.1299423149112" y1="28.129942314911197" x2="644.6446609406726" y2="19.64466094067263"/><line x1="680" y1="17" x2="680" y2="5"/><line x1="706.8700576850888" y1="28.129942314911187" x2="715.3553390593273" y2="19.644660940672615"/>
    </g><rect x="0" y="350" width="800" height="150" fill="#7BC67E" opacity="0.5"/><g transform="translate(400, 150)">
      <path d="M-100,-20 L0,-60 L100,-20" fill="#C0392B"/>
      <rect x="-80" y="-20" width="160" height="80" fill="#F5E6CC"/>
      <rect x="-15" y="20" width="30" height="40" rx="12" fill="#8B4513"/>
      <circle cx="-50" cy="10" r="8" fill="#F9CA24" opacity="0.5"/>
      <circle cx="50" cy="10" r="8" fill="#F9CA24" opacity="0.5"/>
    </g><g transform="translate(300, 260)">
      <path d="M-20,15 L-30,60 L30,60 L20,15" fill="#F9CA24"/>
      <path d="M-15,15 L-25,60 L25,60 L15,15" fill="#C0392B"/>
      <path d="M-5,30 Q0,25 5,30 Q10,35 5,40 Q0,35 -5,40 Q-10,35 -5,30" fill="#F9CA24" opacity="0.5"/>
      <circle cx="0" cy="0" r="12" fill="#FFEAA7"/>
      <circle cx="-4" cy="-2" r="2" fill="#333"/>
      <circle cx="4" cy="-2" r="2" fill="#333"/>
      <path d="M-3,4 Q0,7 3,4" fill="none" stroke="#333" stroke-width="1.2"/>
      <rect x="-15" y="-18" width="30" height="12" rx="2" fill="#2C3E50"/>
      <rect x="-20" y="-8" width="40" height="4" fill="#F9CA24"/>
      <line x1="-18" y1="-8" x2="-18" y2="0" stroke="#F9CA24" stroke-width="1"/>
      <circle cx="-18" cy="2" r="2" fill="#E74C3C"/>
      <line x1="18" y1="-8" x2="18" y2="0" stroke="#F9CA24" stroke-width="1"/>
      <circle cx="18" cy="2" r="2" fill="#E74C3C"/>
      <line x1="-15" y1="20" x2="-35" y2="5" stroke="#C0392B" stroke-width="4" stroke-linecap="round"/>
      <line x1="15" y1="20" x2="35" y2="35" stroke="#C0392B" stroke-width="4" stroke-linecap="round"/>
    </g><g transform="scale(0.7)">
    <!-- body -->
    <ellipse cx="500" cy="325" rx="14" ry="20" fill="#3498DB"/>
    <!-- legs -->
    <line x1="493" y1="342" x2="491" y2="358" stroke="#3498DB" stroke-width="5" stroke-linecap="round"/>
    <line x1="507" y1="342" x2="509" y2="358" stroke="#3498DB" stroke-width="5" stroke-linecap="round"/>
    <!-- arms -->
    <line x1="488" y1="315" x2="482" y2="330" stroke="#3498DB" stroke-width="5" stroke-linecap="round"/><line x1="512" y1="315" x2="518" y2="330" stroke="#3498DB" stroke-width="5" stroke-linecap="round"/>
    <!-- head -->
    <circle cx="500" cy="290" r="16" fill="#FFEAA7"/>
    <!-- hair -->
    <ellipse cx="500" cy="278" rx="16" ry="8" fill="#333"/>
    <circle cx="494" cy="285" r="2.5" fill="#333"/><circle cx="506" cy="286" r="2.5" fill="#333"/>
    <path d="M496,294 Q500,292 504,295" fill="none" stroke="#333" stroke-width="1.5"/>
    <!-- blush -->
    <circle cx="490" cy="291" r="3" fill="#FF9999" opacity="0.4"/>
    <circle cx="510" cy="291" r="3" fill="#FF9999" opacity="0.4"/>
  </g><g transform="translate(480, 280) rotate(-45)">
      <rect x="0" y="0" width="10" height="18" rx="2" fill="#333"/>
      <rect x="1" y="2" width="8" height="13" rx="1" fill="#74B9FF"/>
    </g><g transform="translate(620, 260)">
      <rect x="0" y="0" width="80" height="60" rx="5" fill="#333"/>
      <rect x="3" y="3" width="74" height="54" rx="3" fill="#74B9FF"/>
      <rect x="3" y="3" width="74" height="40" fill="#87CEEB"/>
      <rect x="3" y="43" width="74" height="14" fill="#7BC67E"/>
      <circle cx="70" cy="50" r="3" fill="#F9CA24"/>
      <text x="40" y="35" text-anchor="middle" font-size="7" fill="#333">actual photo</text>
    </g><g>
    <rect x="252.5" y="198" width="95" height="22" rx="10" fill="#fff" stroke="#333" stroke-width="1.5"/>
    <polygon points="295,220 305,220 300,230" fill="#fff"/>
    <text x="300" y="212.33333333333334" text-anchor="middle" font-size="10" font-family="Arial, sans-serif" fill="#333">I am EMPEROR!</text>
  </g><g>
    <rect x="460" y="228" width="80" height="22" rx="10" fill="#fff" stroke="#333" stroke-width="1.5"/>
    <polygon points="495,250 505,250 500,260" fill="#fff"/>
    <text x="500" y="242" text-anchor="middle" font-size="9" font-family="Arial, sans-serif" fill="#333">Hold still...</text>
  </g>
</svg>