<svg xmlns="http://www.w3.org/2000/svg" viewBox="0 0 800 500" width="800" height="500">
  <defs>
    <style>
      text { font-family: 'Arial', 'Helvetica', sans-serif; }
    </style>
  </defs>
  <rect width="800" height="500" fill="#87CEEB"/>
  <g transform="translate(200,50) scale(1)">
    <ellipse cx="0" cy="0" rx="40" ry="25" fill="#fff" opacity="0.9"/>
    <ellipse cx="-30" cy="5" rx="25" ry="18" fill="#fff" opacity="0.9"/>
    <ellipse cx="30" cy="5" rx="28" ry="20" fill="#fff" opacity="0.9"/>
    <ellipse cx="15" cy="-10" rx="20" ry="15" fill="#fff" opacity="0.9"/>
  </g><circle cx="680" cy="60" r="30" fill="#FFD93D"/>
    <g stroke="#FFD93D" stroke-width="3" fill="none">
      <line x1="718" y1="60" x2="730" y2="60"/><line x1="706.8700576850888" y1="86.8700576850888" x2="715.3553390593274" y2="95.35533905932738"/><line x1="680" y1="98" x2="680" y2="110"/><line x1="653.1299423149112" y1="86.87005768508881" x2="644.6446609406727" y2="95.35533905932738"/><line x1="642" y1="60.00000000000001" x2="630" y2="60.00000000000001"/><line x1="653.1299423149112" y1="33.1299423149112" x2="644.6446609406726" y2="24.64466094067263"/><line x1="680" y1="22" x2="680" y2="10"/><line x1="706.8700576850888" y1="33.12994231491119" x2="715.3553390593273" y2="24.644660940672615"/>
    </g><polygon points="150,230 0,350 300,350" fill="#6C9A8B"/>
    <polygon points="150,230 105,266 195,266" fill="#fff" opacity="0.6"/><polygon points="650,250 525,350 775,350" fill="#5D8A7B"/>
    <polygon points="650,250 612.5,280 687.5,280" fill="#fff" opacity="0.6"/><rect x="0" y="320" width="800" height="180" fill="#5DADE2"/>
    <path d="M0,335 Q50,328 100,335 Q150,342 200,335" fill="none" stroke="#fff" stroke-width="1.5" opacity="0.5"/><path d="M200,335 Q250,328 300,335 Q350,342 400,335" fill="none" stroke="#fff" stroke-width="1.5" opacity="0.5"/><path d="M400,335 Q450,328 500,335 Q550,342 600,335" fill="none" stroke="#fff" stroke-width="1.5" opacity="0.5"/><path d="M600,335 Q650,328 700,335 Q750,342 800,335" fill="none" stroke="#fff" stroke-width="1.5" opacity="0.5"/><path d="M800,335 Q850,328 900,335 Q950,342 1000,335" fill="none" stroke="#fff" stroke-width="1.5" opacity="0.5"/><g transform="translate(350, 280)">
      <path d="M-40,20 Q-45,40 -30,40 L30,40 Q45,40 40,20 Z" fill="#8B4513"/>
      <line x1="0" y1="-40" x2="0" y2="20" stroke="#5D4037" stroke-width="3"/>
      <polygon points="2,-35 2,15 35,10" fill="#fff" stroke="#ddd" stroke-width="1"/>
    </g><g transform="scale(1)">
    <ellipse cx="350" cy="278" rx="14" ry="10" fill="#F9CA24"/>
    <circle cx="348" cy="268" r="10" fill="#F9CA24"/>
    <circle cx="346" cy="265" r="2" fill="#333"/>
    <ellipse cx="338" cy="270" rx="6" ry="3" fill="#FF9F43"/>
    <ellipse cx="350" cy="256" rx="14" ry="4" fill="#2C3E50"/>
      <rect x="342" y="244" width="16" height="14" rx="2" fill="#2C3E50"/>
      <rect x="340" y="254" width="20" height="3" fill="#F1C40F"/>
  </g><circle cx="370" cy="300" r="8" fill="none" stroke="#5D4037" stroke-width="2"/>
      <line x1="370" y1="292" x2="370" y2="308" stroke="#5D4037" stroke-width="1.5"/>
      <line x1="362" y1="300" x2="378" y2="300" stroke="#5D4037" stroke-width="1.5"/><g transform="scale(1)">
    <!-- body -->
    <ellipse cx="600" cy="325" rx="14" ry="20" fill="#3498DB"/>
    <!-- legs -->
    <line x1="593" y1="342" x2="591" y2="358" stroke="#3498DB" stroke-width="5" stroke-linecap="round"/>
    <line x1="607" y1="342" x2="609" y2="358" stroke="#3498DB" stroke-width="5" stroke-linecap="round"/>
    <!-- arms -->
    <line x1="588" y1="315" x2="582" y2="330" stroke="#3498DB" stroke-width="5" stroke-linecap="round"/><line x1="612" y1="315" x2="618" y2="330" stroke="#3498DB" stroke-width="5" stroke-linecap="round"/>
    <!-- head -->
    <circle cx="600" cy="290" r="16" fill="#FFEAA7"/>
    <!-- hair -->
    <ellipse cx="600" cy="278" rx="16" ry="8" fill="#333"/>
    <circle cx="594" cy="285" r="2.5" fill="#333"/><circle cx="606" cy="286" r="2.5" fill="#333"/>
    <path d="M596,294 Q600,292 604,295" fill="none" stroke="#333" stroke-width="1.5"/>
    <!-- blush -->
    <circle cx="590" cy="291" r="3" fill="#FF9999" opacity="0.4"/>
    <circle cx="610" cy="291" r="3" fill="#FF9999" opacity="0.4"/>
  </g><g>
    <rect x="555" y="225" width="90" height="25" rx="10" fill="#fff" stroke="#333" stroke-width="1.5"/>
    <polygon points="595,250 605,250 600,260" fill="#fff"/>
    <text x="600" y="240.83333333333334" text-anchor="middle" font-size="10" font-family="Arial, sans-serif" fill="#333">Wait... what?</text>
  </g><polygon points="350,242 350,250 365,246" fill="#E74C3C"/>
</svg>