<svg xmlns="http://www.w3.org/2000/svg" viewBox="0 0 800 500" width="800" height="500">
  <defs>
    <style>
      text { font-family: 'Arial', 'Helvetica', sans-serif; }
    </style>
  </defs>
  <rect width="800" height="500" fill="#87CEEB"/>
  <g transform="translate(100,30) scale(1)">
    <ellipse cx="0" cy="0" rx="40" ry="25" fill="#fff" opacity="0.9"/>
    <ellipse cx="-30" cy="5" rx="25" ry="18" fill="#fff" opacity="0.9"/>
    <ellipse cx="30" cy="5" rx="28" ry="20" fill="#fff" opacity="0.9"/>
    <ellipse cx="15" cy="-10" rx="20" ry="15" fill="#fff" opacity="0.9"/>
  </g><circle cx="680" cy="50" r="30" fill="#FFD93D"/>
    <g stroke="#FFD93D" stroke-width="3" fill="none">
      <line x1="718" y1="50" x2="730" y2="50"/><line x1="706.8700576850888" y1="76.8700576850888" x2="715.3553390593274" y2="85.35533905932738"/><line x1="680" y1="88" x2="680" y2="100"/><line x1="653.1299423149112" y1="76.87005768508881" x2="644.6446609406727" y2="85.35533905932738"/><line x1="642" y1="50.00000000000001" x2="630" y2="50.00000000000001"/><line x1="653.1299423149112" y1="23.129942314911197" x2="644.6446609406726" y2="14.64466094067263"/><line x1="680" y1="12" x2="680" y2="0"/><line x1="706.8700576850888" y1="23.129942314911187" x2="715.3553390593273" y2="14.644660940672615"/>
    </g><rect x="200" y="50" width="400" height="400" fill="#C4A882" rx="5"/><ellipse cx="240" cy="100" rx="30" ry="25" fill="#5D4037"/><ellipse cx="240" cy="105" rx="25" ry="20" fill="#3E2723"/><ellipse cx="330" cy="100" rx="30" ry="25" fill="#5D4037"/><ellipse cx="330" cy="105" rx="25" ry="20" fill="#3E2723"/><ellipse cx="420" cy="100" rx="30" ry="25" fill="#5D4037"/><ellipse cx="420" cy="105" rx="25" ry="20" fill="#3E2723"/><ellipse cx="510" cy="100" rx="30" ry="25" fill="#5D4037"/><ellipse cx="510" cy="105" rx="25" ry="20" fill="#3E2723"/><ellipse cx="240" cy="210" rx="30" ry="25" fill="#5D4037"/><ellipse cx="240" cy="215" rx="25" ry="20" fill="#3E2723"/><ellipse cx="330" cy="210" rx="30" ry="25" fill="#5D4037"/><ellipse cx="330" cy="215" rx="25" ry="20" fill="#3E2723"/><ellipse cx="420" cy="210" rx="30" ry="25" fill="#5D4037"/><ellipse cx="420" cy="215" rx="25" ry="20" fill="#3E2723"/><ellipse cx="510" cy="210" rx="30" ry="25" fill="#5D4037"/><ellipse cx="510" cy="215" rx="25" ry="20" fill="#3E2723"/><ellipse cx="240" cy="320" rx="30" ry="25" fill="#5D4037"/><ellipse cx="240" cy="325" rx="25" ry="20" fill="#3E2723"/><ellipse cx="330" cy="320" rx="30" ry="25" fill="#5D4037"/><ellipse cx="330" cy="325" rx="25" ry="20" fill="#3E2723"/><ellipse cx="420" cy="320" rx="30" ry="25" fill="#5D4037"/><ellipse cx="420" cy="325" rx="25" ry="20" fill="#3E2723"/><ellipse cx="510" cy="320" rx="30" ry="25" fill="#5D4037"/><ellipse cx="510" cy="325" rx="25" ry="20" fill="#3E2723"/><g transform="translate(240,95) scale(0.8)">
    <ellipse cx="0" cy="0" rx="10" ry="8" fill="#4ECDC4"/>
    <circle cx="-7" cy="-5" r="6" fill="#4ECDC4"/>
    <circle cx="-5" cy="-6" r="1.5" fill="#333"/>
    <polygon points="-13,-5 -18,-3 -13,-2" fill="#FF6B6B"/>
    <path d="M5,-3 Q12,-8 8,2" fill="#4ECDC4" stroke="#4ECDC4" stroke-width="1"/>
  </g><g transform="translate(320,95) scale(0.8)">
    <ellipse cx="0" cy="0" rx="10" ry="8" fill="#FF6B6B"/>
    <circle cx="-7" cy="-5" r="6" fill="#FF6B6B"/>
    <circle cx="-5" cy="-6" r="1.5" fill="#333"/>
    <polygon points="-13,-5 -18,-3 -13,-2" fill="#FF6B6B"/>
    <path d="M5,-3 Q12,-8 8,2" fill="#FF6B6B" stroke="#FF6B6B" stroke-width="1"/>
  </g><line x1="350" y1="90" x2="400" y2="90" stroke="#333" stroke-width="1"/><rect x="365" y="85" width="8" height="10" fill="#3498DB" opacity="0.8"/><rect x="380" y="86" width="6" height="8" fill="#E74C3C" opacity="0.8"/><polygon points="390,85 397,85 397,92" fill="#F9CA24" opacity="0.8"/><rect x="502" y="95" width="16" height="12" rx="1" fill="#74B9FF" opacity="0.6"/><g transform="translate(518,100) scale(0.6)">
    <ellipse cx="0" cy="0" rx="10" ry="8" fill="#9B59B6"/>
    <circle cx="-7" cy="-5" r="6" fill="#9B59B6"/>
    <circle cx="-5" cy="-6" r="1.5" fill="#333"/>
    <polygon points="-13,-5 -18,-3 -13,-2" fill="#FF6B6B"/>
    <path d="M5,-3 Q12,-8 8,2" fill="#9B59B6" stroke="#9B59B6" stroke-width="1"/>
  </g><g transform="translate(235,210) scale(0.7)">
    <ellipse cx="0" cy="0" rx="10" ry="8" fill="#F39C12"/>
    <circle cx="-7" cy="-5" r="6" fill="#F39C12"/>
    <circle cx="-5" cy="-6" r="1.5" fill="#333"/>
    <polygon points="-13,-5 -18,-3 -13,-2" fill="#FF6B6B"/>
    <path d="M5,-3 Q12,-8 8,2" fill="#F39C12" stroke="#F39C12" stroke-width="1"/>
  </g><g transform="translate(248,212) scale(0.4)">
    <ellipse cx="0" cy="0" rx="10" ry="8" fill="#F39C12"/>
    <circle cx="-7" cy="-5" r="6" fill="#F39C12"/>
    <circle cx="-5" cy="-6" r="1.5" fill="#333"/>
    <polygon points="-13,-5 -18,-3 -13,-2" fill="#FF6B6B"/>
    <path d="M5,-3 Q12,-8 8,2" fill="#F39C12" stroke="#F39C12" stroke-width="1"/>
  </g><g transform="translate(243,215) scale(0.3)">
    <ellipse cx="0" cy="0" rx="10" ry="8" fill="#F39C12"/>
    <circle cx="-7" cy="-5" r="6" fill="#F39C12"/>
    <circle cx="-5" cy="-6" r="1.5" fill="#333"/>
    <polygon points="-13,-5 -18,-3 -13,-2" fill="#FF6B6B"/>
    <path d="M5,-3 Q12,-8 8,2" fill="#F39C12" stroke="#F39C12" stroke-width="1"/>
  </g><g transform="translate(330,210) scale(0.7)">
    <ellipse cx="0" cy="0" rx="10" ry="8" fill="#2ECC71"/>
    <circle cx="-7" cy="-5" r="6" fill="#2ECC71"/>
    <circle cx="-5" cy="-6" r="1.5" fill="#333"/>
    <polygon points="-13,-5 -18,-3 -13,-2" fill="#FF6B6B"/>
    <path d="M5,-3 Q12,-8 8,2" fill="#2ECC71" stroke="#2ECC71" stroke-width="1"/>
  </g><rect x="335" y="202" width="10" height="12" fill="#F5F5DC" opacity="0.7"/><g transform="translate(420,210) scale(0.7)">
    <ellipse cx="0" cy="0" rx="10" ry="8" fill="#E74C3C"/>
    <circle cx="-7" cy="-5" r="6" fill="#E74C3C"/>
    <circle cx="-5" cy="-6" r="1.5" fill="#333"/>
    <polygon points="-13,-5 -18,-3 -13,-2" fill="#FF6B6B"/>
    <path d="M5,-3 Q12,-8 8,2" fill="#E74C3C" stroke="#E74C3C" stroke-width="1"/>
  </g><g transform="translate(510,210) scale(0.7)">
    <ellipse cx="0" cy="0" rx="10" ry="8" fill="#3498DB"/>
    <circle cx="-7" cy="-5" r="6" fill="#3498DB"/>
    <circle cx="-5" cy="-6" r="1.5" fill="#333"/>
    <polygon points="-13,-5 -18,-3 -13,-2" fill="#FF6B6B"/>
    <path d="M5,-3 Q12,-8 8,2" fill="#3498DB" stroke="#3498DB" stroke-width="1"/>
  </g><g transform="translate(240,320) scale(0.6)">
    <ellipse cx="0" cy="0" rx="10" ry="8" fill="#FF6B6B"/>
    <circle cx="-7" cy="-5" r="6" fill="#FF6B6B"/>
    <circle cx="-5" cy="-6" r="1.5" fill="#333"/>
    <polygon points="-13,-5 -18,-3 -13,-2" fill="#FF6B6B"/>
    <path d="M5,-3 Q12,-8 8,2" fill="#FF6B6B" stroke="#FF6B6B" stroke-width="1"/>
  </g><g transform="translate(330,320) scale(0.7)">
    <ellipse cx="0" cy="0" rx="10" ry="8" fill="#1ABC9C"/>
    <circle cx="-7" cy="-5" r="6" fill="#1ABC9C"/>
    <circle cx="-5" cy="-6" r="1.5" fill="#333"/>
    <polygon points="-13,-5 -18,-3 -13,-2" fill="#FF6B6B"/>
    <path d="M5,-3 Q12,-8 8,2" fill="#1ABC9C" stroke="#1ABC9C" stroke-width="1"/>
  </g><g transform="translate(420,320) scale(0.7)">
    <ellipse cx="0" cy="0" rx="10" ry="8" fill="#E67E22"/>
    <circle cx="-7" cy="-5" r="6" fill="#E67E22"/>
    <circle cx="-5" cy="-6" r="1.5" fill="#333"/>
    <polygon points="-13,-5 -18,-3 -13,-2" fill="#FF6B6B"/>
    <path d="M5,-3 Q12,-8 8,2" fill="#E67E22" stroke="#E67E22" stroke-width="1"/>
  </g><g transform="translate(510,320) scale(0.6)">
    <ellipse cx="0" cy="0" rx="10" ry="8" fill="#9B59B6"/>
    <circle cx="-7" cy="-5" r="6" fill="#9B59B6"/>
    <circle cx="-5" cy="-6" r="1.5" fill="#333"/>
    <polygon points="-13,-5 -18,-3 -13,-2" fill="#FF6B6B"/>
    <path d="M5,-3 Q12,-8 8,2" fill="#9B59B6" stroke="#9B59B6" stroke-width="1"/>
  </g><rect x="0" y="430" width="800" height="70" fill="#8B7355" opacity="0.4"/><g transform="translate(100, 380)">
      <line x1="0" y1="0" x2="0" y2="50" stroke="#5D4037" stroke-width="3"/>
      <rect x="-30" y="-10" width="60" height="25" rx="3" fill="#F5E6CC" stroke="#8B7355" stroke-width="1"/>
      <text x="0" y="3" text-anchor="middle" font-size="8" fill="#333">Bird Apts.</text>
      <text x="0" y="12" text-anchor="middle" font-size="6" fill="#333">No Vacancy</text>
    </g>
</svg>