<svg xmlns="http://www.w3.org/2000/svg" viewBox="0 0 800 500" width="800" height="500">
  <defs>
    <style>
      text { font-family: 'Arial', 'Helvetica', sans-serif; }
    </style>
  </defs>
  <rect width="800" height="500" fill="#87CEEB"/>
  <g transform="translate(100,40) scale(1)">
    <ellipse cx="0" cy="0" rx="40" ry="25" fill="#fff" opacity="0.9"/>
    <ellipse cx="-30" cy="5" rx="25" ry="18" fill="#fff" opacity="0.9"/>
    <ellipse cx="30" cy="5" rx="28" ry="20" fill="#fff" opacity="0.9"/>
    <ellipse cx="15" cy="-10" rx="20" ry="15" fill="#fff" opacity="0.9"/>
  </g><g transform="translate(500,55) scale(0.8)">
    <ellipse cx="0" cy="0" rx="40" ry="25" fill="#fff" opacity="0.9"/>
    <ellipse cx="-30" cy="5" rx="25" ry="18" fill="#fff" opacity="0.9"/>
    <ellipse cx="30" cy="5" rx="28" ry="20" fill="#fff" opacity="0.9"/>
    <ellipse cx="15" cy="-10" rx="20" ry="15" fill="#fff" opacity="0.9"/>
  </g><circle cx="680" cy="50" r="30" fill="#FFD93D"/>
    <g stroke="#FFD93D" stroke-width="3" fill="none">
      <line x1="718" y1="50" x2="730" y2="50"/><line x1="706.8700576850888" y1="76.8700576850888" x2="715.3553390593274" y2="85.35533905932738"/><line x1="680" y1="88" x2="680" y2="100"/><line x1="653.1299423149112" y1="76.87005768508881" x2="644.6446609406727" y2="85.35533905932738"/><line x1="642" y1="50.00000000000001" x2="630" y2="50.00000000000001"/><line x1="653.1299423149112" y1="23.129942314911197" x2="644.6446609406726" y2="14.64466094067263"/><line x1="680" y1="12" x2="680" y2="0"/><line x1="706.8700576850888" y1="23.129942314911187" x2="715.3553390593273" y2="14.644660940672615"/>
    </g><rect x="0" y="300" width="800" height="200" fill="#7BC67E"/><rect x="0" y="350" width="800" height="150" fill="#6AB06D"/><path d="M0,380 Q200,370 400,380 Q600,390 800,375" fill="none" stroke="#888" stroke-width="15"/><g transform="translate(200, 200)">
      <line x1="0" y1="0" x2="0" y2="100" stroke="#ccc" stroke-width="4"/>
      <line x1="0" y1="0" x2="-30" y2="-15" stroke="#ddd" stroke-width="3"/>
      <line x1="0" y1="0" x2="25" y2="-20" stroke="#ddd" stroke-width="3"/>
      <line x1="0" y1="0" x2="5" y2="30" stroke="#ddd" stroke-width="3"/>
      <circle cx="0" cy="0" r="4" fill="#bbb"/>
    </g><g transform="translate(600, 210)">
      <line x1="0" y1="0" x2="0" y2="90" stroke="#ccc" stroke-width="4"/>
      <line x1="0" y1="0" x2="-25" y2="-20" stroke="#ddd" stroke-width="3"/>
      <line x1="0" y1="0" x2="28" y2="-12" stroke="#ddd" stroke-width="3"/>
      <line x1="0" y1="0" x2="-3" y2="28" stroke="#ddd" stroke-width="3"/>
      <circle cx="0" cy="0" r="4" fill="#bbb"/>
    </g><g transform="scale(0.7)">
    <!-- body -->
    <ellipse cx="380" cy="335" rx="14" ry="20" fill="#E74C3C"/>
    <!-- legs -->
    <line x1="373" y1="352" x2="371" y2="368" stroke="#E74C3C" stroke-width="5" stroke-linecap="round"/>
    <line x1="387" y1="352" x2="389" y2="368" stroke="#E74C3C" stroke-width="5" stroke-linecap="round"/>
    <!-- arms -->
    <line x1="368" y1="325" x2="362" y2="340" stroke="#E74C3C" stroke-width="5" stroke-linecap="round"/><line x1="392" y1="325" x2="398" y2="340" stroke="#E74C3C" stroke-width="5" stroke-linecap="round"/>
    <!-- head -->
    <circle cx="380" cy="300" r="16" fill="#FFEAA7"/>
    <!-- hair -->
    <ellipse cx="380" cy="288" rx="16" ry="8" fill="#333"/>
    <circle cx="374" cy="295" r="2.5" fill="#333"/><circle cx="386" cy="295" r="2.5" fill="#333"/>
    <path d="M375,303 Q380,309 385,303" fill="none" stroke="#333" stroke-width="1.5"/>
    <!-- blush -->
    <circle cx="370" cy="301" r="3" fill="#FF9999" opacity="0.4"/>
    <circle cx="390" cy="301" r="3" fill="#FF9999" opacity="0.4"/>
  </g><g transform="scale(0.7)">
    <!-- body -->
    <ellipse cx="420" cy="333" rx="14" ry="20" fill="#3498DB"/>
    <!-- legs -->
    <line x1="413" y1="350" x2="411" y2="366" stroke="#3498DB" stroke-width="5" stroke-linecap="round"/>
    <line x1="427" y1="350" x2="429" y2="366" stroke="#3498DB" stroke-width="5" stroke-linecap="round"/>
    <!-- arms -->
    <line x1="408" y1="323" x2="402" y2="338" stroke="#3498DB" stroke-width="5" stroke-linecap="round"/><line x1="432" y1="323" x2="438" y2="338" stroke="#3498DB" stroke-width="5" stroke-linecap="round"/>
    <!-- head -->
    <circle cx="420" cy="298" r="16" fill="#FFEAA7"/>
    <!-- hair -->
    <ellipse cx="420" cy="286" rx="16" ry="8" fill="#333"/>
    <circle cx="414" cy="293" r="2.5" fill="#333"/><circle cx="426" cy="293" r="2.5" fill="#333"/>
    <path d="M415,301 Q420,307 425,301" fill="none" stroke="#333" stroke-width="1.5"/>
    <!-- blush -->
    <circle cx="410" cy="299" r="3" fill="#FF9999" opacity="0.4"/>
    <circle cx="430" cy="299" r="3" fill="#FF9999" opacity="0.4"/>
  </g><g>
    <rect x="424" y="275" width="12" height="20" rx="2" fill="#333"/>
    <rect x="425" y="277" width="10" height="16" rx="1" fill="#74B9FF"/>
    <circle cx="430" cy="276" r="1.5" fill="#555"/>
  </g><g transform="translate(400, 330)">
      <ellipse cx="0" cy="10" rx="22" ry="16" fill="#F5F5F5"/>
      <circle cx="-10" cy="5" r="8" fill="#F5F5F5"/>
      <circle cx="10" cy="5" r="8" fill="#F5F5F5"/>
      <circle cx="0" cy="-2" r="8" fill="#F5F5F5"/>
      <ellipse cx="0" cy="-10" rx="10" ry="9" fill="#FFEAA7"/>
      <circle cx="-3" cy="-12" r="2" fill="#333"/>
      <circle cx="5" cy="-12" r="2" fill="#333"/>
      <path d="M-2,-7 Q2,-5 5,-7" fill="none" stroke="#333" stroke-width="1.2"/>
      <line x1="-12" y1="24" x2="-12" y2="36" stroke="#333" stroke-width="3"/>
      <line x1="12" y1="24" x2="12" y2="36" stroke="#333" stroke-width="3"/>
      <line x1="-5" y1="24" x2="-5" y2="36" stroke="#333" stroke-width="3"/>
      <line x1="5" y1="24" x2="5" y2="36" stroke="#333" stroke-width="3"/>
    </g><g transform="translate(550, 360) scale(0.6)">
        <ellipse cx="0" cy="0" rx="15" ry="12" fill="#F5F5F5"/>
        <circle cx="-6" cy="-6" r="5" fill="#F5F5F5"/>
        <circle cx="6" cy="-6" r="5" fill="#F5F5F5"/>
        <ellipse cx="0" cy="-12" rx="7" ry="6" fill="#FFEAA7"/>
        <circle cx="-2" cy="-13" r="1.5" fill="#333"/>
        <circle cx="3" cy="-13" r="1.5" fill="#333"/>
        <line x1="-8" y1="10" x2="-8" y2="18" stroke="#333" stroke-width="2"/>
        <line x1="8" y1="10" x2="8" y2="18" stroke="#333" stroke-width="2"/>
      </g><g transform="translate(600, 360) scale(0.6)">
        <ellipse cx="0" cy="0" rx="15" ry="12" fill="#F5F5F5"/>
        <circle cx="-6" cy="-6" r="5" fill="#F5F5F5"/>
        <circle cx="6" cy="-6" r="5" fill="#F5F5F5"/>
        <ellipse cx="0" cy="-12" rx="7" ry="6" fill="#FFEAA7"/>
        <circle cx="-2" cy="-13" r="1.5" fill="#333"/>
        <circle cx="3" cy="-13" r="1.5" fill="#333"/>
        <line x1="-8" y1="10" x2="-8" y2="18" stroke="#333" stroke-width="2"/>
        <line x1="8" y1="10" x2="8" y2="18" stroke="#333" stroke-width="2"/>
      </g><g transform="translate(650, 360) scale(0.6)">
        <ellipse cx="0" cy="0" rx="15" ry="12" fill="#F5F5F5"/>
        <circle cx="-6" cy="-6" r="5" fill="#F5F5F5"/>
        <circle cx="6" cy="-6" r="5" fill="#F5F5F5"/>
        <ellipse cx="0" cy="-12" rx="7" ry="6" fill="#FFEAA7"/>
        <circle cx="-2" cy="-13" r="1.5" fill="#333"/>
        <circle cx="3" cy="-13" r="1.5" fill="#333"/>
        <line x1="-8" y1="10" x2="-8" y2="18" stroke="#333" stroke-width="2"/>
        <line x1="8" y1="10" x2="8" y2="18" stroke="#333" stroke-width="2"/>
      </g><g transform="translate(700, 360) scale(0.6)">
        <ellipse cx="0" cy="0" rx="15" ry="12" fill="#F5F5F5"/>
        <circle cx="-6" cy="-6" r="5" fill="#F5F5F5"/>
        <circle cx="6" cy="-6" r="5" fill="#F5F5F5"/>
        <ellipse cx="0" cy="-12" rx="7" ry="6" fill="#FFEAA7"/>
        <circle cx="-2" cy="-13" r="1.5" fill="#333"/>
        <circle cx="3" cy="-13" r="1.5" fill="#333"/>
        <line x1="-8" y1="10" x2="-8" y2="18" stroke="#333" stroke-width="2"/>
        <line x1="8" y1="10" x2="8" y2="18" stroke="#333" stroke-width="2"/>
      </g><g>
    <rect x="362.5" y="260" width="75" height="25" rx="10" fill="#fff" stroke="#333" stroke-width="1.5"/>
    <polygon points="395,285 405,285 400,295" fill="#fff"/>
    <text x="400" y="275.8333333333333" text-anchor="middle" font-size="10" font-family="Arial, sans-serif" fill="#333">My turn!</text>
  </g>
</svg>