<svg xmlns="http://www.w3.org/2000/svg" viewBox="0 0 800 500" width="800" height="500">
  <defs>
    <style>
      text { font-family: 'Arial', 'Helvetica', sans-serif; }
    </style>
  </defs>
  <rect width="800" height="500" fill="#87CEEB"/>
  <g transform="translate(150,60) scale(1)">
    <ellipse cx="0" cy="0" rx="40" ry="25" fill="#fff" opacity="0.9"/>
    <ellipse cx="-30" cy="5" rx="25" ry="18" fill="#fff" opacity="0.9"/>
    <ellipse cx="30" cy="5" rx="28" ry="20" fill="#fff" opacity="0.9"/>
    <ellipse cx="15" cy="-10" rx="20" ry="15" fill="#fff" opacity="0.9"/>
  </g><g transform="translate(600,80) scale(0.8)">
    <ellipse cx="0" cy="0" rx="40" ry="25" fill="#fff" opacity="0.9"/>
    <ellipse cx="-30" cy="5" rx="25" ry="18" fill="#fff" opacity="0.9"/>
    <ellipse cx="30" cy="5" rx="28" ry="20" fill="#fff" opacity="0.9"/>
    <ellipse cx="15" cy="-10" rx="20" ry="15" fill="#fff" opacity="0.9"/>
  </g><circle cx="700" cy="60" r="30" fill="#FFD93D"/>
    <g stroke="#FFD93D" stroke-width="3" fill="none">
      <line x1="738" y1="60" x2="750" y2="60"/><line x1="726.8700576850888" y1="86.8700576850888" x2="735.3553390593274" y2="95.35533905932738"/><line x1="700" y1="98" x2="700" y2="110"/><line x1="673.1299423149112" y1="86.87005768508881" x2="664.6446609406727" y2="95.35533905932738"/><line x1="662" y1="60.00000000000001" x2="650" y2="60.00000000000001"/><line x1="673.1299423149112" y1="33.1299423149112" x2="664.6446609406726" y2="24.64466094067263"/><line x1="700" y1="22" x2="700" y2="10"/><line x1="726.8700576850888" y1="33.12994231491119" x2="735.3553390593273" y2="24.644660940672615"/>
    </g><ellipse cx="200" cy="460" rx="300" ry="80" fill="#7BC67E"/><ellipse cx="600" cy="470" rx="280" ry="70" fill="#6AB06D"/><path d="M0,420 Q200,380 400,400 Q600,420 800,380" fill="none" stroke="#888" stroke-width="20"/><path d="M0,420 Q200,380 400,400 Q600,420 800,380" fill="none" stroke="#FFD93D" stroke-width="2" stroke-dasharray="10,10"/><circle cx="418.0153058234626" cy="439.377793254136" r="4" fill="#9B59B6"/>
        <line x1="418.0153058234626" y1="439.377793254136" x2="418.0153058234626" y2="451.377793254136" stroke="#27AE60" stroke-width="1.5"/><circle cx="483.56948368368745" cy="459.30548560518497" r="4" fill="#E74C3C"/>
        <line x1="483.56948368368745" y1="459.30548560518497" x2="483.56948368368745" y2="471.30548560518497" stroke="#27AE60" stroke-width="1.5"/><circle cx="527.4673229936491" cy="451.68065935925733" r="4" fill="#E74C3C"/>
        <line x1="527.4673229936491" y1="451.68065935925733" x2="527.4673229936491" y2="463.68065935925733" stroke="#27AE60" stroke-width="1.5"/><circle cx="743.5817070699698" cy="484.7433857122541" r="4" fill="#E91E63"/>
        <line x1="743.5817070699698" y1="484.7433857122541" x2="743.5817070699698" y2="496.7433857122541" stroke="#27AE60" stroke-width="1.5"/><circle cx="31.768464339108515" cy="453.0427357703848" r="4" fill="#9B59B6"/>
        <line x1="31.768464339108515" y1="453.0427357703848" x2="31.768464339108515" y2="465.0427357703848" stroke="#27AE60" stroke-width="1.5"/><circle cx="559.046322973909" cy="437.8518830662666" r="4" fill="#E74C3C"/>
        <line x1="559.046322973909" y1="437.8518830662666" x2="559.046322973909" y2="449.8518830662666" stroke="#27AE60" stroke-width="1.5"/><circle cx="444.6932342003575" cy="479.67729658203575" r="4" fill="#E91E63"/>
        <line x1="444.6932342003575" y1="479.67729658203575" x2="444.6932342003575" y2="491.67729658203575" stroke="#27AE60" stroke-width="1.5"/><circle cx="285.08378539596214" cy="483.72054149094754" r="4" fill="#E91E63"/>
        <line x1="285.08378539596214" y1="483.72054149094754" x2="285.08378539596214" y2="495.72054149094754" stroke="#27AE60" stroke-width="1.5"/><circle cx="701.6931259161544" cy="455.8343737559229" r="4" fill="#9B59B6"/>
        <line x1="701.6931259161544" y1="455.8343737559229" x2="701.6931259161544" y2="467.8343737559229" stroke="#27AE60" stroke-width="1.5"/><circle cx="99.74673029192527" cy="468.8463942088041" r="4" fill="#9B59B6"/>
        <line x1="99.74673029192527" y1="468.8463942088041" x2="99.74673029192527" y2="480.8463942088041" stroke="#27AE60" stroke-width="1.5"/><circle cx="369.2233588600476" cy="463.5649395790046" r="4" fill="#F39C12"/>
        <line x1="369.2233588600476" y1="463.5649395790046" x2="369.2233588600476" y2="475.5649395790046" stroke="#27AE60" stroke-width="1.5"/><circle cx="757.957077669504" cy="451.02363949403207" r="4" fill="#FF6B6B"/>
        <line x1="757.957077669504" y1="451.02363949403207" x2="757.957077669504" y2="463.02363949403207" stroke="#27AE60" stroke-width="1.5"/><circle cx="24.20346547187835" cy="475.1338325008507" r="4" fill="#F39C12"/>
        <line x1="24.20346547187835" y1="475.1338325008507" x2="24.20346547187835" y2="487.1338325008507" stroke="#27AE60" stroke-width="1.5"/><circle cx="163.8207873868219" cy="474.95687038372563" r="4" fill="#E91E63"/>
        <line x1="163.8207873868219" y1="474.95687038372563" x2="163.8207873868219" y2="486.95687038372563" stroke="#27AE60" stroke-width="1.5"/><circle cx="524.013013407192" cy="472.46591846207787" r="4" fill="#9B59B6"/>
        <line x1="524.013013407192" y1="472.46591846207787" x2="524.013013407192" y2="484.46591846207787" stroke="#27AE60" stroke-width="1.5"/><circle cx="73.78577670381708" cy="484.38237202530604" r="4" fill="#F39C12"/>
        <line x1="73.78577670381708" y1="484.38237202530604" x2="73.78577670381708" y2="496.38237202530604" stroke="#27AE60" stroke-width="1.5"/><circle cx="612.2565573938787" cy="437.0492076025508" r="4" fill="#FF6B6B"/>
        <line x1="612.2565573938787" y1="437.0492076025508" x2="612.2565573938787" y2="449.0492076025508" stroke="#27AE60" stroke-width="1.5"/><circle cx="296.43637418773363" cy="478.76063146157543" r="4" fill="#E91E63"/>
        <line x1="296.43637418773363" y1="478.76063146157543" x2="296.43637418773363" y2="490.76063146157543" stroke="#27AE60" stroke-width="1.5"/><circle cx="389.60409983500324" cy="440.9051174140902" r="4" fill="#9B59B6"/>
        <line x1="389.60409983500324" y1="440.9051174140902" x2="389.60409983500324" y2="452.9051174140902" stroke="#27AE60" stroke-width="1.5"/><circle cx="620.2852882558803" cy="489.27200892171555" r="4" fill="#F39C12"/>
        <line x1="620.2852882558803" y1="489.27200892171555" x2="620.2852882558803" y2="501.27200892171555" stroke="#27AE60" stroke-width="1.5"/><circle cx="362.77684152662414" cy="477.4976503088991" r="4" fill="#E74C3C"/>
        <line x1="362.77684152662414" y1="477.4976503088991" x2="362.77684152662414" y2="489.4976503088991" stroke="#27AE60" stroke-width="1.5"/><circle cx="716.037579771541" cy="465.45757594109386" r="4" fill="#E91E63"/>
        <line x1="716.037579771541" y1="465.45757594109386" x2="716.037579771541" y2="477.45757594109386" stroke="#27AE60" stroke-width="1.5"/><circle cx="783.1107900894586" cy="479.01742367616123" r="4" fill="#9B59B6"/>
        <line x1="783.1107900894586" y1="479.01742367616123" x2="783.1107900894586" y2="491.01742367616123" stroke="#27AE60" stroke-width="1.5"/><circle cx="469.6641937254921" cy="446.9646473982712" r="4" fill="#E74C3C"/>
        <line x1="469.6641937254921" y1="446.9646473982712" x2="469.6641937254921" y2="458.9646473982712" stroke="#27AE60" stroke-width="1.5"/><circle cx="642.0871115090381" cy="475.20795084093294" r="4" fill="#E74C3C"/>
        <line x1="642.0871115090381" y1="475.20795084093294" x2="642.0871115090381" y2="487.20795084093294" stroke="#27AE60" stroke-width="1.5"/><circle cx="376.7577845027064" cy="473.51929046916536" r="4" fill="#E91E63"/>
        <line x1="376.7577845027064" y1="473.51929046916536" x2="376.7577845027064" y2="485.51929046916536" stroke="#27AE60" stroke-width="1.5"/><circle cx="157.97349305570006" cy="440.0136067364048" r="4" fill="#F39C12"/>
        <line x1="157.97349305570006" y1="440.0136067364048" x2="157.97349305570006" y2="452.0136067364048" stroke="#27AE60" stroke-width="1.5"/><circle cx="427.875439820444" cy="456.23288702222646" r="4" fill="#F39C12"/>
        <line x1="427.875439820444" y1="456.23288702222646" x2="427.875439820444" y2="468.23288702222646" stroke="#27AE60" stroke-width="1.5"/><circle cx="351.2118899601551" cy="488.1962395264065" r="4" fill="#9B59B6"/>
        <line x1="351.2118899601551" y1="488.1962395264065" x2="351.2118899601551" y2="500.1962395264065" stroke="#27AE60" stroke-width="1.5"/><circle cx="511.5138070633085" cy="488.9836075046038" r="4" fill="#E91E63"/>
        <line x1="511.5138070633085" y1="488.9836075046038" x2="511.5138070633085" y2="500.9836075046038" stroke="#27AE60" stroke-width="1.5"/><circle cx="625.5152343464555" cy="468.4978658033995" r="4" fill="#F39C12"/>
        <line x1="625.5152343464555" y1="468.4978658033995" x2="625.5152343464555" y2="480.4978658033995" stroke="#27AE60" stroke-width="1.5"/><circle cx="681.324669282912" cy="453.2106294189304" r="4" fill="#9B59B6"/>
        <line x1="681.324669282912" y1="453.2106294189304" x2="681.324669282912" y2="465.2106294189304" stroke="#27AE60" stroke-width="1.5"/><circle cx="171.62742805194472" cy="430.9205369830625" r="4" fill="#FF6B6B"/>
        <line x1="171.62742805194472" y1="430.9205369830625" x2="171.62742805194472" y2="442.9205369830625" stroke="#27AE60" stroke-width="1.5"/><circle cx="483.0311217144184" cy="433.64810037364833" r="4" fill="#FF6B6B"/>
        <line x1="483.0311217144184" y1="433.64810037364833" x2="483.0311217144184" y2="445.64810037364833" stroke="#27AE60" stroke-width="1.5"/><circle cx="743.6602790787132" cy="479.87953852367656" r="4" fill="#9B59B6"/>
        <line x1="743.6602790787132" y1="479.87953852367656" x2="743.6602790787132" y2="491.87953852367656" stroke="#27AE60" stroke-width="1.5"/><circle cx="439.6673213731379" cy="435.3932625284244" r="4" fill="#FF6B6B"/>
        <line x1="439.6673213731379" y1="435.3932625284244" x2="439.6673213731379" y2="447.3932625284244" stroke="#27AE60" stroke-width="1.5"/><circle cx="150.13121208947453" cy="471.9587576321211" r="4" fill="#E91E63"/>
        <line x1="150.13121208947453" y1="471.9587576321211" x2="150.13121208947453" y2="483.9587576321211" stroke="#27AE60" stroke-width="1.5"/><circle cx="381.75939492741173" cy="474.4461518407401" r="4" fill="#9B59B6"/>
        <line x1="381.75939492741173" y1="474.4461518407401" x2="381.75939492741173" y2="486.4461518407401" stroke="#27AE60" stroke-width="1.5"/><circle cx="669.9629035955186" cy="488.032785582947" r="4" fill="#E74C3C"/>
        <line x1="669.9629035955186" y1="488.032785582947" x2="669.9629035955186" y2="500.032785582947" stroke="#27AE60" stroke-width="1.5"/><circle cx="139.86816244484254" cy="462.6714481973563" r="4" fill="#FF6B6B"/>
        <line x1="139.86816244484254" y1="462.6714481973563" x2="139.86816244484254" y2="474.6714481973563" stroke="#27AE60" stroke-width="1.5"/><g transform="translate(350, 350)">
      <rect x="0" y="20" width="70" height="30" rx="8" fill="#3498DB"/>
      <rect x="10" y="10" width="25" height="15" rx="3" fill="#85C1E9"/>
      <rect x="38" y="10" width="22" height="15" rx="3" fill="#85C1E9"/>
      <circle cx="15" cy="52" r="8" fill="#333"/>
      <circle cx="55" cy="52" r="8" fill="#333"/>
      <circle cx="15" cy="52" r="3" fill="#888"/>
      <circle cx="55" cy="52" r="3" fill="#888"/>
      <rect x="5" y="-10" width="60" height="22" rx="3" fill="#E74C3C"/>
      <rect x="10" y="-35" width="50" height="28" rx="3" fill="#F39C12"/>
      <rect x="15" y="-60" width="40" height="28" rx="3" fill="#2ECC71"/>
      <rect x="20" y="-80" width="30" height="23" rx="3" fill="#9B59B6"/>
      <rect x="25" y="-95" width="20" height="18" rx="3" fill="#E91E63"/>
      <circle cx="35" cy="-102" r="8" fill="#1ABC9C"/>
      <line x1="10" y1="-95" x2="10" y2="10" stroke="#333" stroke-width="1" stroke-dasharray="3,3"/>
      <line x1="60" y1="-95" x2="60" y2="10" stroke="#333" stroke-width="1" stroke-dasharray="3,3"/>
    </g><g transform="translate(370, 350)">
      <circle cx="20" cy="10" r="8" fill="#FFEAA7"/>
      <circle cx="17" cy="8" r="1.5" fill="#333"/>
      <circle cx="23" cy="8" r="1.5" fill="#333"/>
      <path d="M17,13 Q20,16 23,13" fill="none" stroke="#333" stroke-width="1"/>
    </g><g>
    <rect x="399" y="335" width="12" height="20" rx="2" fill="#333"/>
    <rect x="400" y="337" width="10" height="16" rx="1" fill="#74B9FF"/>
    <circle cx="405" cy="336" r="1.5" fill="#555"/>
  </g><text x="500" y="340" font-size="16" fill="#E74C3C" font-weight="bold">!</text><g>
    <rect x="380" y="285" width="80" height="25" rx="10" fill="#fff" stroke="#333" stroke-width="1.5"/>
    <polygon points="415,310 425,310 420,320" fill="#fff"/>
    <text x="420" y="300.8333333333333" text-anchor="middle" font-size="10" font-family="Arial, sans-serif" fill="#333">Selfie time!</text>
  </g>
</svg>