<svg xmlns="http://www.w3.org/2000/svg" viewBox="0 0 800 500" width="800" height="500">
  <defs>
    <style>
      text { font-family: 'Arial', 'Helvetica', sans-serif; }
    </style>
  </defs>
  <rect width="800" height="500" fill="#87CEEB"/>
  <g transform="translate(100,40) scale(0.8)">
    <ellipse cx="0" cy="0" rx="40" ry="25" fill="#fff" opacity="0.9"/>
    <ellipse cx="-30" cy="5" rx="25" ry="18" fill="#fff" opacity="0.9"/>
    <ellipse cx="30" cy="5" rx="28" ry="20" fill="#fff" opacity="0.9"/>
    <ellipse cx="15" cy="-10" rx="20" ry="15" fill="#fff" opacity="0.9"/>
  </g><g transform="translate(600,60) scale(1)">
    <ellipse cx="0" cy="0" rx="40" ry="25" fill="#fff" opacity="0.9"/>
    <ellipse cx="-30" cy="5" rx="25" ry="18" fill="#fff" opacity="0.9"/>
    <ellipse cx="30" cy="5" rx="28" ry="20" fill="#fff" opacity="0.9"/>
    <ellipse cx="15" cy="-10" rx="20" ry="15" fill="#fff" opacity="0.9"/>
  </g><polygon points="200,150 0,400 400,400" fill="#6C9A8B"/>
    <polygon points="200,150 140,225 260,225" fill="#fff" opacity="0.6"/><polygon points="550,180 375,400 725,400" fill="#5D8A7B"/>
    <polygon points="550,180 497.5,246 602.5,246" fill="#fff" opacity="0.6"/><path d="M100,400 L200,350 L300,300 L400,260 L500,230 L600,200 L700,180" fill="none" stroke="#C4A882" stroke-width="25"/><rect x="150" y="364.5" width="10" height="12" fill="#C4A882" stroke="#8B7355" stroke-width="0.5"/><rect x="190" y="350.5" width="10" height="12" fill="#C4A882" stroke="#8B7355" stroke-width="0.5"/><rect x="230" y="336.5" width="10" height="12" fill="#C4A882" stroke="#8B7355" stroke-width="0.5"/><rect x="270" y="322.5" width="10" height="12" fill="#C4A882" stroke="#8B7355" stroke-width="0.5"/><rect x="310" y="308.5" width="10" height="12" fill="#C4A882" stroke="#8B7355" stroke-width="0.5"/><rect x="350" y="294.5" width="10" height="12" fill="#C4A882" stroke="#8B7355" stroke-width="0.5"/><rect x="390" y="280.5" width="10" height="12" fill="#C4A882" stroke="#8B7355" stroke-width="0.5"/><rect x="430" y="266.5" width="10" height="12" fill="#C4A882" stroke="#8B7355" stroke-width="0.5"/><rect x="470" y="252.5" width="10" height="12" fill="#C4A882" stroke="#8B7355" stroke-width="0.5"/><rect x="510" y="238.5" width="10" height="12" fill="#C4A882" stroke="#8B7355" stroke-width="0.5"/><rect x="550" y="224.5" width="10" height="12" fill="#C4A882" stroke="#8B7355" stroke-width="0.5"/><rect x="590" y="210.5" width="10" height="12" fill="#C4A882" stroke="#8B7355" stroke-width="0.5"/><rect x="630" y="196.5" width="10" height="12" fill="#C4A882" stroke="#8B7355" stroke-width="0.5"/><rect x="670" y="182.5" width="10" height="12" fill="#C4A882" stroke="#8B7355" stroke-width="0.5"/><line x1="150" y1="392.5" x2="175" y2="384.5" stroke="#8B7355" stroke-width="1"/><line x1="175" y1="383.75" x2="200" y2="375.75" stroke="#8B7355" stroke-width="1"/><line x1="200" y1="375" x2="225" y2="367" stroke="#8B7355" stroke-width="1"/><line x1="225" y1="366.25" x2="250" y2="358.25" stroke="#8B7355" stroke-width="1"/><line x1="250" y1="357.5" x2="275" y2="349.5" stroke="#8B7355" stroke-width="1"/><line x1="275" y1="348.75" x2="300" y2="340.75" stroke="#8B7355" stroke-width="1"/><line x1="300" y1="340" x2="325" y2="332" stroke="#8B7355" stroke-width="1"/><line x1="325" y1="331.25" x2="350" y2="323.25" stroke="#8B7355" stroke-width="1"/><line x1="350" y1="322.5" x2="375" y2="314.5" stroke="#8B7355" stroke-width="1"/><line x1="375" y1="313.75" x2="400" y2="305.75" stroke="#8B7355" stroke-width="1"/><line x1="400" y1="305" x2="425" y2="297" stroke="#8B7355" stroke-width="1"/><line x1="425" y1="296.25" x2="450" y2="288.25" stroke="#8B7355" stroke-width="1"/><line x1="450" y1="287.5" x2="475" y2="279.5" stroke="#8B7355" stroke-width="1"/><line x1="475" y1="278.75" x2="500" y2="270.75" stroke="#8B7355" stroke-width="1"/><line x1="500" y1="270" x2="525" y2="262" stroke="#8B7355" stroke-width="1"/><line x1="525" y1="261.25" x2="550" y2="253.25" stroke="#8B7355" stroke-width="1"/><line x1="550" y1="252.5" x2="575" y2="244.5" stroke="#8B7355" stroke-width="1"/><line x1="575" y1="243.75" x2="600" y2="235.75" stroke="#8B7355" stroke-width="1"/><line x1="600" y1="235" x2="625" y2="227" stroke="#8B7355" stroke-width="1"/><line x1="625" y1="226.25" x2="650" y2="218.25" stroke="#8B7355" stroke-width="1"/><line x1="650" y1="217.5" x2="675" y2="209.5" stroke="#8B7355" stroke-width="1"/><line x1="675" y1="208.75" x2="700" y2="200.75" stroke="#8B7355" stroke-width="1"/><g transform="scale(0.5)">
    <!-- body -->
    <ellipse cx="250" cy="347.5" rx="14" ry="20" fill="#E74C3C"/>
    <!-- legs -->
    <line x1="243" y1="364.5" x2="241" y2="380.5" stroke="#E74C3C" stroke-width="5" stroke-linecap="round"/>
    <line x1="257" y1="364.5" x2="259" y2="380.5" stroke="#E74C3C" stroke-width="5" stroke-linecap="round"/>
    <!-- arms -->
    <line x1="238" y1="337.5" x2="232" y2="352.5" stroke="#E74C3C" stroke-width="5" stroke-linecap="round"/><line x1="262" y1="337.5" x2="268" y2="352.5" stroke="#E74C3C" stroke-width="5" stroke-linecap="round"/>
    <!-- head -->
    <circle cx="250" cy="312.5" r="16" fill="#FFEAA7"/>
    <!-- hair -->
    <ellipse cx="250" cy="300.5" rx="16" ry="8" fill="#333"/>
    <circle cx="244" cy="307.5" r="2.5" fill="#333"/><circle cx="256" cy="307.5" r="2.5" fill="#333"/>
    <path d="M245,315.5 Q250,321.5 255,315.5" fill="none" stroke="#333" stroke-width="1.5"/>
    <!-- blush -->
    <circle cx="240" cy="313.5" r="3" fill="#FF9999" opacity="0.4"/>
    <circle cx="260" cy="313.5" r="3" fill="#FF9999" opacity="0.4"/>
  </g><g transform="scale(0.5)">
    <!-- body -->
    <ellipse cx="320" cy="323" rx="14" ry="20" fill="#3498DB"/>
    <!-- legs -->
    <line x1="313" y1="340" x2="311" y2="356" stroke="#3498DB" stroke-width="5" stroke-linecap="round"/>
    <line x1="327" y1="340" x2="329" y2="356" stroke="#3498DB" stroke-width="5" stroke-linecap="round"/>
    <!-- arms -->
    <line x1="308" y1="313" x2="302" y2="328" stroke="#3498DB" stroke-width="5" stroke-linecap="round"/><line x1="332" y1="313" x2="338" y2="328" stroke="#3498DB" stroke-width="5" stroke-linecap="round"/>
    <!-- head -->
    <circle cx="320" cy="288" r="16" fill="#FFEAA7"/>
    <!-- hair -->
    <ellipse cx="320" cy="276" rx="16" ry="8" fill="#333"/>
    <circle cx="314" cy="283" r="2.5" fill="#333"/><circle cx="326" cy="283" r="2.5" fill="#333"/>
    <path d="M315,291 Q320,297 325,291" fill="none" stroke="#333" stroke-width="1.5"/>
    <!-- blush -->
    <circle cx="310" cy="289" r="3" fill="#FF9999" opacity="0.4"/>
    <circle cx="330" cy="289" r="3" fill="#FF9999" opacity="0.4"/>
  </g><g transform="scale(0.5)">
    <!-- body -->
    <ellipse cx="390" cy="298.5" rx="14" ry="20" fill="#2ECC71"/>
    <!-- legs -->
    <line x1="383" y1="315.5" x2="381" y2="331.5" stroke="#2ECC71" stroke-width="5" stroke-linecap="round"/>
    <line x1="397" y1="315.5" x2="399" y2="331.5" stroke="#2ECC71" stroke-width="5" stroke-linecap="round"/>
    <!-- arms -->
    <line x1="378" y1="288.5" x2="372" y2="303.5" stroke="#2ECC71" stroke-width="5" stroke-linecap="round"/><line x1="402" y1="288.5" x2="408" y2="303.5" stroke="#2ECC71" stroke-width="5" stroke-linecap="round"/>
    <!-- head -->
    <circle cx="390" cy="263.5" r="16" fill="#FFEAA7"/>
    <!-- hair -->
    <ellipse cx="390" cy="251.5" rx="16" ry="8" fill="#333"/>
    <circle cx="384" cy="258.5" r="2.5" fill="#333"/><circle cx="396" cy="258.5" r="2.5" fill="#333"/>
    <path d="M385,266.5 Q390,272.5 395,266.5" fill="none" stroke="#333" stroke-width="1.5"/>
    <!-- blush -->
    <circle cx="380" cy="264.5" r="3" fill="#FF9999" opacity="0.4"/>
    <circle cx="400" cy="264.5" r="3" fill="#FF9999" opacity="0.4"/>
  </g><g transform="scale(0.5)">
    <!-- body -->
    <ellipse cx="460" cy="274" rx="14" ry="20" fill="#F39C12"/>
    <!-- legs -->
    <line x1="453" y1="291" x2="451" y2="307" stroke="#F39C12" stroke-width="5" stroke-linecap="round"/>
    <line x1="467" y1="291" x2="469" y2="307" stroke="#F39C12" stroke-width="5" stroke-linecap="round"/>
    <!-- arms -->
    <line x1="448" y1="264" x2="442" y2="279" stroke="#F39C12" stroke-width="5" stroke-linecap="round"/><line x1="472" y1="264" x2="478" y2="279" stroke="#F39C12" stroke-width="5" stroke-linecap="round"/>
    <!-- head -->
    <circle cx="460" cy="239" r="16" fill="#FFEAA7"/>
    <!-- hair -->
    <ellipse cx="460" cy="227" rx="16" ry="8" fill="#333"/>
    <circle cx="454" cy="234" r="2.5" fill="#333"/><circle cx="466" cy="234" r="2.5" fill="#333"/>
    <path d="M455,242 Q460,248 465,242" fill="none" stroke="#333" stroke-width="1.5"/>
    <!-- blush -->
    <circle cx="450" cy="240" r="3" fill="#FF9999" opacity="0.4"/>
    <circle cx="470" cy="240" r="3" fill="#FF9999" opacity="0.4"/>
  </g><g transform="translate(200, 370) rotate(15)">
      <ellipse cx="0" cy="0" rx="12" ry="8" fill="#9B59B6"/>
      <circle cx="-14" cy="-4" r="9" fill="#FFEAA7"/>
      <line x1="-18" y1="-7" x2="-14" y2="-4" stroke="#333" stroke-width="1.2"/>
      <line x1="-14" y1="-7" x2="-18" y2="-4" stroke="#333" stroke-width="1.2"/>
      <line x1="-12" y1="-7" x2="-8" y2="-4" stroke="#333" stroke-width="1.2"/>
      <line x1="-8" y1="-7" x2="-12" y2="-4" stroke="#333" stroke-width="1.2"/>
      <ellipse cx="-14" cy="3" rx="3" ry="4" fill="#E74C3C"/>
      <circle cx="-5" cy="-10" r="2" fill="#74B9FF"/>
      <circle cx="-20" cy="-8" r="1.5" fill="#74B9FF"/>
    </g><g transform="translate(634.5691316198695,119.72510041749226) scale(0.6149693224435768)">
    <circle cx="0" cy="0" r="3" fill="#FFB7C5" opacity="0.8"/>
    <circle cx="4" cy="-3" r="2.5" fill="#FFB7C5" opacity="0.7"/>
    <circle cx="-3" cy="-4" r="2" fill="#FFCDD2" opacity="0.6"/>
  </g><g transform="translate(627.0765264405568,72.58149445857116) scale(0.6271365107058124)">
    <circle cx="0" cy="0" r="3" fill="#FFB7C5" opacity="0.8"/>
    <circle cx="4" cy="-3" r="2.5" fill="#FFB7C5" opacity="0.7"/>
    <circle cx="-3" cy="-4" r="2" fill="#FFCDD2" opacity="0.6"/>
  </g><g transform="translate(548.9414165489452,212.4906948872344) scale(0.728903812547387)">
    <circle cx="0" cy="0" r="3" fill="#FFB7C5" opacity="0.8"/>
    <circle cx="4" cy="-3" r="2.5" fill="#FFB7C5" opacity="0.7"/>
    <circle cx="-3" cy="-4" r="2" fill="#FFCDD2" opacity="0.6"/>
  </g><g transform="translate(650.0226888916283,100.92390919515769) scale(0.9597026640965199)">
    <circle cx="0" cy="0" r="3" fill="#FFB7C5" opacity="0.8"/>
    <circle cx="4" cy="-3" r="2.5" fill="#FFB7C5" opacity="0.7"/>
    <circle cx="-3" cy="-4" r="2" fill="#FFCDD2" opacity="0.6"/>
  </g><g transform="translate(7.7164391654370945,33.40869921309656) scale(0.501257982981776)">
    <circle cx="0" cy="0" r="3" fill="#FFB7C5" opacity="0.8"/>
    <circle cx="4" cy="-3" r="2.5" fill="#FFB7C5" opacity="0.7"/>
    <circle cx="-3" cy="-4" r="2" fill="#FFCDD2" opacity="0.6"/>
  </g><g transform="translate(567.7886493606557,255.7296471781133) scale(0.8012272957500686)">
    <circle cx="0" cy="0" r="3" fill="#FFB7C5" opacity="0.8"/>
    <circle cx="4" cy="-3" r="2.5" fill="#FFB7C5" opacity="0.7"/>
    <circle cx="-3" cy="-4" r="2" fill="#FFCDD2" opacity="0.6"/>
  </g><g transform="translate(130.2420946377432,62.55961842824035) scale(0.724597973011964)">
    <circle cx="0" cy="0" r="3" fill="#FFB7C5" opacity="0.8"/>
    <circle cx="4" cy="-3" r="2.5" fill="#FFB7C5" opacity="0.7"/>
    <circle cx="-3" cy="-4" r="2" fill="#FFCDD2" opacity="0.6"/>
  </g><g transform="translate(589.6553053234464,292.96387944231265) scale(0.5387407656254396)">
    <circle cx="0" cy="0" r="3" fill="#FFB7C5" opacity="0.8"/>
    <circle cx="4" cy="-3" r="2.5" fill="#FFB7C5" opacity="0.7"/>
    <circle cx="-3" cy="-4" r="2" fill="#FFCDD2" opacity="0.6"/>
  </g><g transform="translate(428.57296910376937,238.18926122179894) scale(0.41474894998173367)">
    <circle cx="0" cy="0" r="3" fill="#FFB7C5" opacity="0.8"/>
    <circle cx="4" cy="-3" r="2.5" fill="#FFB7C5" opacity="0.7"/>
    <circle cx="-3" cy="-4" r="2" fill="#FFCDD2" opacity="0.6"/>
  </g><g transform="translate(707.4425873958866,125.77037431427675) scale(0.975870739443908)">
    <circle cx="0" cy="0" r="3" fill="#FFB7C5" opacity="0.8"/>
    <circle cx="4" cy="-3" r="2.5" fill="#FFB7C5" opacity="0.7"/>
    <circle cx="-3" cy="-4" r="2" fill="#FFCDD2" opacity="0.6"/>
  </g><g transform="translate(464.582160971399,106.12554190246937) scale(0.6426173684090182)">
    <circle cx="0" cy="0" r="3" fill="#FFB7C5" opacity="0.8"/>
    <circle cx="4" cy="-3" r="2.5" fill="#FFB7C5" opacity="0.7"/>
    <circle cx="-3" cy="-4" r="2" fill="#FFCDD2" opacity="0.6"/>
  </g><g transform="translate(365.2788437561478,49.01626930156928) scale(0.4872635938355949)">
    <circle cx="0" cy="0" r="3" fill="#FFB7C5" opacity="0.8"/>
    <circle cx="4" cy="-3" r="2.5" fill="#FFB7C5" opacity="0.7"/>
    <circle cx="-3" cy="-4" r="2" fill="#FFCDD2" opacity="0.6"/>
  </g><g transform="translate(56.83146669745591,286.1970220469859) scale(0.4508780683300191)">
    <circle cx="0" cy="0" r="3" fill="#FFB7C5" opacity="0.8"/>
    <circle cx="4" cy="-3" r="2.5" fill="#FFB7C5" opacity="0.7"/>
    <circle cx="-3" cy="-4" r="2" fill="#FFCDD2" opacity="0.6"/>
  </g><g transform="translate(727.604869509518,24.34762404098195) scale(0.805341027923473)">
    <circle cx="0" cy="0" r="3" fill="#FFB7C5" opacity="0.8"/>
    <circle cx="4" cy="-3" r="2.5" fill="#FFB7C5" opacity="0.7"/>
    <circle cx="-3" cy="-4" r="2" fill="#FFCDD2" opacity="0.6"/>
  </g><g transform="translate(242.619415221092,229.90912721223194) scale(0.4768082853422642)">
    <circle cx="0" cy="0" r="3" fill="#FFB7C5" opacity="0.8"/>
    <circle cx="4" cy="-3" r="2.5" fill="#FFB7C5" opacity="0.7"/>
    <circle cx="-3" cy="-4" r="2" fill="#FFCDD2" opacity="0.6"/>
  </g><g transform="translate(746.7167891657566,51.050015583440015) scale(0.4765569613650854)">
    <circle cx="0" cy="0" r="3" fill="#FFB7C5" opacity="0.8"/>
    <circle cx="4" cy="-3" r="2.5" fill="#FFB7C5" opacity="0.7"/>
    <circle cx="-3" cy="-4" r="2" fill="#FFCDD2" opacity="0.6"/>
  </g><g transform="translate(7.842067524947627,186.1647154606083) scale(0.7756516147680619)">
    <circle cx="0" cy="0" r="3" fill="#FFB7C5" opacity="0.8"/>
    <circle cx="4" cy="-3" r="2.5" fill="#FFB7C5" opacity="0.7"/>
    <circle cx="-3" cy="-4" r="2" fill="#FFCDD2" opacity="0.6"/>
  </g><g transform="translate(57.80021432656346,127.48993173467478) scale(0.5815370704290135)">
    <circle cx="0" cy="0" r="3" fill="#FFB7C5" opacity="0.8"/>
    <circle cx="4" cy="-3" r="2.5" fill="#FFB7C5" opacity="0.7"/>
    <circle cx="-3" cy="-4" r="2" fill="#FFCDD2" opacity="0.6"/>
  </g><g transform="translate(235.60260938635196,75.19960192497267) scale(0.9596238062369713)">
    <circle cx="0" cy="0" r="3" fill="#FFB7C5" opacity="0.8"/>
    <circle cx="4" cy="-3" r="2.5" fill="#FFB7C5" opacity="0.7"/>
    <circle cx="-3" cy="-4" r="2" fill="#FFCDD2" opacity="0.6"/>
  </g><g transform="translate(139.23964588989887,218.15695060185703) scale(0.5474950783758992)">
    <circle cx="0" cy="0" r="3" fill="#FFB7C5" opacity="0.8"/>
    <circle cx="4" cy="-3" r="2.5" fill="#FFB7C5" opacity="0.7"/>
    <circle cx="-3" cy="-4" r="2" fill="#FFCDD2" opacity="0.6"/>
  </g><g>
    <rect x="150" y="295" width="100" height="25" rx="10" fill="#fff" stroke="#333" stroke-width="1.5"/>
    <polygon points="195,320 205,320 200,330" fill="#fff"/>
    <text x="200" y="310.5" text-anchor="middle" font-size="9" font-family="Arial, sans-serif" fill="#333">Can't...go...on...</text>
  </g>
</svg>