<svg xmlns="http://www.w3.org/2000/svg" viewBox="0 0 800 500" width="800" height="500">
  <defs>
    <style>
      text { font-family: 'Arial', 'Helvetica', sans-serif; }
    </style>
  </defs>
  <rect width="800" height="500" fill="#87CEEB"/>
  <g transform="translate(100,40) scale(1)">
    <ellipse cx="0" cy="0" rx="40" ry="25" fill="#fff" opacity="0.9"/>
    <ellipse cx="-30" cy="5" rx="25" ry="18" fill="#fff" opacity="0.9"/>
    <ellipse cx="30" cy="5" rx="28" ry="20" fill="#fff" opacity="0.9"/>
    <ellipse cx="15" cy="-10" rx="20" ry="15" fill="#fff" opacity="0.9"/>
  </g><circle cx="680" cy="55" r="30" fill="#FFD93D"/>
    <g stroke="#FFD93D" stroke-width="3" fill="none">
      <line x1="718" y1="55" x2="730" y2="55"/><line x1="706.8700576850888" y1="81.8700576850888" x2="715.3553390593274" y2="90.35533905932738"/><line x1="680" y1="93" x2="680" y2="105"/><line x1="653.1299423149112" y1="81.87005768508881" x2="644.6446609406727" y2="90.35533905932738"/><line x1="642" y1="55.00000000000001" x2="630" y2="55.00000000000001"/><line x1="653.1299423149112" y1="28.129942314911197" x2="644.6446609406726" y2="19.64466094067263"/><line x1="680" y1="17" x2="680" y2="5"/><line x1="706.8700576850888" y1="28.129942314911187" x2="715.3553390593273" y2="19.644660940672615"/>
    </g><g transform="translate(550, 180)">
      <rect x="-50" y="0" width="100" height="120" fill="#D5DBDB" rx="3"/>
      <rect x="-60" y="-10" width="120" height="15" rx="3" fill="#AEB6BF"/>
      <rect x="-40" y="10" width="12" height="15" rx="1" fill="#85C1E9"/><rect x="-20" y="10" width="12" height="15" rx="1" fill="#85C1E9"/><rect x="0" y="10" width="12" height="15" rx="1" fill="#85C1E9"/><rect x="20" y="10" width="12" height="15" rx="1" fill="#85C1E9"/><rect x="40" y="10" width="12" height="15" rx="1" fill="#85C1E9"/><rect x="-40" y="35" width="12" height="15" rx="1" fill="#85C1E9"/><rect x="-20" y="35" width="12" height="15" rx="1" fill="#85C1E9"/><rect x="0" y="35" width="12" height="15" rx="1" fill="#85C1E9"/><rect x="20" y="35" width="12" height="15" rx="1" fill="#85C1E9"/><rect x="40" y="35" width="12" height="15" rx="1" fill="#85C1E9"/><rect x="-40" y="60" width="12" height="15" rx="1" fill="#85C1E9"/><rect x="-20" y="60" width="12" height="15" rx="1" fill="#85C1E9"/><rect x="0" y="60" width="12" height="15" rx="1" fill="#85C1E9"/><rect x="20" y="60" width="12" height="15" rx="1" fill="#85C1E9"/><rect x="40" y="60" width="12" height="15" rx="1" fill="#85C1E9"/><rect x="-40" y="85" width="12" height="15" rx="1" fill="#85C1E9"/><rect x="-20" y="85" width="12" height="15" rx="1" fill="#85C1E9"/><rect x="0" y="85" width="12" height="15" rx="1" fill="#85C1E9"/><rect x="20" y="85" width="12" height="15" rx="1" fill="#85C1E9"/><rect x="40" y="85" width="12" height="15" rx="1" fill="#85C1E9"/>
    </g><rect x="0" y="300" width="800" height="200" fill="#5DADE2"/>
    <path d="M0,315 Q50,308 100,315 Q150,322 200,315" fill="none" stroke="#fff" stroke-width="1.5" opacity="0.5"/><path d="M200,315 Q250,308 300,315 Q350,322 400,315" fill="none" stroke="#fff" stroke-width="1.5" opacity="0.5"/><path d="M400,315 Q450,308 500,315 Q550,322 600,315" fill="none" stroke="#fff" stroke-width="1.5" opacity="0.5"/><path d="M600,315 Q650,308 700,315 Q750,322 800,315" fill="none" stroke="#fff" stroke-width="1.5" opacity="0.5"/><path d="M800,315 Q850,308 900,315 Q950,322 1000,315" fill="none" stroke="#fff" stroke-width="1.5" opacity="0.5"/><ellipse cx="200" cy="300" rx="200" ry="50" fill="#6C9A8B"/><ellipse cx="700" cy="300" rx="150" ry="40" fill="#5D8A7B"/><g transform="scale(0.7)">
    <ellipse cx="200" cy="368" rx="14" ry="10" fill="#F9CA24"/>
    <circle cx="198" cy="358" r="10" fill="#F9CA24"/>
    <circle cx="196" cy="355" r="2" fill="#333"/>
    <ellipse cx="188" cy="360" rx="6" ry="3" fill="#FF9F43"/>
    
  </g><g transform="scale(0.7)">
    <ellipse cx="250" cy="363" rx="14" ry="10" fill="#F9CA24"/>
    <circle cx="248" cy="353" r="10" fill="#F9CA24"/>
    <circle cx="246" cy="350" r="2" fill="#333"/>
    <ellipse cx="238" cy="355" rx="6" ry="3" fill="#FF9F43"/>
    
  </g><g transform="scale(0.7)">
    <ellipse cx="300" cy="368" rx="14" ry="10" fill="#F9CA24"/>
    <circle cx="298" cy="358" r="10" fill="#F9CA24"/>
    <circle cx="296" cy="355" r="2" fill="#333"/>
    <ellipse cx="288" cy="360" rx="6" ry="3" fill="#FF9F43"/>
    
  </g><g transform="scale(0.7)">
    <ellipse cx="350" cy="363" rx="14" ry="10" fill="#F9CA24"/>
    <circle cx="348" cy="353" r="10" fill="#F9CA24"/>
    <circle cx="346" cy="350" r="2" fill="#333"/>
    <ellipse cx="338" cy="355" rx="6" ry="3" fill="#FF9F43"/>
    
  </g><g transform="scale(0.7)">
    <ellipse cx="400" cy="368" rx="14" ry="10" fill="#F9CA24"/>
    <circle cx="398" cy="358" r="10" fill="#F9CA24"/>
    <circle cx="396" cy="355" r="2" fill="#333"/>
    <ellipse cx="388" cy="360" rx="6" ry="3" fill="#FF9F43"/>
    
  </g><g transform="scale(0.7)">
    <ellipse cx="450" cy="363" rx="14" ry="10" fill="#F9CA24"/>
    <circle cx="448" cy="353" r="10" fill="#F9CA24"/>
    <circle cx="446" cy="350" r="2" fill="#333"/>
    <ellipse cx="438" cy="355" rx="6" ry="3" fill="#FF9F43"/>
    
  </g><g transform="translate(350, 400) scale(-0.7, 0.7)">
      <ellipse cx="0" cy="8" rx="14" ry="10" fill="#F9CA24"/>
      <circle cx="-2" cy="-2" r="10" fill="#F9CA24"/>
      <circle cx="-5" cy="-4" r="2" fill="#333"/>
      <ellipse cx="-12" cy="0" rx="6" ry="3" fill="#FF9F43"/>
    </g><g>
    <rect x="300" y="348" width="100" height="22" rx="10" fill="#fff" stroke="#333" stroke-width="1.5"/>
    <polygon points="345,370 355,370 350,380" fill="#fff"/>
    <text x="350" y="362" text-anchor="middle" font-size="9" font-family="Arial, sans-serif" fill="#333">Wait, which way?</text>
  </g><text x="360" y="385" font-size="18" fill="#E74C3C" font-weight="bold">?</text>
</svg>