<svg xmlns="http://www.w3.org/2000/svg" viewBox="0 0 800 500" width="800" height="500">
  <defs>
    <style>
      text { font-family: 'Arial', 'Helvetica', sans-serif; }
    </style>
  </defs>
  <rect width="800" height="500" fill="#87CEEB"/>
  <rect x="0" y="350" width="800" height="150" fill="#F5DEB3"/><rect x="0" y="250" width="800" height="250" fill="#5DADE2"/>
    <path d="M0,265 Q50,258 100,265 Q150,272 200,265" fill="none" stroke="#fff" stroke-width="1.5" opacity="0.5"/><path d="M200,265 Q250,258 300,265 Q350,272 400,265" fill="none" stroke="#fff" stroke-width="1.5" opacity="0.5"/><path d="M400,265 Q450,258 500,265 Q550,272 600,265" fill="none" stroke="#fff" stroke-width="1.5" opacity="0.5"/><path d="M600,265 Q650,258 700,265 Q750,272 800,265" fill="none" stroke="#fff" stroke-width="1.5" opacity="0.5"/><path d="M800,265 Q850,258 900,265 Q950,272 1000,265" fill="none" stroke="#fff" stroke-width="1.5" opacity="0.5"/><rect x="0" y="340" width="800" height="20" fill="#EAD8B1"/><g transform="translate(400, 260)">
      <rect x="-40" y="-50" width="80" height="80" fill="#ECF0F1" stroke="#BDC3C7" stroke-width="2"/>
      <rect x="-35" y="-45" width="30" height="35" rx="1" fill="#85C1E9"/>
      <rect x="0" y="-45" width="30" height="35" rx="1" fill="#85C1E9"/>
      <rect x="-10" y="0" width="20" height="30" rx="2" fill="#8B4513"/>
      <text x="0" y="-55" text-anchor="middle" font-size="8" fill="#333">LIBRARY</text>
    </g><g transform="translate(400,195) scale(1)">
    <ellipse cx="0" cy="0" rx="10" ry="8" fill="#ECF0F1"/>
    <circle cx="-7" cy="-5" r="6" fill="#ECF0F1"/>
    <circle cx="-5" cy="-6" r="1.5" fill="#333"/>
    <polygon points="-13,-5 -18,-3 -13,-2" fill="#FF6B6B"/>
    <path d="M5,-3 Q12,-8 8,2" fill="#ECF0F1" stroke="#ECF0F1" stroke-width="1"/>
  </g><g transform="translate(395, 195)">
      <rect x="5" y="-5" width="12" height="8" rx="1" fill="#E74C3C" transform="rotate(-10)"/>
    </g><g transform="scale(0.5)">
    <!-- body -->
    <ellipse cx="350" cy="310" rx="14" ry="20" fill="#E74C3C"/>
    <!-- legs -->
    <line x1="343" y1="327" x2="341" y2="343" stroke="#E74C3C" stroke-width="5" stroke-linecap="round"/>
    <line x1="357" y1="327" x2="359" y2="343" stroke="#E74C3C" stroke-width="5" stroke-linecap="round"/>
    <!-- arms -->
    <line x1="338" y1="300" x2="332" y2="315" stroke="#E74C3C" stroke-width="5" stroke-linecap="round"/><line x1="362" y1="300" x2="368" y2="315" stroke="#E74C3C" stroke-width="5" stroke-linecap="round"/>
    <!-- head -->
    <circle cx="350" cy="275" r="16" fill="#FFEAA7"/>
    <!-- hair -->
    <ellipse cx="350" cy="263" rx="16" ry="8" fill="#333"/>
    <circle cx="344" cy="270" r="2.5" fill="#333"/><circle cx="356" cy="270" r="2.5" fill="#333"/>
    <path d="M345,278 Q350,284 355,278" fill="none" stroke="#333" stroke-width="1.5"/>
    <!-- blush -->
    <circle cx="340" cy="276" r="3" fill="#FF9999" opacity="0.4"/>
    <circle cx="360" cy="276" r="3" fill="#FF9999" opacity="0.4"/>
  </g><rect x="355" y="278" width="4" height="7" rx="1" fill="#333"/><g transform="scale(0.5)">
    <!-- body -->
    <ellipse cx="320" cy="310" rx="14" ry="20" fill="#3498DB"/>
    <!-- legs -->
    <line x1="313" y1="327" x2="311" y2="343" stroke="#3498DB" stroke-width="5" stroke-linecap="round"/>
    <line x1="327" y1="327" x2="329" y2="343" stroke="#3498DB" stroke-width="5" stroke-linecap="round"/>
    <!-- arms -->
    <line x1="308" y1="300" x2="302" y2="315" stroke="#3498DB" stroke-width="5" stroke-linecap="round"/><line x1="332" y1="300" x2="338" y2="315" stroke="#3498DB" stroke-width="5" stroke-linecap="round"/>
    <!-- head -->
    <circle cx="320" cy="275" r="16" fill="#FFEAA7"/>
    <!-- hair -->
    <ellipse cx="320" cy="263" rx="16" ry="8" fill="#333"/>
    <circle cx="314" cy="270" r="2.5" fill="#333"/><circle cx="326" cy="270" r="2.5" fill="#333"/>
    <path d="M315,278 Q320,284 325,278" fill="none" stroke="#333" stroke-width="1.5"/>
    <!-- blush -->
    <circle cx="310" cy="276" r="3" fill="#FF9999" opacity="0.4"/>
    <circle cx="330" cy="276" r="3" fill="#FF9999" opacity="0.4"/>
  </g><rect x="325" y="278" width="4" height="7" rx="1" fill="#333"/><g transform="scale(0.5)">
    <!-- body -->
    <ellipse cx="290" cy="310" rx="14" ry="20" fill="#2ECC71"/>
    <!-- legs -->
    <line x1="283" y1="327" x2="281" y2="343" stroke="#2ECC71" stroke-width="5" stroke-linecap="round"/>
    <line x1="297" y1="327" x2="299" y2="343" stroke="#2ECC71" stroke-width="5" stroke-linecap="round"/>
    <!-- arms -->
    <line x1="278" y1="300" x2="272" y2="315" stroke="#2ECC71" stroke-width="5" stroke-linecap="round"/><line x1="302" y1="300" x2="308" y2="315" stroke="#2ECC71" stroke-width="5" stroke-linecap="round"/>
    <!-- head -->
    <circle cx="290" cy="275" r="16" fill="#FFEAA7"/>
    <!-- hair -->
    <ellipse cx="290" cy="263" rx="16" ry="8" fill="#333"/>
    <circle cx="284" cy="270" r="2.5" fill="#333"/><circle cx="296" cy="270" r="2.5" fill="#333"/>
    <path d="M285,278 Q290,284 295,278" fill="none" stroke="#333" stroke-width="1.5"/>
    <!-- blush -->
    <circle cx="280" cy="276" r="3" fill="#FF9999" opacity="0.4"/>
    <circle cx="300" cy="276" r="3" fill="#FF9999" opacity="0.4"/>
  </g><rect x="295" y="278" width="4" height="7" rx="1" fill="#333"/><g transform="scale(0.5)">
    <!-- body -->
    <ellipse cx="260" cy="310" rx="14" ry="20" fill="#F39C12"/>
    <!-- legs -->
    <line x1="253" y1="327" x2="251" y2="343" stroke="#F39C12" stroke-width="5" stroke-linecap="round"/>
    <line x1="267" y1="327" x2="269" y2="343" stroke="#F39C12" stroke-width="5" stroke-linecap="round"/>
    <!-- arms -->
    <line x1="248" y1="300" x2="242" y2="315" stroke="#F39C12" stroke-width="5" stroke-linecap="round"/><line x1="272" y1="300" x2="278" y2="315" stroke="#F39C12" stroke-width="5" stroke-linecap="round"/>
    <!-- head -->
    <circle cx="260" cy="275" r="16" fill="#FFEAA7"/>
    <!-- hair -->
    <ellipse cx="260" cy="263" rx="16" ry="8" fill="#333"/>
    <circle cx="254" cy="270" r="2.5" fill="#333"/><circle cx="266" cy="270" r="2.5" fill="#333"/>
    <path d="M255,278 Q260,284 265,278" fill="none" stroke="#333" stroke-width="1.5"/>
    <!-- blush -->
    <circle cx="250" cy="276" r="3" fill="#FF9999" opacity="0.4"/>
    <circle cx="270" cy="276" r="3" fill="#FF9999" opacity="0.4"/>
  </g><rect x="265" y="278" width="4" height="7" rx="1" fill="#333"/><g transform="scale(0.5)">
    <!-- body -->
    <ellipse cx="230" cy="310" rx="14" ry="20" fill="#9B59B6"/>
    <!-- legs -->
    <line x1="223" y1="327" x2="221" y2="343" stroke="#9B59B6" stroke-width="5" stroke-linecap="round"/>
    <line x1="237" y1="327" x2="239" y2="343" stroke="#9B59B6" stroke-width="5" stroke-linecap="round"/>
    <!-- arms -->
    <line x1="218" y1="300" x2="212" y2="315" stroke="#9B59B6" stroke-width="5" stroke-linecap="round"/><line x1="242" y1="300" x2="248" y2="315" stroke="#9B59B6" stroke-width="5" stroke-linecap="round"/>
    <!-- head -->
    <circle cx="230" cy="275" r="16" fill="#FFEAA7"/>
    <!-- hair -->
    <ellipse cx="230" cy="263" rx="16" ry="8" fill="#333"/>
    <circle cx="224" cy="270" r="2.5" fill="#333"/><circle cx="236" cy="270" r="2.5" fill="#333"/>
    <path d="M225,278 Q230,284 235,278" fill="none" stroke="#333" stroke-width="1.5"/>
    <!-- blush -->
    <circle cx="220" cy="276" r="3" fill="#FF9999" opacity="0.4"/>
    <circle cx="240" cy="276" r="3" fill="#FF9999" opacity="0.4"/>
  </g><rect x="235" y="278" width="4" height="7" rx="1" fill="#333"/><g transform="scale(0.5)">
    <!-- body -->
    <ellipse cx="200" cy="310" rx="14" ry="20" fill="#E91E63"/>
    <!-- legs -->
    <line x1="193" y1="327" x2="191" y2="343" stroke="#E91E63" stroke-width="5" stroke-linecap="round"/>
    <line x1="207" y1="327" x2="209" y2="343" stroke="#E91E63" stroke-width="5" stroke-linecap="round"/>
    <!-- arms -->
    <line x1="188" y1="300" x2="182" y2="315" stroke="#E91E63" stroke-width="5" stroke-linecap="round"/><line x1="212" y1="300" x2="218" y2="315" stroke="#E91E63" stroke-width="5" stroke-linecap="round"/>
    <!-- head -->
    <circle cx="200" cy="275" r="16" fill="#FFEAA7"/>
    <!-- hair -->
    <ellipse cx="200" cy="263" rx="16" ry="8" fill="#333"/>
    <circle cx="194" cy="270" r="2.5" fill="#333"/><circle cx="206" cy="270" r="2.5" fill="#333"/>
    <path d="M195,278 Q200,284 205,278" fill="none" stroke="#333" stroke-width="1.5"/>
    <!-- blush -->
    <circle cx="190" cy="276" r="3" fill="#FF9999" opacity="0.4"/>
    <circle cx="210" cy="276" r="3" fill="#FF9999" opacity="0.4"/>
  </g><rect x="205" y="278" width="4" height="7" rx="1" fill="#333"/><g transform="scale(0.5)">
    <!-- body -->
    <ellipse cx="170" cy="310" rx="14" ry="20" fill="#1ABC9C"/>
    <!-- legs -->
    <line x1="163" y1="327" x2="161" y2="343" stroke="#1ABC9C" stroke-width="5" stroke-linecap="round"/>
    <line x1="177" y1="327" x2="179" y2="343" stroke="#1ABC9C" stroke-width="5" stroke-linecap="round"/>
    <!-- arms -->
    <line x1="158" y1="300" x2="152" y2="315" stroke="#1ABC9C" stroke-width="5" stroke-linecap="round"/><line x1="182" y1="300" x2="188" y2="315" stroke="#1ABC9C" stroke-width="5" stroke-linecap="round"/>
    <!-- head -->
    <circle cx="170" cy="275" r="16" fill="#FFEAA7"/>
    <!-- hair -->
    <ellipse cx="170" cy="263" rx="16" ry="8" fill="#333"/>
    <circle cx="164" cy="270" r="2.5" fill="#333"/><circle cx="176" cy="270" r="2.5" fill="#333"/>
    <path d="M165,278 Q170,284 175,278" fill="none" stroke="#333" stroke-width="1.5"/>
    <!-- blush -->
    <circle cx="160" cy="276" r="3" fill="#FF9999" opacity="0.4"/>
    <circle cx="180" cy="276" r="3" fill="#FF9999" opacity="0.4"/>
  </g><rect x="175" y="278" width="4" height="7" rx="1" fill="#333"/><g transform="scale(0.5)">
    <!-- body -->
    <ellipse cx="140" cy="310" rx="14" ry="20" fill="#E74C3C"/>
    <!-- legs -->
    <line x1="133" y1="327" x2="131" y2="343" stroke="#E74C3C" stroke-width="5" stroke-linecap="round"/>
    <line x1="147" y1="327" x2="149" y2="343" stroke="#E74C3C" stroke-width="5" stroke-linecap="round"/>
    <!-- arms -->
    <line x1="128" y1="300" x2="122" y2="315" stroke="#E74C3C" stroke-width="5" stroke-linecap="round"/><line x1="152" y1="300" x2="158" y2="315" stroke="#E74C3C" stroke-width="5" stroke-linecap="round"/>
    <!-- head -->
    <circle cx="140" cy="275" r="16" fill="#FFEAA7"/>
    <!-- hair -->
    <ellipse cx="140" cy="263" rx="16" ry="8" fill="#333"/>
    <circle cx="134" cy="270" r="2.5" fill="#333"/><circle cx="146" cy="270" r="2.5" fill="#333"/>
    <path d="M135,278 Q140,284 145,278" fill="none" stroke="#333" stroke-width="1.5"/>
    <!-- blush -->
    <circle cx="130" cy="276" r="3" fill="#FF9999" opacity="0.4"/>
    <circle cx="150" cy="276" r="3" fill="#FF9999" opacity="0.4"/>
  </g><rect x="145" y="278" width="4" height="7" rx="1" fill="#333"/><g transform="scale(0.5)">
    <!-- body -->
    <ellipse cx="110" cy="310" rx="14" ry="20" fill="#3498DB"/>
    <!-- legs -->
    <line x1="103" y1="327" x2="101" y2="343" stroke="#3498DB" stroke-width="5" stroke-linecap="round"/>
    <line x1="117" y1="327" x2="119" y2="343" stroke="#3498DB" stroke-width="5" stroke-linecap="round"/>
    <!-- arms -->
    <line x1="98" y1="300" x2="92" y2="315" stroke="#3498DB" stroke-width="5" stroke-linecap="round"/><line x1="122" y1="300" x2="128" y2="315" stroke="#3498DB" stroke-width="5" stroke-linecap="round"/>
    <!-- head -->
    <circle cx="110" cy="275" r="16" fill="#FFEAA7"/>
    <!-- hair -->
    <ellipse cx="110" cy="263" rx="16" ry="8" fill="#333"/>
    <circle cx="104" cy="270" r="2.5" fill="#333"/><circle cx="116" cy="270" r="2.5" fill="#333"/>
    <path d="M105,278 Q110,284 115,278" fill="none" stroke="#333" stroke-width="1.5"/>
    <!-- blush -->
    <circle cx="100" cy="276" r="3" fill="#FF9999" opacity="0.4"/>
    <circle cx="120" cy="276" r="3" fill="#FF9999" opacity="0.4"/>
  </g><rect x="115" y="278" width="4" height="7" rx="1" fill="#333"/><g transform="scale(0.5)">
    <!-- body -->
    <ellipse cx="80" cy="310" rx="14" ry="20" fill="#2ECC71"/>
    <!-- legs -->
    <line x1="73" y1="327" x2="71" y2="343" stroke="#2ECC71" stroke-width="5" stroke-linecap="round"/>
    <line x1="87" y1="327" x2="89" y2="343" stroke="#2ECC71" stroke-width="5" stroke-linecap="round"/>
    <!-- arms -->
    <line x1="68" y1="300" x2="62" y2="315" stroke="#2ECC71" stroke-width="5" stroke-linecap="round"/><line x1="92" y1="300" x2="98" y2="315" stroke="#2ECC71" stroke-width="5" stroke-linecap="round"/>
    <!-- head -->
    <circle cx="80" cy="275" r="16" fill="#FFEAA7"/>
    <!-- hair -->
    <ellipse cx="80" cy="263" rx="16" ry="8" fill="#333"/>
    <circle cx="74" cy="270" r="2.5" fill="#333"/><circle cx="86" cy="270" r="2.5" fill="#333"/>
    <path d="M75,278 Q80,284 85,278" fill="none" stroke="#333" stroke-width="1.5"/>
    <!-- blush -->
    <circle cx="70" cy="276" r="3" fill="#FF9999" opacity="0.4"/>
    <circle cx="90" cy="276" r="3" fill="#FF9999" opacity="0.4"/>
  </g><rect x="85" y="278" width="4" height="7" rx="1" fill="#333"/><text x="50" y="310" font-size="10" fill="#333">queue continues...</text>
</svg>