<svg xmlns="http://www.w3.org/2000/svg" viewBox="0 0 800 500" width="800" height="500">
  <defs>
    <style>
      text { font-family: 'Arial', 'Helvetica', sans-serif; }
    </style>
  </defs>
  <rect width="800" height="500" fill="#87CEEB"/>
  <g transform="translate(100,50) scale(0.7)">
    <ellipse cx="0" cy="0" rx="40" ry="25" fill="#fff" opacity="0.9"/>
    <ellipse cx="-30" cy="5" rx="25" ry="18" fill="#fff" opacity="0.9"/>
    <ellipse cx="30" cy="5" rx="28" ry="20" fill="#fff" opacity="0.9"/>
    <ellipse cx="15" cy="-10" rx="20" ry="15" fill="#fff" opacity="0.9"/>
  </g><circle cx="680" cy="55" r="30" fill="#FFD93D"/>
    <g stroke="#FFD93D" stroke-width="3" fill="none">
      <line x1="718" y1="55" x2="730" y2="55"/><line x1="706.8700576850888" y1="81.8700576850888" x2="715.3553390593274" y2="90.35533905932738"/><line x1="680" y1="93" x2="680" y2="105"/><line x1="653.1299423149112" y1="81.87005768508881" x2="644.6446609406727" y2="90.35533905932738"/><line x1="642" y1="55.00000000000001" x2="630" y2="55.00000000000001"/><line x1="653.1299423149112" y1="28.129942314911197" x2="644.6446609406726" y2="19.64466094067263"/><line x1="680" y1="17" x2="680" y2="5"/><line x1="706.8700576850888" y1="28.129942314911187" x2="715.3553390593273" y2="19.644660940672615"/>
    </g><line x1="60" y1="150" x2="60" y2="400" stroke="#F5F5DC" stroke-width="8"/><rect x="57" y="180" width="3" height="6" fill="#333" opacity="0.3"/><rect x="57" y="220" width="3" height="6" fill="#333" opacity="0.3"/><rect x="57" y="260" width="3" height="6" fill="#333" opacity="0.3"/><rect x="57" y="300" width="3" height="6" fill="#333" opacity="0.3"/><rect x="57" y="340" width="3" height="6" fill="#333" opacity="0.3"/><ellipse cx="60" cy="140" rx="30" ry="45" fill="#F9CA24" opacity="0.8"/><line x1="135" y1="150" x2="135" y2="400" stroke="#F5F5DC" stroke-width="8"/><rect x="132" y="180" width="3" height="6" fill="#333" opacity="0.3"/><rect x="132" y="220" width="3" height="6" fill="#333" opacity="0.3"/><rect x="132" y="260" width="3" height="6" fill="#333" opacity="0.3"/><rect x="132" y="300" width="3" height="6" fill="#333" opacity="0.3"/><rect x="132" y="340" width="3" height="6" fill="#333" opacity="0.3"/><ellipse cx="135" cy="140" rx="30" ry="45" fill="#F9CA24" opacity="0.8"/><line x1="210" y1="150" x2="210" y2="400" stroke="#F5F5DC" stroke-width="8"/><rect x="207" y="180" width="3" height="6" fill="#333" opacity="0.3"/><rect x="207" y="220" width="3" height="6" fill="#333" opacity="0.3"/><rect x="207" y="260" width="3" height="6" fill="#333" opacity="0.3"/><rect x="207" y="300" width="3" height="6" fill="#333" opacity="0.3"/><rect x="207" y="340" width="3" height="6" fill="#333" opacity="0.3"/><ellipse cx="210" cy="140" rx="30" ry="45" fill="#F9CA24" opacity="0.8"/><line x1="285" y1="150" x2="285" y2="400" stroke="#F5F5DC" stroke-width="8"/><rect x="282" y="180" width="3" height="6" fill="#333" opacity="0.3"/><rect x="282" y="220" width="3" height="6" fill="#333" opacity="0.3"/><rect x="282" y="260" width="3" height="6" fill="#333" opacity="0.3"/><rect x="282" y="300" width="3" height="6" fill="#333" opacity="0.3"/><rect x="282" y="340" width="3" height="6" fill="#333" opacity="0.3"/><ellipse cx="285" cy="140" rx="30" ry="45" fill="#F9CA24" opacity="0.8"/><line x1="360" y1="150" x2="360" y2="400" stroke="#F5F5DC" stroke-width="8"/><rect x="357" y="180" width="3" height="6" fill="#333" opacity="0.3"/><rect x="357" y="220" width="3" height="6" fill="#333" opacity="0.3"/><rect x="357" y="260" width="3" height="6" fill="#333" opacity="0.3"/><rect x="357" y="300" width="3" height="6" fill="#333" opacity="0.3"/><rect x="357" y="340" width="3" height="6" fill="#333" opacity="0.3"/><ellipse cx="360" cy="140" rx="30" ry="45" fill="#F9CA24" opacity="0.8"/><line x1="435" y1="150" x2="435" y2="400" stroke="#F5F5DC" stroke-width="8"/><rect x="432" y="180" width="3" height="6" fill="#333" opacity="0.3"/><rect x="432" y="220" width="3" height="6" fill="#333" opacity="0.3"/><rect x="432" y="260" width="3" height="6" fill="#333" opacity="0.3"/><rect x="432" y="300" width="3" height="6" fill="#333" opacity="0.3"/><rect x="432" y="340" width="3" height="6" fill="#333" opacity="0.3"/><ellipse cx="435" cy="140" rx="30" ry="45" fill="#F9CA24" opacity="0.8"/><line x1="510" y1="150" x2="510" y2="400" stroke="#F5F5DC" stroke-width="8"/><rect x="507" y="180" width="3" height="6" fill="#333" opacity="0.3"/><rect x="507" y="220" width="3" height="6" fill="#333" opacity="0.3"/><rect x="507" y="260" width="3" height="6" fill="#333" opacity="0.3"/><rect x="507" y="300" width="3" height="6" fill="#333" opacity="0.3"/><rect x="507" y="340" width="3" height="6" fill="#333" opacity="0.3"/><ellipse cx="510" cy="140" rx="30" ry="45" fill="#F9CA24" opacity="0.8"/><line x1="585" y1="150" x2="585" y2="400" stroke="#F5F5DC" stroke-width="8"/><rect x="582" y="180" width="3" height="6" fill="#333" opacity="0.3"/><rect x="582" y="220" width="3" height="6" fill="#333" opacity="0.3"/><rect x="582" y="260" width="3" height="6" fill="#333" opacity="0.3"/><rect x="582" y="300" width="3" height="6" fill="#333" opacity="0.3"/><rect x="582" y="340" width="3" height="6" fill="#333" opacity="0.3"/><ellipse cx="585" cy="140" rx="30" ry="45" fill="#F9CA24" opacity="0.8"/><line x1="660" y1="150" x2="660" y2="400" stroke="#F5F5DC" stroke-width="8"/><rect x="657" y="180" width="3" height="6" fill="#333" opacity="0.3"/><rect x="657" y="220" width="3" height="6" fill="#333" opacity="0.3"/><rect x="657" y="260" width="3" height="6" fill="#333" opacity="0.3"/><rect x="657" y="300" width="3" height="6" fill="#333" opacity="0.3"/><rect x="657" y="340" width="3" height="6" fill="#333" opacity="0.3"/><ellipse cx="660" cy="140" rx="30" ry="45" fill="#F9CA24" opacity="0.8"/><line x1="735" y1="150" x2="735" y2="400" stroke="#F5F5DC" stroke-width="8"/><rect x="732" y="180" width="3" height="6" fill="#333" opacity="0.3"/><rect x="732" y="220" width="3" height="6" fill="#333" opacity="0.3"/><rect x="732" y="260" width="3" height="6" fill="#333" opacity="0.3"/><rect x="732" y="300" width="3" height="6" fill="#333" opacity="0.3"/><rect x="732" y="340" width="3" height="6" fill="#333" opacity="0.3"/><ellipse cx="735" cy="140" rx="30" ry="45" fill="#F9CA24" opacity="0.8"/><rect x="0" y="380" width="800" height="120" fill="#8B7355" opacity="0.4"/><rect x="0" y="400" width="800" height="100" fill="#6B8E23" opacity="0.3"/><g transform="scale(0.7)">
    <!-- body -->
    <ellipse cx="350" cy="335" rx="14" ry="20" fill="#3498DB"/>
    <!-- legs -->
    <line x1="343" y1="352" x2="341" y2="368" stroke="#3498DB" stroke-width="5" stroke-linecap="round"/>
    <line x1="357" y1="352" x2="359" y2="368" stroke="#3498DB" stroke-width="5" stroke-linecap="round"/>
    <!-- arms -->
    <line x1="338" y1="325" x2="332" y2="340" stroke="#3498DB" stroke-width="5" stroke-linecap="round"/><line x1="362" y1="325" x2="368" y2="340" stroke="#3498DB" stroke-width="5" stroke-linecap="round"/>
    <!-- head -->
    <circle cx="350" cy="300" r="16" fill="#FFEAA7"/>
    <!-- hair -->
    <ellipse cx="350" cy="288" rx="16" ry="8" fill="#333"/>
    <circle cx="344" cy="295" r="2.5" fill="#333"/><circle cx="356" cy="295" r="2.5" fill="#333"/>
    <path d="M345,303 Q350,309 355,303" fill="none" stroke="#333" stroke-width="1.5"/>
    <!-- blush -->
    <circle cx="340" cy="301" r="3" fill="#FF9999" opacity="0.4"/>
    <circle cx="360" cy="301" r="3" fill="#FF9999" opacity="0.4"/>
  </g><g transform="translate(370, 300)">
      <rect x="0" y="-5" width="15" height="10" rx="2" fill="#333"/>
      <circle cx="7" cy="0" r="4" fill="#555"/>
      <circle cx="7" cy="0" r="2" fill="#85C1E9"/>
    </g><g transform="translate(500, 260)">
      <ellipse cx="0" cy="25" rx="30" ry="35" fill="#8B4513"/>
      <circle cx="0" cy="-8" r="22" fill="#8B4513"/>
      <circle cx="-18" cy="-22" r="8" fill="#8B4513"/>
      <circle cx="-18" cy="-22" r="5" fill="#A0522D"/>
      <circle cx="18" cy="-22" r="8" fill="#8B4513"/>
      <circle cx="18" cy="-22" r="5" fill="#A0522D"/>
      <ellipse cx="0" cy="0" rx="12" ry="10" fill="#A0522D"/>
      <circle cx="-8" cy="-10" r="3" fill="#333"/>
      <circle cx="8" cy="-10" r="3" fill="#333"/>
      <ellipse cx="0" cy="-2" rx="4" ry="3" fill="#333"/>
      <path d="M-6,5 Q0,10 6,5" fill="none" stroke="#333" stroke-width="1.5"/>
      <path d="M30,15 Q40,0 35,-15" fill="none" stroke="#8B4513" stroke-width="10" stroke-linecap="round"/>
      <circle cx="35" cy="-18" r="8" fill="#8B4513"/>
    </g><g>
    <rect x="467.5" y="180" width="65" height="25" rx="10" fill="#fff" stroke="#333" stroke-width="1.5"/>
    <polygon points="495,205 505,205 500,215" fill="#fff"/>
    <text x="500" y="195.83333333333334" text-anchor="middle" font-size="10" font-family="Arial, sans-serif" fill="#333">Hiii!</text>
  </g><g transform="translate(273.4054790300614,61.22023636725247) rotate(93.2054376969471)">
    <path d="M0,0 Q-6,-10 0,-16 Q6,-10 0,0" fill="#F9CA24" opacity="0.8"/>
    <line x1="0" y1="0" x2="0" y2="4" stroke="#8B7355" stroke-width="0.5"/>
  </g><g transform="translate(348.1455939772932,328.9865289687472) rotate(96.7201898190634)">
    <path d="M0,0 Q-6,-10 0,-16 Q6,-10 0,0" fill="#F9CA24" opacity="0.8"/>
    <line x1="0" y1="0" x2="0" y2="4" stroke="#8B7355" stroke-width="0.5"/>
  </g><g transform="translate(685.4700511542864,66.4600575692369) rotate(76.38347139790939)">
    <path d="M0,0 Q-6,-10 0,-16 Q6,-10 0,0" fill="#F9CA24" opacity="0.8"/>
    <line x1="0" y1="0" x2="0" y2="4" stroke="#8B7355" stroke-width="0.5"/>
  </g><g transform="translate(455.7031309374087,274.35920587211183) rotate(313.7677693271683)">
    <path d="M0,0 Q-6,-10 0,-16 Q6,-10 0,0" fill="#F9CA24" opacity="0.8"/>
    <line x1="0" y1="0" x2="0" y2="4" stroke="#8B7355" stroke-width="0.5"/>
  </g><g transform="translate(84.21168126082614,199.1860650440015) rotate(73.80024373487711)">
    <path d="M0,0 Q-6,-10 0,-16 Q6,-10 0,0" fill="#F9CA24" opacity="0.8"/>
    <line x1="0" y1="0" x2="0" y2="4" stroke="#8B7355" stroke-width="0.5"/>
  </g><g transform="translate(138.9299777363507,327.42577633361276) rotate(233.0876710514392)">
    <path d="M0,0 Q-6,-10 0,-16 Q6,-10 0,0" fill="#F9CA24" opacity="0.8"/>
    <line x1="0" y1="0" x2="0" y2="4" stroke="#8B7355" stroke-width="0.5"/>
  </g><g transform="translate(37.80625067588082,118.43647636664983) rotate(144.2713157867718)">
    <path d="M0,0 Q-6,-10 0,-16 Q6,-10 0,0" fill="#F9CA24" opacity="0.8"/>
    <line x1="0" y1="0" x2="0" y2="4" stroke="#8B7355" stroke-width="0.5"/>
  </g><g transform="translate(107.57889695972321,107.8377768815331) rotate(253.43569218199468)">
    <path d="M0,0 Q-6,-10 0,-16 Q6,-10 0,0" fill="#F9CA24" opacity="0.8"/>
    <line x1="0" y1="0" x2="0" y2="4" stroke="#8B7355" stroke-width="0.5"/>
  </g><g transform="translate(601.7138741654985,205.2003004730998) rotate(296.9394032371732)">
    <path d="M0,0 Q-6,-10 0,-16 Q6,-10 0,0" fill="#F9CA24" opacity="0.8"/>
    <line x1="0" y1="0" x2="0" y2="4" stroke="#8B7355" stroke-width="0.5"/>
  </g><g transform="translate(579.8420842106483,274.47943089079024) rotate(240.0618985748639)">
    <path d="M0,0 Q-6,-10 0,-16 Q6,-10 0,0" fill="#F9CA24" opacity="0.8"/>
    <line x1="0" y1="0" x2="0" y2="4" stroke="#8B7355" stroke-width="0.5"/>
  </g><g transform="translate(275.9367277716527,87.84581982033838) rotate(71.33853257952995)">
    <path d="M0,0 Q-6,-10 0,-16 Q6,-10 0,0" fill="#F9CA24" opacity="0.8"/>
    <line x1="0" y1="0" x2="0" y2="4" stroke="#8B7355" stroke-width="0.5"/>
  </g><g transform="translate(342.2440050023097,294.50304130156496) rotate(205.49279524057675)">
    <path d="M0,0 Q-6,-10 0,-16 Q6,-10 0,0" fill="#F9CA24" opacity="0.8"/>
    <line x1="0" y1="0" x2="0" y2="4" stroke="#8B7355" stroke-width="0.5"/>
  </g>
</svg>