<svg xmlns="http://www.w3.org/2000/svg" viewBox="0 0 800 500" width="800" height="500">
  <defs>
    <style>
      text { font-family: 'Arial', 'Helvetica', sans-serif; }
    </style>
  </defs>
  <rect width="800" height="500" fill="#87CEEB"/>
  <g transform="translate(600,40) scale(0.7)">
    <ellipse cx="0" cy="0" rx="40" ry="25" fill="#fff" opacity="0.9"/>
    <ellipse cx="-30" cy="5" rx="25" ry="18" fill="#fff" opacity="0.9"/>
    <ellipse cx="30" cy="5" rx="28" ry="20" fill="#fff" opacity="0.9"/>
    <ellipse cx="15" cy="-10" rx="20" ry="15" fill="#fff" opacity="0.9"/>
  </g><circle cx="680" cy="55" r="30" fill="#FFD93D"/>
    <g stroke="#FFD93D" stroke-width="3" fill="none">
      <line x1="718" y1="55" x2="730" y2="55"/><line x1="706.8700576850888" y1="81.8700576850888" x2="715.3553390593274" y2="90.35533905932738"/><line x1="680" y1="93" x2="680" y2="105"/><line x1="653.1299423149112" y1="81.87005768508881" x2="644.6446609406727" y2="90.35533905932738"/><line x1="642" y1="55.00000000000001" x2="630" y2="55.00000000000001"/><line x1="653.1299423149112" y1="28.129942314911197" x2="644.6446609406726" y2="19.64466094067263"/><line x1="680" y1="17" x2="680" y2="5"/><line x1="706.8700576850888" y1="28.129942314911187" x2="715.3553390593273" y2="19.644660940672615"/>
    </g><line x1="50" y1="200" x2="50" y2="330" stroke="#8B4513" stroke-width="5"/><ellipse cx="50" cy="185" rx="30" ry="35" fill="#E74C3C" opacity="0.8"/><line x1="115" y1="200" x2="115" y2="330" stroke="#8B4513" stroke-width="5"/><ellipse cx="115" cy="185" rx="30" ry="35" fill="#F39C12" opacity="0.8"/><line x1="180" y1="200" x2="180" y2="330" stroke="#8B4513" stroke-width="5"/><ellipse cx="180" cy="185" rx="30" ry="35" fill="#F9CA24" opacity="0.8"/><line x1="245" y1="200" x2="245" y2="330" stroke="#8B4513" stroke-width="5"/><ellipse cx="245" cy="185" rx="30" ry="35" fill="#E67E22" opacity="0.8"/><line x1="310" y1="200" x2="310" y2="330" stroke="#8B4513" stroke-width="5"/><ellipse cx="310" cy="185" rx="30" ry="35" fill="#C0392B" opacity="0.8"/><line x1="375" y1="200" x2="375" y2="330" stroke="#8B4513" stroke-width="5"/><ellipse cx="375" cy="185" rx="30" ry="35" fill="#E74C3C" opacity="0.8"/><line x1="440" y1="200" x2="440" y2="330" stroke="#8B4513" stroke-width="5"/><ellipse cx="440" cy="185" rx="30" ry="35" fill="#F39C12" opacity="0.8"/><line x1="505" y1="200" x2="505" y2="330" stroke="#8B4513" stroke-width="5"/><ellipse cx="505" cy="185" rx="30" ry="35" fill="#F9CA24" opacity="0.8"/><line x1="570" y1="200" x2="570" y2="330" stroke="#8B4513" stroke-width="5"/><ellipse cx="570" cy="185" rx="30" ry="35" fill="#E67E22" opacity="0.8"/><line x1="635" y1="200" x2="635" y2="330" stroke="#8B4513" stroke-width="5"/><ellipse cx="635" cy="185" rx="30" ry="35" fill="#C0392B" opacity="0.8"/><line x1="700" y1="200" x2="700" y2="330" stroke="#8B4513" stroke-width="5"/><ellipse cx="700" cy="185" rx="30" ry="35" fill="#E74C3C" opacity="0.8"/><line x1="765" y1="200" x2="765" y2="330" stroke="#8B4513" stroke-width="5"/><ellipse cx="765" cy="185" rx="30" ry="35" fill="#F39C12" opacity="0.8"/><rect x="0" y="330" width="800" height="170" fill="#8B7355" opacity="0.3"/><g transform="translate(309.59733334879616,421.497216579217) rotate(66.47409209283352)">
    <path d="M0,0 Q-6,-10 0,-16 Q6,-10 0,0" fill="#F9CA24" opacity="0.8"/>
    <line x1="0" y1="0" x2="0" y2="4" stroke="#8B7355" stroke-width="0.5"/>
  </g><g transform="translate(278.2245304193651,417.1148884274468) rotate(23.82460566569156)">
    <path d="M0,0 Q-6,-10 0,-16 Q6,-10 0,0" fill="#F9CA24" opacity="0.8"/>
    <line x1="0" y1="0" x2="0" y2="4" stroke="#8B7355" stroke-width="0.5"/>
  </g><g transform="translate(729.5154798465023,347.4543466132925) rotate(270.2941944610405)">
    <path d="M0,0 Q-6,-10 0,-16 Q6,-10 0,0" fill="#F9CA24" opacity="0.8"/>
    <line x1="0" y1="0" x2="0" y2="4" stroke="#8B7355" stroke-width="0.5"/>
  </g><g transform="translate(295.5107263065491,435.0419477149445) rotate(266.015227298948)">
    <path d="M0,0 Q-6,-10 0,-16 Q6,-10 0,0" fill="#F9CA24" opacity="0.8"/>
    <line x1="0" y1="0" x2="0" y2="4" stroke="#8B7355" stroke-width="0.5"/>
  </g><g transform="translate(151.53098035573916,368.3907028834775) rotate(35.417191719513475)">
    <path d="M0,0 Q-6,-10 0,-16 Q6,-10 0,0" fill="#F9CA24" opacity="0.8"/>
    <line x1="0" y1="0" x2="0" y2="4" stroke="#8B7355" stroke-width="0.5"/>
  </g><g transform="translate(266.830064686937,406.1551582202145) rotate(332.71258156166266)">
    <path d="M0,0 Q-6,-10 0,-16 Q6,-10 0,0" fill="#F9CA24" opacity="0.8"/>
    <line x1="0" y1="0" x2="0" y2="4" stroke="#8B7355" stroke-width="0.5"/>
  </g><g transform="translate(173.26397400303125,381.3296067221568) rotate(7.476555022205371)">
    <path d="M0,0 Q-6,-10 0,-16 Q6,-10 0,0" fill="#F9CA24" opacity="0.8"/>
    <line x1="0" y1="0" x2="0" y2="4" stroke="#8B7355" stroke-width="0.5"/>
  </g><g transform="translate(133.27400916194313,439.6522762304866) rotate(183.8792184617945)">
    <path d="M0,0 Q-6,-10 0,-16 Q6,-10 0,0" fill="#F9CA24" opacity="0.8"/>
    <line x1="0" y1="0" x2="0" y2="4" stroke="#8B7355" stroke-width="0.5"/>
  </g><g transform="translate(6.176422594462672,370.81670541917197) rotate(72.74641719355202)">
    <path d="M0,0 Q-6,-10 0,-16 Q6,-10 0,0" fill="#F9CA24" opacity="0.8"/>
    <line x1="0" y1="0" x2="0" y2="4" stroke="#8B7355" stroke-width="0.5"/>
  </g><g transform="translate(442.03547841848786,429.9558943001003) rotate(170.00802373265608)">
    <path d="M0,0 Q-6,-10 0,-16 Q6,-10 0,0" fill="#F9CA24" opacity="0.8"/>
    <line x1="0" y1="0" x2="0" y2="4" stroke="#8B7355" stroke-width="0.5"/>
  </g><g transform="translate(712.0647897717228,386.5521683955534) rotate(291.8199358710801)">
    <path d="M0,0 Q-6,-10 0,-16 Q6,-10 0,0" fill="#F9CA24" opacity="0.8"/>
    <line x1="0" y1="0" x2="0" y2="4" stroke="#8B7355" stroke-width="0.5"/>
  </g><g transform="translate(485.604394897685,416.2236188983078) rotate(126.11965688371959)">
    <path d="M0,0 Q-6,-10 0,-16 Q6,-10 0,0" fill="#F9CA24" opacity="0.8"/>
    <line x1="0" y1="0" x2="0" y2="4" stroke="#8B7355" stroke-width="0.5"/>
  </g><g transform="translate(272.5145152692101,342.1290665449277) rotate(252.9831167807182)">
    <path d="M0,0 Q-6,-10 0,-16 Q6,-10 0,0" fill="#F9CA24" opacity="0.8"/>
    <line x1="0" y1="0" x2="0" y2="4" stroke="#8B7355" stroke-width="0.5"/>
  </g><g transform="translate(651.1223222344511,347.7572636492093) rotate(345.5774922703516)">
    <path d="M0,0 Q-6,-10 0,-16 Q6,-10 0,0" fill="#F9CA24" opacity="0.8"/>
    <line x1="0" y1="0" x2="0" y2="4" stroke="#8B7355" stroke-width="0.5"/>
  </g><g transform="translate(721.3582041446188,380.78684425944994) rotate(94.15260878713792)">
    <path d="M0,0 Q-6,-10 0,-16 Q6,-10 0,0" fill="#F9CA24" opacity="0.8"/>
    <line x1="0" y1="0" x2="0" y2="4" stroke="#8B7355" stroke-width="0.5"/>
  </g><g transform="translate(547.6539156024911,388.47119533703324) rotate(31.106404940323216)">
    <path d="M0,0 Q-6,-10 0,-16 Q6,-10 0,0" fill="#F9CA24" opacity="0.8"/>
    <line x1="0" y1="0" x2="0" y2="4" stroke="#8B7355" stroke-width="0.5"/>
  </g><g transform="translate(745.6660764588868,396.1099107912043) rotate(188.69455873559707)">
    <path d="M0,0 Q-6,-10 0,-16 Q6,-10 0,0" fill="#F9CA24" opacity="0.8"/>
    <line x1="0" y1="0" x2="0" y2="4" stroke="#8B7355" stroke-width="0.5"/>
  </g><g transform="translate(415.83171360262475,369.0738020710563) rotate(117.88633111807144)">
    <path d="M0,0 Q-6,-10 0,-16 Q6,-10 0,0" fill="#F9CA24" opacity="0.8"/>
    <line x1="0" y1="0" x2="0" y2="4" stroke="#8B7355" stroke-width="0.5"/>
  </g><g transform="translate(392.7478209438599,354.42464639333906) rotate(82.44777446491588)">
    <path d="M0,0 Q-6,-10 0,-16 Q6,-10 0,0" fill="#F9CA24" opacity="0.8"/>
    <line x1="0" y1="0" x2="0" y2="4" stroke="#8B7355" stroke-width="0.5"/>
  </g><g transform="translate(82.47928774329658,432.5224399248785) rotate(149.31542637026388)">
    <path d="M0,0 Q-6,-10 0,-16 Q6,-10 0,0" fill="#F9CA24" opacity="0.8"/>
    <line x1="0" y1="0" x2="0" y2="4" stroke="#8B7355" stroke-width="0.5"/>
  </g><g transform="translate(415.5143745290489,424.78461763970563) rotate(294.288305988898)">
    <path d="M0,0 Q-6,-10 0,-16 Q6,-10 0,0" fill="#F9CA24" opacity="0.8"/>
    <line x1="0" y1="0" x2="0" y2="4" stroke="#8B7355" stroke-width="0.5"/>
  </g><g transform="translate(370.5969329439062,385.6560710073487) rotate(14.341665700370015)">
    <path d="M0,0 Q-6,-10 0,-16 Q6,-10 0,0" fill="#F9CA24" opacity="0.8"/>
    <line x1="0" y1="0" x2="0" y2="4" stroke="#8B7355" stroke-width="0.5"/>
  </g><g transform="translate(339.20765606472384,404.1234607724918) rotate(292.3059380607351)">
    <path d="M0,0 Q-6,-10 0,-16 Q6,-10 0,0" fill="#F9CA24" opacity="0.8"/>
    <line x1="0" y1="0" x2="0" y2="4" stroke="#8B7355" stroke-width="0.5"/>
  </g><g transform="translate(529.458976755528,367.12476420013326) rotate(297.1924601803035)">
    <path d="M0,0 Q-6,-10 0,-16 Q6,-10 0,0" fill="#F9CA24" opacity="0.8"/>
    <line x1="0" y1="0" x2="0" y2="4" stroke="#8B7355" stroke-width="0.5"/>
  </g><g transform="translate(426.6310805972644,362.97665332488725) rotate(262.18915122266253)">
    <path d="M0,0 Q-6,-10 0,-16 Q6,-10 0,0" fill="#F9CA24" opacity="0.8"/>
    <line x1="0" y1="0" x2="0" y2="4" stroke="#8B7355" stroke-width="0.5"/>
  </g><g transform="translate(373.4479871163174,432.9594531675785) rotate(163.73400864807965)">
    <path d="M0,0 Q-6,-10 0,-16 Q6,-10 0,0" fill="#F9CA24" opacity="0.8"/>
    <line x1="0" y1="0" x2="0" y2="4" stroke="#8B7355" stroke-width="0.5"/>
  </g><g transform="translate(516.5444600805766,400.98672510227453) rotate(118.81900231820961)">
    <path d="M0,0 Q-6,-10 0,-16 Q6,-10 0,0" fill="#F9CA24" opacity="0.8"/>
    <line x1="0" y1="0" x2="0" y2="4" stroke="#8B7355" stroke-width="0.5"/>
  </g><g transform="translate(248.83246719570852,386.51556521611224) rotate(13.458388938434336)">
    <path d="M0,0 Q-6,-10 0,-16 Q6,-10 0,0" fill="#F9CA24" opacity="0.8"/>
    <line x1="0" y1="0" x2="0" y2="4" stroke="#8B7355" stroke-width="0.5"/>
  </g><g transform="translate(172.9640282217554,427.5562771659689) rotate(57.12882039984889)">
    <path d="M0,0 Q-6,-10 0,-16 Q6,-10 0,0" fill="#F9CA24" opacity="0.8"/>
    <line x1="0" y1="0" x2="0" y2="4" stroke="#8B7355" stroke-width="0.5"/>
  </g><g transform="translate(363.928865196723,354.44544159170255) rotate(36.36318466614239)">
    <path d="M0,0 Q-6,-10 0,-16 Q6,-10 0,0" fill="#F9CA24" opacity="0.8"/>
    <line x1="0" y1="0" x2="0" y2="4" stroke="#8B7355" stroke-width="0.5"/>
  </g><g transform="scale(0.7)">
    <!-- body -->
    <ellipse cx="350" cy="315" rx="14" ry="20" fill="#3498DB"/>
    <!-- legs -->
    <line x1="343" y1="332" x2="341" y2="348" stroke="#3498DB" stroke-width="5" stroke-linecap="round"/>
    <line x1="357" y1="332" x2="359" y2="348" stroke="#3498DB" stroke-width="5" stroke-linecap="round"/>
    <!-- arms -->
    <line x1="338" y1="305" x2="332" y2="320" stroke="#3498DB" stroke-width="5" stroke-linecap="round"/><line x1="362" y1="305" x2="368" y2="320" stroke="#3498DB" stroke-width="5" stroke-linecap="round"/>
    <!-- head -->
    <circle cx="350" cy="280" r="16" fill="#FFEAA7"/>
    <!-- hair -->
    <ellipse cx="350" cy="268" rx="16" ry="8" fill="#333"/>
    <line x1="341" y1="272" x2="345" y2="274" stroke="#333" stroke-width="2"/>
      <circle cx="344" cy="276" r="2" fill="#333"/>
      <line x1="355" y1="272" x2="359" y2="274" stroke="#333" stroke-width="2"/>
      <circle cx="356" cy="276" r="2" fill="#333"/>
    <path d="M345,285 Q350,282 355,285" fill="none" stroke="#333" stroke-width="1.5"/>
    <!-- blush -->
    <circle cx="340" cy="281" r="3" fill="#FF9999" opacity="0.4"/>
    <circle cx="360" cy="281" r="3" fill="#FF9999" opacity="0.4"/>
  </g><g transform="translate(380, 305)">
      <rect x="0" y="-5" width="15" height="12" rx="2" fill="#333"/>
      <circle cx="7" cy="1" r="4" fill="#555"/>
    </g><ellipse cx="420" cy="340" rx="12" ry="8" fill="#BDC3C7"/><g transform="translate(420,335) rotate(15)">
    <path d="M0,0 Q-6,-10 0,-16 Q6,-10 0,0" fill="#F9CA24" opacity="0.8"/>
    <line x1="0" y1="0" x2="0" y2="4" stroke="#8B7355" stroke-width="0.5"/>
  </g><g transform="translate(250, 340)">
      <ellipse cx="0" cy="0" rx="50" ry="30" fill="#E67E22" opacity="0.6"/>
      <ellipse cx="10" cy="-10" rx="40" ry="25" fill="#F9CA24" opacity="0.7"/>
      <ellipse cx="-5" cy="-15" rx="35" ry="20" fill="#F39C12" opacity="0.6"/>
    </g><g transform="translate(222.94394664807456,317.14745352548596) rotate(242.4072446043144)">
    <path d="M0,0 Q-6,-10 0,-16 Q6,-10 0,0" fill="#F9CA24" opacity="0.8"/>
    <line x1="0" y1="0" x2="0" y2="4" stroke="#8B7355" stroke-width="0.5"/>
  </g><g transform="translate(233.77779974546073,329.4092574952168) rotate(127.93646069234168)">
    <path d="M0,0 Q-6,-10 0,-16 Q6,-10 0,0" fill="#F9CA24" opacity="0.8"/>
    <line x1="0" y1="0" x2="0" y2="4" stroke="#8B7355" stroke-width="0.5"/>
  </g><g transform="translate(232.61677922279068,317.2267591419941) rotate(104.92900041080316)">
    <path d="M0,0 Q-6,-10 0,-16 Q6,-10 0,0" fill="#F9CA24" opacity="0.8"/>
    <line x1="0" y1="0" x2="0" y2="4" stroke="#8B7355" stroke-width="0.5"/>
  </g><g transform="translate(276.32044670593757,313.1388859470796) rotate(263.23569339630797)">
    <path d="M0,0 Q-6,-10 0,-16 Q6,-10 0,0" fill="#F9CA24" opacity="0.8"/>
    <line x1="0" y1="0" x2="0" y2="4" stroke="#8B7355" stroke-width="0.5"/>
  </g><g transform="translate(242.19291628202774,308.1242989119181) rotate(218.62520466060028)">
    <path d="M0,0 Q-6,-10 0,-16 Q6,-10 0,0" fill="#F9CA24" opacity="0.8"/>
    <line x1="0" y1="0" x2="0" y2="4" stroke="#8B7355" stroke-width="0.5"/>
  </g><g transform="translate(271.5674496292153,303.62690931428807) rotate(121.9529019067073)">
    <path d="M0,0 Q-6,-10 0,-16 Q6,-10 0,0" fill="#F9CA24" opacity="0.8"/>
    <line x1="0" y1="0" x2="0" y2="4" stroke="#8B7355" stroke-width="0.5"/>
  </g><g transform="translate(226.30940191335884,329.33488980869544) rotate(31.507070918604082)">
    <path d="M0,0 Q-6,-10 0,-16 Q6,-10 0,0" fill="#F9CA24" opacity="0.8"/>
    <line x1="0" y1="0" x2="0" y2="4" stroke="#8B7355" stroke-width="0.5"/>
  </g><g transform="translate(268.85563065149097,320.05497131327996) rotate(250.12065945084154)">
    <path d="M0,0 Q-6,-10 0,-16 Q6,-10 0,0" fill="#F9CA24" opacity="0.8"/>
    <line x1="0" y1="0" x2="0" y2="4" stroke="#8B7355" stroke-width="0.5"/>
  </g><g>
    <rect x="295" y="223" width="110" height="22" rx="10" fill="#fff" stroke="#333" stroke-width="1.5"/>
    <polygon points="345,245 355,245 350,255" fill="#fff"/>
    <text x="350" y="237" text-anchor="middle" font-size="9" font-family="Arial, sans-serif" fill="#333">Not perfect enough!</text>
  </g><g transform="translate(200, 295)">
      <rect x="0" y="0" width="50" height="20" rx="5" fill="#E74C3C" opacity="0.8"/>
      <text x="25" y="14" text-anchor="middle" font-size="10" fill="#fff" font-weight="bold">x 247</text>
    </g>
</svg>