<svg xmlns="http://www.w3.org/2000/svg" viewBox="0 0 800 500" width="800" height="500">
  <defs>
    <style>
      text { font-family: 'Arial', 'Helvetica', sans-serif; }
    </style>
  </defs>
  <rect width="800" height="500" fill="#87CEEB"/>
  <g transform="translate(100,40) scale(1)">
    <ellipse cx="0" cy="0" rx="40" ry="25" fill="#fff" opacity="0.9"/>
    <ellipse cx="-30" cy="5" rx="25" ry="18" fill="#fff" opacity="0.9"/>
    <ellipse cx="30" cy="5" rx="28" ry="20" fill="#fff" opacity="0.9"/>
    <ellipse cx="15" cy="-10" rx="20" ry="15" fill="#fff" opacity="0.9"/>
  </g><circle cx="680" cy="55" r="30" fill="#FFD93D"/>
    <g stroke="#FFD93D" stroke-width="3" fill="none">
      <line x1="718" y1="55" x2="730" y2="55"/><line x1="706.8700576850888" y1="81.8700576850888" x2="715.3553390593274" y2="90.35533905932738"/><line x1="680" y1="93" x2="680" y2="105"/><line x1="653.1299423149112" y1="81.87005768508881" x2="644.6446609406727" y2="90.35533905932738"/><line x1="642" y1="55.00000000000001" x2="630" y2="55.00000000000001"/><line x1="653.1299423149112" y1="28.129942314911197" x2="644.6446609406726" y2="19.64466094067263"/><line x1="680" y1="17" x2="680" y2="5"/><line x1="706.8700576850888" y1="28.129942314911187" x2="715.3553390593273" y2="19.644660940672615"/>
    </g><polygon points="400,120 100,400 700,400" fill="#6C9A8B"/>
    <polygon points="400,120 310,204 490,204" fill="#fff" opacity="0.6"/><rect x="350" y="125" width="100" height="5" fill="#5D8A7B"/><g transform="scale(0.8)">
    <!-- body -->
    <ellipse cx="400" cy="105" rx="14" ry="20" fill="#E74C3C"/>
    <!-- legs -->
    <line x1="393" y1="122" x2="391" y2="138" stroke="#E74C3C" stroke-width="5" stroke-linecap="round"/>
    <line x1="407" y1="122" x2="409" y2="138" stroke="#E74C3C" stroke-width="5" stroke-linecap="round"/>
    <!-- arms -->
    <line x1="388" y1="95" x2="375" y2="75" stroke="#E74C3C" stroke-width="5" stroke-linecap="round"/><line x1="412" y1="95" x2="425" y2="75" stroke="#E74C3C" stroke-width="5" stroke-linecap="round"/>
    <!-- head -->
    <circle cx="400" cy="70" r="16" fill="#FFEAA7"/>
    <!-- hair -->
    <ellipse cx="400" cy="58" rx="16" ry="8" fill="#333"/>
    <path d="M391,65 Q394,62 397,65" fill="none" stroke="#333" stroke-width="2"/>
      <path d="M403,65 Q406,62 409,65" fill="none" stroke="#333" stroke-width="2"/>
    <path d="M395,72 Q400,77 405,72" fill="none" stroke="#333" stroke-width="1.5"/>
    <!-- blush -->
    <circle cx="390" cy="71" r="3" fill="#FF9999" opacity="0.4"/>
    <circle cx="410" cy="71" r="3" fill="#FF9999" opacity="0.4"/>
  </g><g>
    <rect x="345" y="0" width="110" height="25" rx="10" fill="#fff" stroke="#333" stroke-width="1.5"/>
    <polygon points="395,25 405,25 400,35" fill="#fff"/>
    <text x="400" y="15.833333333333334" text-anchor="middle" font-size="10" font-family="Arial, sans-serif" fill="#333">BEST VIEW EVER!</text>
  </g><g transform="translate(440, 100)">
      <rect x="0" y="0" width="20" height="28" rx="5" fill="#F39C12"/>
      <rect x="2" y="3" width="8" height="6" rx="2" fill="#E67E22"/>
    </g><g transform="translate(460, 85)">
      <ellipse cx="0" cy="10" rx="10" ry="12" fill="#A0522D"/>
      <circle cx="0" cy="-5" r="10" fill="#D2691E"/>
      <ellipse cx="0" cy="-2" rx="7" ry="6" fill="#FDDCB1"/>
      <circle cx="-3" cy="-5" r="2" fill="#333"/>
      <circle cx="3" cy="-5" r="2" fill="#333"/>
      <path d="M-3,1 Q0,4 3,1" fill="none" stroke="#333" stroke-width="1"/>
      <circle cx="-10" cy="-5" r="4" fill="#D2691E"/>
      <circle cx="-10" cy="-5" r="2.5" fill="#FDDCB1"/>
      <circle cx="10" cy="-5" r="4" fill="#D2691E"/>
      <circle cx="10" cy="-5" r="2.5" fill="#FDDCB1"/>
      <path d="M8,15 Q20,5 18,20 Q15,30 22,25" fill="none" stroke="#A0522D" stroke-width="3" stroke-linecap="round"/>
      <line x1="-8" y1="8" x2="-18" y2="15" stroke="#D2691E" stroke-width="4" stroke-linecap="round"/>
      <rect x="-22" y="12" width="8" height="5" rx="1" fill="#F9CA24"/>
    </g><rect x="435" y="118" width="6" height="4" rx="1" fill="#E74C3C" transform="rotate(15)"/><circle cx="448" cy="122" r="3" fill="#F39C12"/><rect x="195" y="310" width="10" height="40" fill="#8B4513" rx="2"/>
    <ellipse cx="200" cy="300" rx="25" ry="30" fill="#27AE60"/>
    <ellipse cx="185" cy="315" rx="18" ry="22" fill="#27AE60"/>
    <ellipse cx="215" cy="315" rx="18" ry="22" fill="#27AE60"/><rect x="595" y="325" width="10" height="35" fill="#8B4513" rx="2"/>
    <ellipse cx="600" cy="315" rx="25" ry="30" fill="#27AE60"/>
    <ellipse cx="585" cy="330" rx="18" ry="22" fill="#27AE60"/>
    <ellipse cx="615" cy="330" rx="18" ry="22" fill="#27AE60"/>
</svg>