<svg xmlns="http://www.w3.org/2000/svg" viewBox="0 0 800 500" width="800" height="500">
  <defs>
    <style>
      text { font-family: 'Arial', 'Helvetica', sans-serif; }
    </style>
  </defs>
  <rect width="800" height="500" fill="#87CEEB"/>
  <g transform="translate(100,40) scale(1)">
    <ellipse cx="0" cy="0" rx="40" ry="25" fill="#fff" opacity="0.9"/>
    <ellipse cx="-30" cy="5" rx="25" ry="18" fill="#fff" opacity="0.9"/>
    <ellipse cx="30" cy="5" rx="28" ry="20" fill="#fff" opacity="0.9"/>
    <ellipse cx="15" cy="-10" rx="20" ry="15" fill="#fff" opacity="0.9"/>
  </g><circle cx="680" cy="55" r="30" fill="#FFD93D"/>
    <g stroke="#FFD93D" stroke-width="3" fill="none">
      <line x1="718" y1="55" x2="730" y2="55"/><line x1="706.8700576850888" y1="81.8700576850888" x2="715.3553390593274" y2="90.35533905932738"/><line x1="680" y1="93" x2="680" y2="105"/><line x1="653.1299423149112" y1="81.87005768508881" x2="644.6446609406727" y2="90.35533905932738"/><line x1="642" y1="55.00000000000001" x2="630" y2="55.00000000000001"/><line x1="653.1299423149112" y1="28.129942314911197" x2="644.6446609406726" y2="19.64466094067263"/><line x1="680" y1="17" x2="680" y2="5"/><line x1="706.8700576850888" y1="28.129942314911187" x2="715.3553390593273" y2="19.644660940672615"/>
    </g><polygon points="200,100 0,350 400,350" fill="#6C9A8B"/>
    <polygon points="200,100 140,175 260,175" fill="#fff" opacity="0.6"/><polygon points="600,130 425,350 775,350" fill="#5D8A7B"/>
    <polygon points="600,130 547.5,196 652.5,196" fill="#fff" opacity="0.6"/><rect x="150" y="300" width="500" height="15" fill="#AED6F1" opacity="0.5" stroke="#85C1E9" stroke-width="1"/><line x1="170" y1="300" x2="170" y2="315" stroke="#85C1E9" stroke-width="0.5" opacity="0.5"/><line x1="200" y1="300" x2="200" y2="315" stroke="#85C1E9" stroke-width="0.5" opacity="0.5"/><line x1="230" y1="300" x2="230" y2="315" stroke="#85C1E9" stroke-width="0.5" opacity="0.5"/><line x1="260" y1="300" x2="260" y2="315" stroke="#85C1E9" stroke-width="0.5" opacity="0.5"/><line x1="290" y1="300" x2="290" y2="315" stroke="#85C1E9" stroke-width="0.5" opacity="0.5"/><line x1="320" y1="300" x2="320" y2="315" stroke="#85C1E9" stroke-width="0.5" opacity="0.5"/><line x1="350" y1="300" x2="350" y2="315" stroke="#85C1E9" stroke-width="0.5" opacity="0.5"/><line x1="380" y1="300" x2="380" y2="315" stroke="#85C1E9" stroke-width="0.5" opacity="0.5"/><line x1="410" y1="300" x2="410" y2="315" stroke="#85C1E9" stroke-width="0.5" opacity="0.5"/><line x1="440" y1="300" x2="440" y2="315" stroke="#85C1E9" stroke-width="0.5" opacity="0.5"/><line x1="470" y1="300" x2="470" y2="315" stroke="#85C1E9" stroke-width="0.5" opacity="0.5"/><line x1="500" y1="300" x2="500" y2="315" stroke="#85C1E9" stroke-width="0.5" opacity="0.5"/><line x1="530" y1="300" x2="530" y2="315" stroke="#85C1E9" stroke-width="0.5" opacity="0.5"/><line x1="560" y1="300" x2="560" y2="315" stroke="#85C1E9" stroke-width="0.5" opacity="0.5"/><line x1="590" y1="300" x2="590" y2="315" stroke="#85C1E9" stroke-width="0.5" opacity="0.5"/><line x1="620" y1="300" x2="620" y2="315" stroke="#85C1E9" stroke-width="0.5" opacity="0.5"/><line x1="150" y1="285" x2="650" y2="285" stroke="#888" stroke-width="2"/><line x1="170" y1="285" x2="170" y2="300" stroke="#888" stroke-width="1.5"/><line x1="195" y1="285" x2="195" y2="300" stroke="#888" stroke-width="1.5"/><line x1="220" y1="285" x2="220" y2="300" stroke="#888" stroke-width="1.5"/><line x1="245" y1="285" x2="245" y2="300" stroke="#888" stroke-width="1.5"/><line x1="270" y1="285" x2="270" y2="300" stroke="#888" stroke-width="1.5"/><line x1="295" y1="285" x2="295" y2="300" stroke="#888" stroke-width="1.5"/><line x1="320" y1="285" x2="320" y2="300" stroke="#888" stroke-width="1.5"/><line x1="345" y1="285" x2="345" y2="300" stroke="#888" stroke-width="1.5"/><line x1="370" y1="285" x2="370" y2="300" stroke="#888" stroke-width="1.5"/><line x1="395" y1="285" x2="395" y2="300" stroke="#888" stroke-width="1.5"/><line x1="420" y1="285" x2="420" y2="300" stroke="#888" stroke-width="1.5"/><line x1="445" y1="285" x2="445" y2="300" stroke="#888" stroke-width="1.5"/><line x1="470" y1="285" x2="470" y2="300" stroke="#888" stroke-width="1.5"/><line x1="495" y1="285" x2="495" y2="300" stroke="#888" stroke-width="1.5"/><line x1="520" y1="285" x2="520" y2="300" stroke="#888" stroke-width="1.5"/><line x1="545" y1="285" x2="545" y2="300" stroke="#888" stroke-width="1.5"/><line x1="570" y1="285" x2="570" y2="300" stroke="#888" stroke-width="1.5"/><line x1="595" y1="285" x2="595" y2="300" stroke="#888" stroke-width="1.5"/><line x1="620" y1="285" x2="620" y2="300" stroke="#888" stroke-width="1.5"/><line x1="645" y1="285" x2="645" y2="300" stroke="#888" stroke-width="1.5"/><rect x="150" y="315" width="500" height="185" fill="#E8F6F3" opacity="0.3"/><circle cx="200" cy="440.2502351753306" r="5" fill="#27AE60" opacity="0.4"/><circle cx="260" cy="456.7889634031957" r="5" fill="#27AE60" opacity="0.4"/><circle cx="320" cy="452.11539476203575" r="5" fill="#27AE60" opacity="0.4"/><circle cx="380" cy="456.4060868860718" r="5" fill="#27AE60" opacity="0.4"/><circle cx="440" cy="441.93219538145127" r="5" fill="#27AE60" opacity="0.4"/><circle cx="500" cy="444.5263805585522" r="5" fill="#27AE60" opacity="0.4"/><circle cx="560" cy="462.01732236761904" r="5" fill="#27AE60" opacity="0.4"/><circle cx="620" cy="458.8720842678272" r="5" fill="#27AE60" opacity="0.4"/><g transform="translate(350, 285)">
      <ellipse cx="0" cy="5" rx="15" ry="6" fill="#3498DB"/>
      <circle cx="-12" cy="0" r="9" fill="#FFEAA7"/>
      <circle cx="-15" cy="-2" r="3" fill="#fff" stroke="#333" stroke-width="1"/>
      <circle cx="-15" cy="-2" r="1.5" fill="#333"/>
      <circle cx="-9" cy="-2" r="3" fill="#fff" stroke="#333" stroke-width="1"/>
      <circle cx="-9" cy="-2" r="1.5" fill="#333"/>
      <ellipse cx="-12" cy="5" rx="3" ry="4" fill="#333"/>
      <circle cx="-20" cy="-5" r="2" fill="#74B9FF"/>
      <circle cx="-5" cy="-8" r="1.5" fill="#74B9FF"/>
      <circle cx="-22" cy="8" r="3" fill="#FFEAA7"/>
      <circle cx="12" cy="8" r="3" fill="#FFEAA7"/>
    </g><g transform="translate(500, 250)">
      <ellipse cx="0" cy="25" rx="10" ry="16" fill="#9B59B6"/>
      <line x1="-5" y1="38" x2="-10" y2="50" stroke="#9B59B6" stroke-width="4" stroke-linecap="round"/>
      <line x1="5" y1="38" x2="12" y2="50" stroke="#9B59B6" stroke-width="4" stroke-linecap="round"/>
      <circle cx="0" cy="7" r="10" fill="#FFEAA7"/>
      <circle cx="0" cy="-2" r="6" fill="#C0C0C0"/>
      <circle cx="-3" cy="5" r="1.5" fill="#333"/>
      <circle cx="3" cy="5" r="1.5" fill="#333"/>
      <path d="M-3,9 Q0,12 3,9" fill="none" stroke="#333" stroke-width="1"/>
      <rect x="10" y="2" width="5" height="10" rx="1" fill="#333"/>
      <line x1="8" y1="18" x2="12" y2="7" stroke="#9B59B6" stroke-width="3" stroke-linecap="round"/>
    </g><g>
    <rect x="305" y="223" width="90" height="22" rx="10" fill="#fff" stroke="#333" stroke-width="1.5"/>
    <polygon points="345,245 355,245 350,255" fill="#fff"/>
    <text x="350" y="237" text-anchor="middle" font-size="9" font-family="Arial, sans-serif" fill="#333">I'm gonna die!</text>
  </g><g>
    <rect x="470" y="203" width="100" height="22" rx="10" fill="#fff" stroke="#333" stroke-width="1.5"/>
    <polygon points="515,225 525,225 520,235" fill="#fff"/>
    <text x="520" y="217" text-anchor="middle" font-size="9" font-family="Arial, sans-serif" fill="#333">Yeah so anyway...</text>
  </g>
</svg>