<svg xmlns="http://www.w3.org/2000/svg" viewBox="0 0 800 500" width="800" height="500">
  <defs>
    <style>
      text { font-family: 'Arial', 'Helvetica', sans-serif; }
    </style>
  </defs>
  <rect width="800" height="500" fill="#1a1a3e"/>
  <rect width="800" height="500" fill="#1a1a3e"/><circle cx="296.2931314879776" cy="139.5182774183962" r="2.034672059312817" fill="#fff" opacity="0.5218857425016356"/><circle cx="137.9019356501403" cy="193.02963415691855" r="2.0426435752530665" fill="#fff" opacity="0.4859959022516786"/><circle cx="578.0594955044623" cy="155.69017236430946" r="1.939089007231848" fill="#fff" opacity="0.4113506123641159"/><circle cx="719.4706347038581" cy="113.53364721112693" r="1.539227949851638" fill="#fff" opacity="0.7555390471175418"/><circle cx="512.3676120479311" cy="13.168844028498384" r="1.1018693429808943" fill="#fff" opacity="0.42970150255678996"/><circle cx="645.8529240662067" cy="149.90857123856009" r="2.428128607114962" fill="#fff" opacity="0.6115501903642028"/><circle cx="121.68877711501827" cy="147.90935554831825" r="1.6966919922823454" fill="#fff" opacity="0.5558541685580427"/><circle cx="323.6733899469668" cy="122.15233978006653" r="2.462495089489576" fill="#fff" opacity="0.48137319286067226"/><circle cx="722.2472432794636" cy="9.933989444826707" r="2.4689221602621396" fill="#fff" opacity="0.7750019320067734"/><circle cx="739.1737832684742" cy="132.34640870837677" r="1.2297637691030483" fill="#fff" opacity="0.40862855696354067"/><circle cx="608.1987054688941" cy="134.10936283508596" r="1.8957509655177334" fill="#fff" opacity="0.5537939904707634"/><circle cx="516.645773507799" cy="3.2579452298991507" r="1.06519959226776" fill="#fff" opacity="0.6964032247955583"/><circle cx="589.5672075511457" cy="92.92266375154048" r="1.1823574575197207" fill="#fff" opacity="0.6233481953306486"/><circle cx="461.6001492084803" cy="15.93785605989908" r="1.6279561740241386" fill="#fff" opacity="0.36423912311394635"/><circle cx="668.8107872491848" cy="18.196794547036177" r="1.312953391348756" fill="#fff" opacity="0.6118286060377034"/><circle cx="552.2599485011478" cy="80.62298970044208" r="0.7219810000464737" fill="#fff" opacity="0.4999503441661992"/><circle cx="664.1297913881261" cy="109.49605384075873" r="1.9797136539319267" fill="#fff" opacity="0.46365148931329264"/><circle cx="692.7928161290774" cy="102.93343195036711" r="0.9891727873390102" fill="#fff" opacity="0.5572466281503907"/><circle cx="176.95574966571144" cy="92.7705002638382" r="1.3677869150878585" fill="#fff" opacity="0.34761391920008533"/><circle cx="414.461131329711" cy="17.60891771778672" r="0.9621969843419249" fill="#fff" opacity="0.321751949214685"/><circle cx="572.5220230397899" cy="160.71144208676958" r="2.4069181816492673" fill="#fff" opacity="0.5802350946830518"/><circle cx="384.41915527910106" cy="120.96842366152538" r="0.5744273442099619" fill="#fff" opacity="0.4253349677386559"/><circle cx="55.26460111477718" cy="57.610514035823535" r="1.609838446709847" fill="#fff" opacity="0.6541845350748094"/><circle cx="268.96957654008736" cy="121.1469523926318" r="1.0121487496031076" fill="#fff" opacity="0.4504962201168055"/><circle cx="679.0652117906791" cy="194.11197716472697" r="2.026074620363489" fill="#fff" opacity="0.4654963157152678"/><circle cx="179.0638620516213" cy="68.08951448788747" r="0.6198266458130601" fill="#fff" opacity="0.6980292425801282"/><circle cx="259.6009819053887" cy="1.6224051633163095" r="1.80897306516055" fill="#fff" opacity="0.6310177356222189"/><circle cx="650.0747557516496" cy="74.90129830644517" r="1.0491325348267764" fill="#fff" opacity="0.7458983535538045"/><circle cx="203.16399448538834" cy="109.8210612186461" r="0.9089422168082499" fill="#fff" opacity="0.31958845248486323"/><circle cx="305.76032382771825" cy="166.35996691201927" r="1.5166290318867799" fill="#fff" opacity="0.385366397489667"/><circle cx="680" cy="80" r="35" fill="#F9CA24"/>
      <circle cx="695" cy="70" r="30" fill="#1a1a3e"/><polygon points="200,200 25,380 375,380" fill="#2d2d5e"/>
    <polygon points="200,200 147.5,254 252.5,254" fill="#fff" opacity="0.6"/><polygon points="500,180 300,380 700,380" fill="#252550"/>
    <polygon points="500,180 440,240 560,240" fill="#fff" opacity="0.6"/><rect x="0" y="350" width="350" height="25" fill="#C4A882" stroke="#8B7355" stroke-width="1"/><rect x="0" y="340" width="8" height="12" fill="#C4A882" stroke="#8B7355" stroke-width="0.8"/><rect x="15" y="340" width="8" height="12" fill="#C4A882" stroke="#8B7355" stroke-width="0.8"/><rect x="30" y="340" width="8" height="12" fill="#C4A882" stroke="#8B7355" stroke-width="0.8"/><rect x="45" y="340" width="8" height="12" fill="#C4A882" stroke="#8B7355" stroke-width="0.8"/><rect x="60" y="340" width="8" height="12" fill="#C4A882" stroke="#8B7355" stroke-width="0.8"/><rect x="75" y="340" width="8" height="12" fill="#C4A882" stroke="#8B7355" stroke-width="0.8"/><rect x="90" y="340" width="8" height="12" fill="#C4A882" stroke="#8B7355" stroke-width="0.8"/><rect x="105" y="340" width="8" height="12" fill="#C4A882" stroke="#8B7355" stroke-width="0.8"/><rect x="120" y="340" width="8" height="12" fill="#C4A882" stroke="#8B7355" stroke-width="0.8"/><rect x="135" y="340" width="8" height="12" fill="#C4A882" stroke="#8B7355" stroke-width="0.8"/><rect x="150" y="340" width="8" height="12" fill="#C4A882" stroke="#8B7355" stroke-width="0.8"/><rect x="165" y="340" width="8" height="12" fill="#C4A882" stroke="#8B7355" stroke-width="0.8"/><rect x="180" y="340" width="8" height="12" fill="#C4A882" stroke="#8B7355" stroke-width="0.8"/><rect x="195" y="340" width="8" height="12" fill="#C4A882" stroke="#8B7355" stroke-width="0.8"/><rect x="210" y="340" width="8" height="12" fill="#C4A882" stroke="#8B7355" stroke-width="0.8"/><rect x="225" y="340" width="8" height="12" fill="#C4A882" stroke="#8B7355" stroke-width="0.8"/><rect x="240" y="340" width="8" height="12" fill="#C4A882" stroke="#8B7355" stroke-width="0.8"/><rect x="255" y="340" width="8" height="12" fill="#C4A882" stroke="#8B7355" stroke-width="0.8"/><rect x="270" y="340" width="8" height="12" fill="#C4A882" stroke="#8B7355" stroke-width="0.8"/><rect x="285" y="340" width="8" height="12" fill="#C4A882" stroke="#8B7355" stroke-width="0.8"/><rect x="300" y="340" width="8" height="12" fill="#C4A882" stroke="#8B7355" stroke-width="0.8"/><rect x="315" y="340" width="8" height="12" fill="#C4A882" stroke="#8B7355" stroke-width="0.8"/><rect x="330" y="340" width="8" height="12" fill="#C4A882" stroke="#8B7355" stroke-width="0.8"/><rect x="345" y="340" width="8" height="12" fill="#C4A882" stroke="#8B7355" stroke-width="0.8"/><rect x="350" y="330" width="200" height="25" fill="#C4A882" stroke="#8B7355" stroke-width="1"/><rect x="350" y="320" width="8" height="12" fill="#C4A882" stroke="#8B7355" stroke-width="0.8"/><rect x="365" y="320" width="8" height="12" fill="#C4A882" stroke="#8B7355" stroke-width="0.8"/><rect x="380" y="320" width="8" height="12" fill="#C4A882" stroke="#8B7355" stroke-width="0.8"/><rect x="395" y="320" width="8" height="12" fill="#C4A882" stroke="#8B7355" stroke-width="0.8"/><rect x="410" y="320" width="8" height="12" fill="#C4A882" stroke="#8B7355" stroke-width="0.8"/><rect x="425" y="320" width="8" height="12" fill="#C4A882" stroke="#8B7355" stroke-width="0.8"/><rect x="440" y="320" width="8" height="12" fill="#C4A882" stroke="#8B7355" stroke-width="0.8"/><rect x="455" y="320" width="8" height="12" fill="#C4A882" stroke="#8B7355" stroke-width="0.8"/><rect x="470" y="320" width="8" height="12" fill="#C4A882" stroke="#8B7355" stroke-width="0.8"/><rect x="485" y="320" width="8" height="12" fill="#C4A882" stroke="#8B7355" stroke-width="0.8"/><rect x="500" y="320" width="8" height="12" fill="#C4A882" stroke="#8B7355" stroke-width="0.8"/><rect x="515" y="320" width="8" height="12" fill="#C4A882" stroke="#8B7355" stroke-width="0.8"/><rect x="530" y="320" width="8" height="12" fill="#C4A882" stroke="#8B7355" stroke-width="0.8"/><rect x="545" y="320" width="8" height="12" fill="#C4A882" stroke="#8B7355" stroke-width="0.8"/><rect x="550" y="330" width="14" height="8" fill="#C4A882" stroke="#8B7355" stroke-width="0.8"/><rect x="562" y="322" width="14" height="8" fill="#C4A882" stroke="#8B7355" stroke-width="0.8"/><rect x="574" y="314" width="14" height="8" fill="#C4A882" stroke="#8B7355" stroke-width="0.8"/><rect x="586" y="306" width="14" height="8" fill="#C4A882" stroke="#8B7355" stroke-width="0.8"/><rect x="598" y="298" width="14" height="8" fill="#C4A882" stroke="#8B7355" stroke-width="0.8"/><rect x="550" y="360" width="250" height="25" fill="#C4A882" stroke="#8B7355" stroke-width="1"/><rect x="550" y="350" width="8" height="12" fill="#C4A882" stroke="#8B7355" stroke-width="0.8"/><rect x="565" y="350" width="8" height="12" fill="#C4A882" stroke="#8B7355" stroke-width="0.8"/><rect x="580" y="350" width="8" height="12" fill="#C4A882" stroke="#8B7355" stroke-width="0.8"/><rect x="595" y="350" width="8" height="12" fill="#C4A882" stroke="#8B7355" stroke-width="0.8"/><rect x="610" y="350" width="8" height="12" fill="#C4A882" stroke="#8B7355" stroke-width="0.8"/><rect x="625" y="350" width="8" height="12" fill="#C4A882" stroke="#8B7355" stroke-width="0.8"/><rect x="640" y="350" width="8" height="12" fill="#C4A882" stroke="#8B7355" stroke-width="0.8"/><rect x="655" y="350" width="8" height="12" fill="#C4A882" stroke="#8B7355" stroke-width="0.8"/><rect x="670" y="350" width="8" height="12" fill="#C4A882" stroke="#8B7355" stroke-width="0.8"/><rect x="685" y="350" width="8" height="12" fill="#C4A882" stroke="#8B7355" stroke-width="0.8"/><rect x="700" y="350" width="8" height="12" fill="#C4A882" stroke="#8B7355" stroke-width="0.8"/><rect x="715" y="350" width="8" height="12" fill="#C4A882" stroke="#8B7355" stroke-width="0.8"/><rect x="730" y="350" width="8" height="12" fill="#C4A882" stroke="#8B7355" stroke-width="0.8"/><rect x="745" y="350" width="8" height="12" fill="#C4A882" stroke="#8B7355" stroke-width="0.8"/><rect x="760" y="350" width="8" height="12" fill="#C4A882" stroke="#8B7355" stroke-width="0.8"/><rect x="775" y="350" width="8" height="12" fill="#C4A882" stroke="#8B7355" stroke-width="0.8"/><rect x="790" y="350" width="8" height="12" fill="#C4A882" stroke="#8B7355" stroke-width="0.8"/><rect x="0" y="375" width="800" height="125" fill="#2d2d3e"/><line x1="150" y1="165" x2="150" y2="175" stroke="#C0392B" stroke-width="1.5"/>
    <ellipse cx="150" cy="185" rx="8" ry="12" fill="#E74C3C" opacity="0.9"/>
    <rect x="141" y="174" width="18" height="4" rx="1" fill="#C0392B"/>
    <rect x="141" y="194" width="18" height="4" rx="1" fill="#C0392B"/>
    <line x1="150" y1="198" x2="150" y2="204" stroke="#FFD700" stroke-width="1"/><line x1="350" y1="125" x2="350" y2="135" stroke="#C0392B" stroke-width="1.5"/>
    <ellipse cx="350" cy="145" rx="8" ry="12" fill="#E74C3C" opacity="0.9"/>
    <rect x="341" y="134" width="18" height="4" rx="1" fill="#C0392B"/>
    <rect x="341" y="154" width="18" height="4" rx="1" fill="#C0392B"/>
    <line x1="350" y1="158" x2="350" y2="164" stroke="#FFD700" stroke-width="1"/><line x1="550" y1="145" x2="550" y2="155" stroke="#C0392B" stroke-width="1.5"/>
    <ellipse cx="550" cy="165" rx="8" ry="12" fill="#E74C3C" opacity="0.9"/>
    <rect x="541" y="154" width="18" height="4" rx="1" fill="#C0392B"/>
    <rect x="541" y="174" width="18" height="4" rx="1" fill="#C0392B"/>
    <line x1="550" y1="178" x2="550" y2="184" stroke="#FFD700" stroke-width="1"/><line x1="700" y1="185" x2="700" y2="195" stroke="#C0392B" stroke-width="1.5"/>
    <ellipse cx="700" cy="205" rx="8" ry="12" fill="#E74C3C" opacity="0.9"/>
    <rect x="691" y="194" width="18" height="4" rx="1" fill="#C0392B"/>
    <rect x="691" y="214" width="18" height="4" rx="1" fill="#C0392B"/>
    <line x1="700" y1="218" x2="700" y2="224" stroke="#FFD700" stroke-width="1"/><g transform="translate(0,0) scale(1.5)">
    <!-- cat body -->
    <ellipse cx="400" cy="320" rx="12" ry="15" fill="#FF9F43"/>
    <!-- tail -->
    <path d="M410,325 Q430,310 425,330" fill="none" stroke="#FF9F43" stroke-width="4" stroke-linecap="round"/>
    <!-- head -->
    <circle cx="400" cy="300" r="14" fill="#FF9F43"/>
    <!-- ears -->
    <polygon points="388,290 394,278 398,292" fill="#FF9F43"/>
    <polygon points="412,290 406,278 402,292" fill="#FF9F43"/>
    <polygon points="390,289 394,281 397,291" fill="#FFB8B8"/>
    <polygon points="410,289 406,281 403,291" fill="#FFB8B8"/>
    <path d="M394,298 Q396,295 398,298" fill="none" stroke="#333" stroke-width="1.5"/>
      <path d="M402,298 Q404,295 406,298" fill="none" stroke="#333" stroke-width="1.5"/>
    <path d="M397,303 Q400,301 403,303" fill="none" stroke="#333" stroke-width="1"/>
      <line x1="400" y1="301" x2="400" y2="304" stroke="#333" stroke-width="1"/>
    <!-- whiskers -->
    <line x1="386" y1="300" x2="376" y2="297" stroke="#333" stroke-width="0.8"/>
    <line x1="386" y1="302" x2="376" y2="304" stroke="#333" stroke-width="0.8"/>
    <line x1="414" y1="300" x2="424" y2="297" stroke="#333" stroke-width="0.8"/>
    <line x1="414" y1="302" x2="424" y2="304" stroke="#333" stroke-width="0.8"/>
  </g><g transform="translate(400, 300) scale(1.5)">
      <rect x="-10" y="-5" width="8" height="5" rx="2" fill="#333"/>
      <rect x="2" y="-5" width="8" height="5" rx="2" fill="#333"/>
      <line x1="-2" y1="-3" x2="2" y2="-3" stroke="#333" stroke-width="1"/>
      <line x1="-10" y1="-3" x2="-15" y2="-5" stroke="#333" stroke-width="1"/>
      <line x1="10" y1="-3" x2="15" y2="-5" stroke="#333" stroke-width="1"/>
    </g><g transform="translate(440, 330)">
      <rect x="0" y="0" width="14" height="25" rx="3" fill="#E8D5B7" opacity="0.8"/>
      <circle cx="4" cy="18" r="2.5" fill="#5D4037"/>
      <circle cx="9" cy="20" r="2" fill="#5D4037"/>
      <circle cx="6" cy="15" r="2" fill="#5D4037"/>
      <line x1="7" y1="-5" x2="7" y2="5" stroke="#E74C3C" stroke-width="2"/>
    </g><g>
    <rect x="365" y="235" width="70" height="25" rx="10" fill="#fff" stroke="#333" stroke-width="1.5"/>
    <polygon points="395,260 405,260 400,270" fill="#fff"/>
    <text x="400" y="251.5" text-anchor="middle" font-size="12" font-family="Arial, sans-serif" fill="#333">Chill~</text>
  </g>
</svg>