<svg xmlns="http://www.w3.org/2000/svg" viewBox="0 0 800 500" width="800" height="500">
  <defs>
    <style>
      text { font-family: 'Arial', 'Helvetica', sans-serif; }
    </style>
  </defs>
  <rect width="800" height="500" fill="#87CEEB"/>
  <g transform="translate(100,40) scale(1)">
    <ellipse cx="0" cy="0" rx="40" ry="25" fill="#fff" opacity="0.9"/>
    <ellipse cx="-30" cy="5" rx="25" ry="18" fill="#fff" opacity="0.9"/>
    <ellipse cx="30" cy="5" rx="28" ry="20" fill="#fff" opacity="0.9"/>
    <ellipse cx="15" cy="-10" rx="20" ry="15" fill="#fff" opacity="0.9"/>
  </g><circle cx="680" cy="55" r="30" fill="#FFD93D"/>
    <g stroke="#FFD93D" stroke-width="3" fill="none">
      <line x1="718" y1="55" x2="730" y2="55"/><line x1="706.8700576850888" y1="81.8700576850888" x2="715.3553390593274" y2="90.35533905932738"/><line x1="680" y1="93" x2="680" y2="105"/><line x1="653.1299423149112" y1="81.87005768508881" x2="644.6446609406727" y2="90.35533905932738"/><line x1="642" y1="55.00000000000001" x2="630" y2="55.00000000000001"/><line x1="653.1299423149112" y1="28.129942314911197" x2="644.6446609406726" y2="19.64466094067263"/><line x1="680" y1="17" x2="680" y2="5"/><line x1="706.8700576850888" y1="28.129942314911187" x2="715.3553390593273" y2="19.644660940672615"/>
    </g><rect x="0" y="350" width="800" height="150" fill="#C4A882" opacity="0.4"/><rect x="200" y="250" width="20" height="100" fill="#BDC3C7"/><rect x="200" y="240" width="25" height="15" fill="#BDC3C7"/><rect x="350" y="270" width="20" height="80" fill="#BDC3C7"/><rect x="350" y="260" width="25" height="15" fill="#BDC3C7"/><rect x="500" y="260" width="20" height="90" fill="#BDC3C7"/><rect x="560" y="330" width="60" height="18" rx="3" fill="#BDC3C7" transform="rotate(-10,590,339)"/><rect x="330" y="310" width="80" height="40" rx="3" fill="#95A5A6"/><rect x="340" y="300" width="60" height="15" rx="2" fill="#ABB2B9"/><g transform="translate(0,0) scale(1.3)">
    <!-- cat body -->
    <ellipse cx="370" cy="285" rx="12" ry="15" fill="#FF9F43"/>
    <!-- tail -->
    <path d="M380,290 Q400,275 395,295" fill="none" stroke="#FF9F43" stroke-width="4" stroke-linecap="round"/>
    <!-- head -->
    <circle cx="370" cy="265" r="14" fill="#FF9F43"/>
    <!-- ears -->
    <polygon points="358,255 364,243 368,257" fill="#FF9F43"/>
    <polygon points="382,255 376,243 372,257" fill="#FF9F43"/>
    <polygon points="360,254 364,246 367,256" fill="#FFB8B8"/>
    <polygon points="380,254 376,246 373,256" fill="#FFB8B8"/>
    <path d="M364,263 Q366,260 368,263" fill="none" stroke="#333" stroke-width="1.5"/>
      <path d="M372,263 Q374,260 376,263" fill="none" stroke="#333" stroke-width="1.5"/>
    <path d="M367,268 Q370,266 373,268" fill="none" stroke="#333" stroke-width="1"/>
      <line x1="370" y1="266" x2="370" y2="269" stroke="#333" stroke-width="1"/>
    <!-- whiskers -->
    <line x1="356" y1="265" x2="346" y2="262" stroke="#333" stroke-width="0.8"/>
    <line x1="356" y1="267" x2="346" y2="269" stroke="#333" stroke-width="0.8"/>
    <line x1="384" y1="265" x2="394" y2="262" stroke="#333" stroke-width="0.8"/>
    <line x1="384" y1="267" x2="394" y2="269" stroke="#333" stroke-width="0.8"/>
  </g><g transform="translate(370, 245) scale(1.3)">
      <polygon points="-8,0 -5,-10 -2,0" fill="#F9CA24"/>
      <polygon points="-2,0 1,-12 4,0" fill="#F9CA24"/>
      <polygon points="4,0 7,-10 10,0" fill="#F9CA24"/>
      <rect x="-9" y="0" width="20" height="4" fill="#F9CA24"/>
      <circle cx="1" cy="-10" r="2" fill="#E74C3C"/>
    </g><g transform="translate(250, 330)">
        <ellipse cx="0" cy="5" rx="10" ry="7" fill="#888"/>
        <circle cx="-8" cy="10" r="7" fill="#888"/>
        <circle cx="-8" cy="12" r="1.5" fill="#333"/>
        <line x1="-14" y1="8" x2="-20" y2="6" stroke="#888" stroke-width="0.6"/>
        <line x1="-14" y1="10" x2="-20" y2="12" stroke="#888" stroke-width="0.6"/>
        <path d="M8,2 Q15,-5 12,8" fill="none" stroke="#888" stroke-width="3"/>
      </g><g transform="translate(450, 330)">
        <ellipse cx="0" cy="5" rx="10" ry="7" fill="#888"/>
        <circle cx="-8" cy="10" r="7" fill="#888"/>
        <circle cx="-8" cy="12" r="1.5" fill="#333"/>
        <line x1="-14" y1="8" x2="-20" y2="6" stroke="#888" stroke-width="0.6"/>
        <line x1="-14" y1="10" x2="-20" y2="12" stroke="#888" stroke-width="0.6"/>
        <path d="M8,2 Q15,-5 12,8" fill="none" stroke="#888" stroke-width="3"/>
      </g><g transform="translate(550, 330)">
        <ellipse cx="0" cy="5" rx="10" ry="7" fill="#888"/>
        <circle cx="-8" cy="10" r="7" fill="#888"/>
        <circle cx="-8" cy="12" r="1.5" fill="#333"/>
        <line x1="-14" y1="8" x2="-20" y2="6" stroke="#888" stroke-width="0.6"/>
        <line x1="-14" y1="10" x2="-20" y2="12" stroke="#888" stroke-width="0.6"/>
        <path d="M8,2 Q15,-5 12,8" fill="none" stroke="#888" stroke-width="3"/>
      </g><g>
    <rect x="322.5" y="198" width="95" height="22" rx="10" fill="#fff" stroke="#333" stroke-width="1.5"/>
    <polygon points="365,220 375,220 370,230" fill="#fff"/>
    <text x="370" y="212.33333333333334" text-anchor="middle" font-size="10" font-family="Arial, sans-serif" fill="#333">Bow, peasants!</text>
  </g>
</svg>