<svg xmlns="http://www.w3.org/2000/svg" viewBox="0 0 800 500" width="800" height="500">
  <defs>
    <style>
      text { font-family: 'Arial', 'Helvetica', sans-serif; }
    </style>
  </defs>
  <rect width="800" height="500" fill="#87CEEB"/>
  <g transform="translate(100,40) scale(0.7)">
    <ellipse cx="0" cy="0" rx="40" ry="25" fill="#fff" opacity="0.9"/>
    <ellipse cx="-30" cy="5" rx="25" ry="18" fill="#fff" opacity="0.9"/>
    <ellipse cx="30" cy="5" rx="28" ry="20" fill="#fff" opacity="0.9"/>
    <ellipse cx="15" cy="-10" rx="20" ry="15" fill="#fff" opacity="0.9"/>
  </g><circle cx="680" cy="55" r="30" fill="#FFD93D"/>
    <g stroke="#FFD93D" stroke-width="3" fill="none">
      <line x1="718" y1="55" x2="730" y2="55"/><line x1="706.8700576850888" y1="81.8700576850888" x2="715.3553390593274" y2="90.35533905932738"/><line x1="680" y1="93" x2="680" y2="105"/><line x1="653.1299423149112" y1="81.87005768508881" x2="644.6446609406727" y2="90.35533905932738"/><line x1="642" y1="55.00000000000001" x2="630" y2="55.00000000000001"/><line x1="653.1299423149112" y1="28.129942314911197" x2="644.6446609406726" y2="19.64466094067263"/><line x1="680" y1="17" x2="680" y2="5"/><line x1="706.8700576850888" y1="28.129942314911187" x2="715.3553390593273" y2="19.644660940672615"/>
    </g><g transform="translate(400, 150)">
      <path d="M-100,-20 L0,-60 L100,-20" fill="#C0392B"/>
      <path d="M-85,-20 L0,-50 L85,-20" fill="#E74C3C"/>
      <rect x="-75" y="-20" width="150" height="70" fill="#F5E6CC"/>
      <rect x="-15" y="10" width="30" height="40" rx="12" fill="#8B4513"/>
    </g><line x1="250" y1="100" x2="250" y2="400" stroke="#8B7355" stroke-width="25"/><ellipse cx="250" cy="80" rx="100" ry="80" fill="#F9CA24"/><ellipse cx="200" cy="110" rx="60" ry="50" fill="#F5B041"/><ellipse cx="300" cy="110" rx="60" ry="50" fill="#F5B041"/><g transform="translate(238.72006414884515,223.22642354282797) rotate(319.1349783000098)">
    <path d="M0,0 Q-6,-10 0,-16 Q6,-10 0,0" fill="#F9CA24" opacity="0.8"/>
    <line x1="0" y1="0" x2="0" y2="4" stroke="#8B7355" stroke-width="0.5"/>
  </g><g transform="translate(279.66471148512744,106.19217616905814) rotate(2.327744769912079)">
    <path d="M0,0 Q-6,-10 0,-16 Q6,-10 0,0" fill="#F9CA24" opacity="0.8"/>
    <line x1="0" y1="0" x2="0" y2="4" stroke="#8B7355" stroke-width="0.5"/>
  </g><g transform="translate(271.3092952653143,302.0030693855405) rotate(191.6522776135924)">
    <path d="M0,0 Q-6,-10 0,-16 Q6,-10 0,0" fill="#F9CA24" opacity="0.8"/>
    <line x1="0" y1="0" x2="0" y2="4" stroke="#8B7355" stroke-width="0.5"/>
  </g><g transform="translate(153.11761273351777,318.1237886077025) rotate(125.14873464071131)">
    <path d="M0,0 Q-6,-10 0,-16 Q6,-10 0,0" fill="#F9CA24" opacity="0.8"/>
    <line x1="0" y1="0" x2="0" y2="4" stroke="#8B7355" stroke-width="0.5"/>
  </g><g transform="translate(221.19578663200863,100.98143858430994) rotate(280.4412007607713)">
    <path d="M0,0 Q-6,-10 0,-16 Q6,-10 0,0" fill="#F9CA24" opacity="0.8"/>
    <line x1="0" y1="0" x2="0" y2="4" stroke="#8B7355" stroke-width="0.5"/>
  </g><g transform="translate(264.4596656060038,184.69021734748907) rotate(145.65822914077822)">
    <path d="M0,0 Q-6,-10 0,-16 Q6,-10 0,0" fill="#F9CA24" opacity="0.8"/>
    <line x1="0" y1="0" x2="0" y2="4" stroke="#8B7355" stroke-width="0.5"/>
  </g><g transform="translate(320.84250352241577,319.3374284648446) rotate(278.9377923077087)">
    <path d="M0,0 Q-6,-10 0,-16 Q6,-10 0,0" fill="#F9CA24" opacity="0.8"/>
    <line x1="0" y1="0" x2="0" y2="4" stroke="#8B7355" stroke-width="0.5"/>
  </g><g transform="translate(307.702582018886,321.4980255590931) rotate(41.999591312812036)">
    <path d="M0,0 Q-6,-10 0,-16 Q6,-10 0,0" fill="#F9CA24" opacity="0.8"/>
    <line x1="0" y1="0" x2="0" y2="4" stroke="#8B7355" stroke-width="0.5"/>
  </g><g transform="translate(160.46919056458722,309.4667780245769) rotate(297.04883016704946)">
    <path d="M0,0 Q-6,-10 0,-16 Q6,-10 0,0" fill="#F9CA24" opacity="0.8"/>
    <line x1="0" y1="0" x2="0" y2="4" stroke="#8B7355" stroke-width="0.5"/>
  </g><g transform="translate(245.6833150219884,334.10153740633723) rotate(275.0456210880568)">
    <path d="M0,0 Q-6,-10 0,-16 Q6,-10 0,0" fill="#F9CA24" opacity="0.8"/>
    <line x1="0" y1="0" x2="0" y2="4" stroke="#8B7355" stroke-width="0.5"/>
  </g><g transform="translate(217.87112529373843,113.3080345828868) rotate(151.07751335049056)">
    <path d="M0,0 Q-6,-10 0,-16 Q6,-10 0,0" fill="#F9CA24" opacity="0.8"/>
    <line x1="0" y1="0" x2="0" y2="4" stroke="#8B7355" stroke-width="0.5"/>
  </g><g transform="translate(280.9469647390854,273.52023174175815) rotate(1.5004576670311476)">
    <path d="M0,0 Q-6,-10 0,-16 Q6,-10 0,0" fill="#F9CA24" opacity="0.8"/>
    <line x1="0" y1="0" x2="0" y2="4" stroke="#8B7355" stroke-width="0.5"/>
  </g><g transform="translate(278.3455417765171,288.89839710771355) rotate(77.29217439983454)">
    <path d="M0,0 Q-6,-10 0,-16 Q6,-10 0,0" fill="#F9CA24" opacity="0.8"/>
    <line x1="0" y1="0" x2="0" y2="4" stroke="#8B7355" stroke-width="0.5"/>
  </g><g transform="translate(284.5167454251537,197.60221674576877) rotate(92.9105074919991)">
    <path d="M0,0 Q-6,-10 0,-16 Q6,-10 0,0" fill="#F9CA24" opacity="0.8"/>
    <line x1="0" y1="0" x2="0" y2="4" stroke="#8B7355" stroke-width="0.5"/>
  </g><g transform="translate(173.6787571656667,146.61090908524355) rotate(254.48840128235392)">
    <path d="M0,0 Q-6,-10 0,-16 Q6,-10 0,0" fill="#F9CA24" opacity="0.8"/>
    <line x1="0" y1="0" x2="0" y2="4" stroke="#8B7355" stroke-width="0.5"/>
  </g><g transform="translate(188.49777304304652,181.8451315742089) rotate(351.80422314752707)">
    <path d="M0,0 Q-6,-10 0,-16 Q6,-10 0,0" fill="#F9CA24" opacity="0.8"/>
    <line x1="0" y1="0" x2="0" y2="4" stroke="#8B7355" stroke-width="0.5"/>
  </g><g transform="translate(264.8485702442898,184.33001696005886) rotate(262.84577308344643)">
    <path d="M0,0 Q-6,-10 0,-16 Q6,-10 0,0" fill="#F9CA24" opacity="0.8"/>
    <line x1="0" y1="0" x2="0" y2="4" stroke="#8B7355" stroke-width="0.5"/>
  </g><g transform="translate(292.80002823487723,262.0417782671612) rotate(326.5030645137753)">
    <path d="M0,0 Q-6,-10 0,-16 Q6,-10 0,0" fill="#F9CA24" opacity="0.8"/>
    <line x1="0" y1="0" x2="0" y2="4" stroke="#8B7355" stroke-width="0.5"/>
  </g><g transform="translate(200.36330540887934,212.6386445403119) rotate(204.92041230901103)">
    <path d="M0,0 Q-6,-10 0,-16 Q6,-10 0,0" fill="#F9CA24" opacity="0.8"/>
    <line x1="0" y1="0" x2="0" y2="4" stroke="#8B7355" stroke-width="0.5"/>
  </g><g transform="translate(333.1885125362876,365.520153005678) rotate(136.37236432363872)">
    <path d="M0,0 Q-6,-10 0,-16 Q6,-10 0,0" fill="#F9CA24" opacity="0.8"/>
    <line x1="0" y1="0" x2="0" y2="4" stroke="#8B7355" stroke-width="0.5"/>
  </g><g transform="translate(206.52443861608182,357.1833593545141) rotate(13.138773110759988)">
    <path d="M0,0 Q-6,-10 0,-16 Q6,-10 0,0" fill="#F9CA24" opacity="0.8"/>
    <line x1="0" y1="0" x2="0" y2="4" stroke="#8B7355" stroke-width="0.5"/>
  </g><g transform="translate(237.78807246101866,235.1332678950008) rotate(61.048414328053966)">
    <path d="M0,0 Q-6,-10 0,-16 Q6,-10 0,0" fill="#F9CA24" opacity="0.8"/>
    <line x1="0" y1="0" x2="0" y2="4" stroke="#8B7355" stroke-width="0.5"/>
  </g><g transform="translate(235.14082923176178,324.02170794873246) rotate(255.71136208396865)">
    <path d="M0,0 Q-6,-10 0,-16 Q6,-10 0,0" fill="#F9CA24" opacity="0.8"/>
    <line x1="0" y1="0" x2="0" y2="4" stroke="#8B7355" stroke-width="0.5"/>
  </g><g transform="translate(182.36719305685637,328.1541836499965) rotate(284.95716179571116)">
    <path d="M0,0 Q-6,-10 0,-16 Q6,-10 0,0" fill="#F9CA24" opacity="0.8"/>
    <line x1="0" y1="0" x2="0" y2="4" stroke="#8B7355" stroke-width="0.5"/>
  </g><g transform="translate(203.7370038085475,382.8925667865882) rotate(332.51290873938734)">
    <path d="M0,0 Q-6,-10 0,-16 Q6,-10 0,0" fill="#F9CA24" opacity="0.8"/>
    <line x1="0" y1="0" x2="0" y2="4" stroke="#8B7355" stroke-width="0.5"/>
  </g><g transform="translate(161.76419426777903,218.66194692738958) rotate(137.46630385385345)">
    <path d="M0,0 Q-6,-10 0,-16 Q6,-10 0,0" fill="#F9CA24" opacity="0.8"/>
    <line x1="0" y1="0" x2="0" y2="4" stroke="#8B7355" stroke-width="0.5"/>
  </g><g transform="translate(221.4452832885655,331.7539452724676) rotate(281.5321828912143)">
    <path d="M0,0 Q-6,-10 0,-16 Q6,-10 0,0" fill="#F9CA24" opacity="0.8"/>
    <line x1="0" y1="0" x2="0" y2="4" stroke="#8B7355" stroke-width="0.5"/>
  </g><g transform="translate(221.625622210006,121.6170492489571) rotate(248.538636051427)">
    <path d="M0,0 Q-6,-10 0,-16 Q6,-10 0,0" fill="#F9CA24" opacity="0.8"/>
    <line x1="0" y1="0" x2="0" y2="4" stroke="#8B7355" stroke-width="0.5"/>
  </g><g transform="translate(176.08717714144396,179.19722157103388) rotate(71.20875751496858)">
    <path d="M0,0 Q-6,-10 0,-16 Q6,-10 0,0" fill="#F9CA24" opacity="0.8"/>
    <line x1="0" y1="0" x2="0" y2="4" stroke="#8B7355" stroke-width="0.5"/>
  </g><g transform="translate(187.7600492337522,196.47105866704055) rotate(299.5551845265945)">
    <path d="M0,0 Q-6,-10 0,-16 Q6,-10 0,0" fill="#F9CA24" opacity="0.8"/>
    <line x1="0" y1="0" x2="0" y2="4" stroke="#8B7355" stroke-width="0.5"/>
  </g><g transform="translate(331.90585221186177,146.68052560109288) rotate(267.3857449437519)">
    <path d="M0,0 Q-6,-10 0,-16 Q6,-10 0,0" fill="#F9CA24" opacity="0.8"/>
    <line x1="0" y1="0" x2="0" y2="4" stroke="#8B7355" stroke-width="0.5"/>
  </g><g transform="translate(293.86720972532635,248.01661264615436) rotate(6.9251958772710465)">
    <path d="M0,0 Q-6,-10 0,-16 Q6,-10 0,0" fill="#F9CA24" opacity="0.8"/>
    <line x1="0" y1="0" x2="0" y2="4" stroke="#8B7355" stroke-width="0.5"/>
  </g><g transform="translate(243.65668420335885,157.54580228911232) rotate(88.56857881029555)">
    <path d="M0,0 Q-6,-10 0,-16 Q6,-10 0,0" fill="#F9CA24" opacity="0.8"/>
    <line x1="0" y1="0" x2="0" y2="4" stroke="#8B7355" stroke-width="0.5"/>
  </g><g transform="translate(324.46500814432704,349.36862737564206) rotate(3.718530297668714)">
    <path d="M0,0 Q-6,-10 0,-16 Q6,-10 0,0" fill="#F9CA24" opacity="0.8"/>
    <line x1="0" y1="0" x2="0" y2="4" stroke="#8B7355" stroke-width="0.5"/>
  </g><g transform="translate(238.30434450951827,127.64550655197769) rotate(98.4485347040677)">
    <path d="M0,0 Q-6,-10 0,-16 Q6,-10 0,0" fill="#F9CA24" opacity="0.8"/>
    <line x1="0" y1="0" x2="0" y2="4" stroke="#8B7355" stroke-width="0.5"/>
  </g><g transform="translate(245.4140465430726,174.36814354803568) rotate(79.78582585524589)">
    <path d="M0,0 Q-6,-10 0,-16 Q6,-10 0,0" fill="#F9CA24" opacity="0.8"/>
    <line x1="0" y1="0" x2="0" y2="4" stroke="#8B7355" stroke-width="0.5"/>
  </g><g transform="translate(243.23752974795804,335.7605764813577) rotate(15.457708107140867)">
    <path d="M0,0 Q-6,-10 0,-16 Q6,-10 0,0" fill="#F9CA24" opacity="0.8"/>
    <line x1="0" y1="0" x2="0" y2="4" stroke="#8B7355" stroke-width="0.5"/>
  </g><g transform="translate(272.0656722715961,156.18450844621748) rotate(332.32047730262803)">
    <path d="M0,0 Q-6,-10 0,-16 Q6,-10 0,0" fill="#F9CA24" opacity="0.8"/>
    <line x1="0" y1="0" x2="0" y2="4" stroke="#8B7355" stroke-width="0.5"/>
  </g><g transform="translate(175.03459189742597,154.92709463278499) rotate(145.55985309231266)">
    <path d="M0,0 Q-6,-10 0,-16 Q6,-10 0,0" fill="#F9CA24" opacity="0.8"/>
    <line x1="0" y1="0" x2="0" y2="4" stroke="#8B7355" stroke-width="0.5"/>
  </g><g transform="translate(324.8268029282465,249.30841128980117) rotate(168.2951333950312)">
    <path d="M0,0 Q-6,-10 0,-16 Q6,-10 0,0" fill="#F9CA24" opacity="0.8"/>
    <line x1="0" y1="0" x2="0" y2="4" stroke="#8B7355" stroke-width="0.5"/>
  </g><g transform="translate(204.84407683491207,184.24712882540817) rotate(273.88970784242684)">
    <path d="M0,0 Q-6,-10 0,-16 Q6,-10 0,0" fill="#F9CA24" opacity="0.8"/>
    <line x1="0" y1="0" x2="0" y2="4" stroke="#8B7355" stroke-width="0.5"/>
  </g><g transform="translate(292.8353596435069,373.9490848734) rotate(50.02394856209057)">
    <path d="M0,0 Q-6,-10 0,-16 Q6,-10 0,0" fill="#F9CA24" opacity="0.8"/>
    <line x1="0" y1="0" x2="0" y2="4" stroke="#8B7355" stroke-width="0.5"/>
  </g><g transform="translate(292.53565037140856,144.20586903732243) rotate(118.87424948344793)">
    <path d="M0,0 Q-6,-10 0,-16 Q6,-10 0,0" fill="#F9CA24" opacity="0.8"/>
    <line x1="0" y1="0" x2="0" y2="4" stroke="#8B7355" stroke-width="0.5"/>
  </g><g transform="translate(214.64939452158396,297.1815471596109) rotate(144.17356722524787)">
    <path d="M0,0 Q-6,-10 0,-16 Q6,-10 0,0" fill="#F9CA24" opacity="0.8"/>
    <line x1="0" y1="0" x2="0" y2="4" stroke="#8B7355" stroke-width="0.5"/>
  </g><g transform="translate(309.3313142782282,245.23423563974416) rotate(277.45209753396534)">
    <path d="M0,0 Q-6,-10 0,-16 Q6,-10 0,0" fill="#F9CA24" opacity="0.8"/>
    <line x1="0" y1="0" x2="0" y2="4" stroke="#8B7355" stroke-width="0.5"/>
  </g><g transform="translate(190.03917108136318,371.34485489270656) rotate(69.61074381483344)">
    <path d="M0,0 Q-6,-10 0,-16 Q6,-10 0,0" fill="#F9CA24" opacity="0.8"/>
    <line x1="0" y1="0" x2="0" y2="4" stroke="#8B7355" stroke-width="0.5"/>
  </g><g transform="translate(169.17163864938726,294.3725186643785) rotate(43.48842027798618)">
    <path d="M0,0 Q-6,-10 0,-16 Q6,-10 0,0" fill="#F9CA24" opacity="0.8"/>
    <line x1="0" y1="0" x2="0" y2="4" stroke="#8B7355" stroke-width="0.5"/>
  </g><g transform="translate(168.77156824004447,128.09303045365817) rotate(88.59161244807377)">
    <path d="M0,0 Q-6,-10 0,-16 Q6,-10 0,0" fill="#F9CA24" opacity="0.8"/>
    <line x1="0" y1="0" x2="0" y2="4" stroke="#8B7355" stroke-width="0.5"/>
  </g><g transform="translate(303.5965902367182,244.08048995668648) rotate(299.843391288855)">
    <path d="M0,0 Q-6,-10 0,-16 Q6,-10 0,0" fill="#F9CA24" opacity="0.8"/>
    <line x1="0" y1="0" x2="0" y2="4" stroke="#8B7355" stroke-width="0.5"/>
  </g><g transform="translate(189.10960236288366,228.2979443157233) rotate(242.12343480703785)">
    <path d="M0,0 Q-6,-10 0,-16 Q6,-10 0,0" fill="#F9CA24" opacity="0.8"/>
    <line x1="0" y1="0" x2="0" y2="4" stroke="#8B7355" stroke-width="0.5"/>
  </g><g transform="translate(279.2862985438841,352.47683052065656) rotate(239.86359412950253)">
    <path d="M0,0 Q-6,-10 0,-16 Q6,-10 0,0" fill="#F9CA24" opacity="0.8"/>
    <line x1="0" y1="0" x2="0" y2="4" stroke="#8B7355" stroke-width="0.5"/>
  </g><g transform="translate(247.52600204333083,365.4741837832252) rotate(43.94683618127327)">
    <path d="M0,0 Q-6,-10 0,-16 Q6,-10 0,0" fill="#F9CA24" opacity="0.8"/>
    <line x1="0" y1="0" x2="0" y2="4" stroke="#8B7355" stroke-width="0.5"/>
  </g><g transform="translate(165.328572536004,167.7150562060167) rotate(38.346370340585295)">
    <path d="M0,0 Q-6,-10 0,-16 Q6,-10 0,0" fill="#F9CA24" opacity="0.8"/>
    <line x1="0" y1="0" x2="0" y2="4" stroke="#8B7355" stroke-width="0.5"/>
  </g><g transform="translate(236.77926786474444,370.18279696550405) rotate(125.34970445023934)">
    <path d="M0,0 Q-6,-10 0,-16 Q6,-10 0,0" fill="#F9CA24" opacity="0.8"/>
    <line x1="0" y1="0" x2="0" y2="4" stroke="#8B7355" stroke-width="0.5"/>
  </g><g transform="translate(230.26425475900533,299.2303580438763) rotate(256.4093319009154)">
    <path d="M0,0 Q-6,-10 0,-16 Q6,-10 0,0" fill="#F9CA24" opacity="0.8"/>
    <line x1="0" y1="0" x2="0" y2="4" stroke="#8B7355" stroke-width="0.5"/>
  </g><g transform="translate(323.3574332387893,107.32813225228651) rotate(105.29101903211054)">
    <path d="M0,0 Q-6,-10 0,-16 Q6,-10 0,0" fill="#F9CA24" opacity="0.8"/>
    <line x1="0" y1="0" x2="0" y2="4" stroke="#8B7355" stroke-width="0.5"/>
  </g><g transform="translate(294.46599376015615,383.19306424085505) rotate(339.75321530599956)">
    <path d="M0,0 Q-6,-10 0,-16 Q6,-10 0,0" fill="#F9CA24" opacity="0.8"/>
    <line x1="0" y1="0" x2="0" y2="4" stroke="#8B7355" stroke-width="0.5"/>
  </g><g transform="translate(321.4410986065657,104.05278787295308) rotate(299.8265526951877)">
    <path d="M0,0 Q-6,-10 0,-16 Q6,-10 0,0" fill="#F9CA24" opacity="0.8"/>
    <line x1="0" y1="0" x2="0" y2="4" stroke="#8B7355" stroke-width="0.5"/>
  </g><g transform="translate(301.29254086913795,189.03955361933868) rotate(349.93933213316143)">
    <path d="M0,0 Q-6,-10 0,-16 Q6,-10 0,0" fill="#F9CA24" opacity="0.8"/>
    <line x1="0" y1="0" x2="0" y2="4" stroke="#8B7355" stroke-width="0.5"/>
  </g><g transform="translate(179.56091379333378,156.65046908165425) rotate(317.6759843456513)">
    <path d="M0,0 Q-6,-10 0,-16 Q6,-10 0,0" fill="#F9CA24" opacity="0.8"/>
    <line x1="0" y1="0" x2="0" y2="4" stroke="#8B7355" stroke-width="0.5"/>
  </g><ellipse cx="250" cy="400" rx="150" ry="50" fill="#F9CA24" opacity="0.7"/><ellipse cx="250" cy="410" rx="120" ry="40" fill="#F5B041" opacity="0.6"/><ellipse cx="250" cy="390" rx="100" ry="35" fill="#F9CA24" opacity="0.8"/><g transform="translate(280, 365)">
      <ellipse cx="0" cy="0" rx="8" ry="6" fill="#3498DB" transform="rotate(-20)"/>
      <ellipse cx="15" cy="2" rx="8" ry="6" fill="#3498DB" transform="rotate(-15)"/>
    </g><g>
      <rect x="305" y="370" width="80" height="25" rx="10" fill="#fff" stroke="#333" stroke-width="1.5"/>
      <text x="345" y="387" text-anchor="middle" font-size="10" fill="#333">Help...?</text>
    </g><text x="250" y="350" text-anchor="middle" font-size="8" fill="#333" opacity="0.5">*was meditating*</text>
</svg>