<svg xmlns="http://www.w3.org/2000/svg" viewBox="0 0 800 500" width="800" height="500">
  <defs>
    <style>
      text { font-family: 'Arial', 'Helvetica', sans-serif; }
    </style>
  </defs>
  <rect width="800" height="500" fill="#87CEEB"/>
  <g transform="translate(100,40) scale(1)">
    <ellipse cx="0" cy="0" rx="40" ry="25" fill="#fff" opacity="0.9"/>
    <ellipse cx="-30" cy="5" rx="25" ry="18" fill="#fff" opacity="0.9"/>
    <ellipse cx="30" cy="5" rx="28" ry="20" fill="#fff" opacity="0.9"/>
    <ellipse cx="15" cy="-10" rx="20" ry="15" fill="#fff" opacity="0.9"/>
  </g><circle cx="680" cy="55" r="30" fill="#FFD93D"/>
    <g stroke="#FFD93D" stroke-width="3" fill="none">
      <line x1="718" y1="55" x2="730" y2="55"/><line x1="706.8700576850888" y1="81.8700576850888" x2="715.3553390593274" y2="90.35533905932738"/><line x1="680" y1="93" x2="680" y2="105"/><line x1="653.1299423149112" y1="81.87005768508881" x2="644.6446609406727" y2="90.35533905932738"/><line x1="642" y1="55.00000000000001" x2="630" y2="55.00000000000001"/><line x1="653.1299423149112" y1="28.129942314911197" x2="644.6446609406726" y2="19.64466094067263"/><line x1="680" y1="17" x2="680" y2="5"/><line x1="706.8700576850888" y1="28.129942314911187" x2="715.3553390593273" y2="19.644660940672615"/>
    </g><polygon points="200,150 50,300 350,300" fill="#6C9A8B"/>
    <polygon points="200,150 155,195 245,195" fill="#fff" opacity="0.6"/><polygon points="600,120 425,300 775,300" fill="#5D8A7B"/>
    <polygon points="600,120 547.5,174 652.5,174" fill="#fff" opacity="0.6"/><rect x="0" y="300" width="800" height="200" fill="#5DADE2"/>
    <path d="M0,315 Q50,308 100,315 Q150,322 200,315" fill="none" stroke="#fff" stroke-width="1.5" opacity="0.5"/><path d="M200,315 Q250,308 300,315 Q350,322 400,315" fill="none" stroke="#fff" stroke-width="1.5" opacity="0.5"/><path d="M400,315 Q450,308 500,315 Q550,322 600,315" fill="none" stroke="#fff" stroke-width="1.5" opacity="0.5"/><path d="M600,315 Q650,308 700,315 Q750,322 800,315" fill="none" stroke="#fff" stroke-width="1.5" opacity="0.5"/><path d="M800,315 Q850,308 900,315 Q950,322 1000,315" fill="none" stroke="#fff" stroke-width="1.5" opacity="0.5"/><g opacity="0.6">
      <rect x="200" y="330" width="150" height="25" fill="#C4A882" stroke="#8B7355" stroke-width="1"/><rect x="200" y="320" width="8" height="12" fill="#C4A882" stroke="#8B7355" stroke-width="0.8"/><rect x="215" y="320" width="8" height="12" fill="#C4A882" stroke="#8B7355" stroke-width="0.8"/><rect x="230" y="320" width="8" height="12" fill="#C4A882" stroke="#8B7355" stroke-width="0.8"/><rect x="245" y="320" width="8" height="12" fill="#C4A882" stroke="#8B7355" stroke-width="0.8"/><rect x="260" y="320" width="8" height="12" fill="#C4A882" stroke="#8B7355" stroke-width="0.8"/><rect x="275" y="320" width="8" height="12" fill="#C4A882" stroke="#8B7355" stroke-width="0.8"/><rect x="290" y="320" width="8" height="12" fill="#C4A882" stroke="#8B7355" stroke-width="0.8"/><rect x="305" y="320" width="8" height="12" fill="#C4A882" stroke="#8B7355" stroke-width="0.8"/><rect x="320" y="320" width="8" height="12" fill="#C4A882" stroke="#8B7355" stroke-width="0.8"/><rect x="335" y="320" width="8" height="12" fill="#C4A882" stroke="#8B7355" stroke-width="0.8"/>
      <rect x="400" y="350" width="200" height="25" fill="#C4A882" stroke="#8B7355" stroke-width="1"/><rect x="400" y="340" width="8" height="12" fill="#C4A882" stroke="#8B7355" stroke-width="0.8"/><rect x="415" y="340" width="8" height="12" fill="#C4A882" stroke="#8B7355" stroke-width="0.8"/><rect x="430" y="340" width="8" height="12" fill="#C4A882" stroke="#8B7355" stroke-width="0.8"/><rect x="445" y="340" width="8" height="12" fill="#C4A882" stroke="#8B7355" stroke-width="0.8"/><rect x="460" y="340" width="8" height="12" fill="#C4A882" stroke="#8B7355" stroke-width="0.8"/><rect x="475" y="340" width="8" height="12" fill="#C4A882" stroke="#8B7355" stroke-width="0.8"/><rect x="490" y="340" width="8" height="12" fill="#C4A882" stroke="#8B7355" stroke-width="0.8"/><rect x="505" y="340" width="8" height="12" fill="#C4A882" stroke="#8B7355" stroke-width="0.8"/><rect x="520" y="340" width="8" height="12" fill="#C4A882" stroke="#8B7355" stroke-width="0.8"/><rect x="535" y="340" width="8" height="12" fill="#C4A882" stroke="#8B7355" stroke-width="0.8"/><rect x="550" y="340" width="8" height="12" fill="#C4A882" stroke="#8B7355" stroke-width="0.8"/><rect x="565" y="340" width="8" height="12" fill="#C4A882" stroke="#8B7355" stroke-width="0.8"/><rect x="580" y="340" width="8" height="12" fill="#C4A882" stroke="#8B7355" stroke-width="0.8"/><rect x="595" y="340" width="8" height="12" fill="#C4A882" stroke="#8B7355" stroke-width="0.8"/>
    </g><rect x="100" y="280" width="180" height="25" fill="#C4A882" stroke="#8B7355" stroke-width="1"/><rect x="100" y="270" width="8" height="12" fill="#C4A882" stroke="#8B7355" stroke-width="0.8"/><rect x="115" y="270" width="8" height="12" fill="#C4A882" stroke="#8B7355" stroke-width="0.8"/><rect x="130" y="270" width="8" height="12" fill="#C4A882" stroke="#8B7355" stroke-width="0.8"/><rect x="145" y="270" width="8" height="12" fill="#C4A882" stroke="#8B7355" stroke-width="0.8"/><rect x="160" y="270" width="8" height="12" fill="#C4A882" stroke="#8B7355" stroke-width="0.8"/><rect x="175" y="270" width="8" height="12" fill="#C4A882" stroke="#8B7355" stroke-width="0.8"/><rect x="190" y="270" width="8" height="12" fill="#C4A882" stroke="#8B7355" stroke-width="0.8"/><rect x="205" y="270" width="8" height="12" fill="#C4A882" stroke="#8B7355" stroke-width="0.8"/><rect x="220" y="270" width="8" height="12" fill="#C4A882" stroke="#8B7355" stroke-width="0.8"/><rect x="235" y="270" width="8" height="12" fill="#C4A882" stroke="#8B7355" stroke-width="0.8"/><rect x="250" y="270" width="8" height="12" fill="#C4A882" stroke="#8B7355" stroke-width="0.8"/><rect x="265" y="270" width="8" height="12" fill="#C4A882" stroke="#8B7355" stroke-width="0.8"/><g transform="translate(300, 370)">
      <ellipse cx="0" cy="0" rx="15" ry="8" fill="#F39C12"/>
      <polygon points="12,0 22,-8 22,8" fill="#E67E22"/>
      <circle cx="-5" cy="-2" r="2.5" fill="#fff"/>
      <circle cx="-5" cy="-2" r="1.2" fill="#333"/>
      <path d="M-8,3 Q-4,6 0,3" fill="none" stroke="#333" stroke-width="1"/>
    </g><g transform="translate(420, 380)">
      <ellipse cx="0" cy="0" rx="12" ry="7" fill="#3498DB"/>
      <polygon points="10,0 18,-6 18,6" fill="#2980B9"/>
      <circle cx="-4" cy="-2" r="2" fill="#fff"/>
      <circle cx="-4" cy="-2" r="1" fill="#333"/>
    </g><g transform="translate(500, 360)">
      <ellipse cx="0" cy="0" rx="18" ry="10" fill="#E74C3C"/>
      <polygon points="14,0 26,-10 26,10" fill="#C0392B"/>
      <circle cx="-6" cy="-3" r="3" fill="#fff"/>
      <circle cx="-6" cy="-3" r="1.5" fill="#333"/>
      <path d="M-10,4 Q-5,8 0,4" fill="none" stroke="#333" stroke-width="1.2"/>
      <rect x="-12" y="-16" width="18" height="10" rx="2" fill="#F9CA24"/>
      <rect x="-14" y="-8" width="22" height="3" fill="#F39C12"/>
      <polygon points="-10,-16 -7,-22 -4,-16" fill="#F9CA24"/>
      <polygon points="-2,-16 1,-24 4,-16" fill="#F9CA24"/>
      <polygon points="2,-16 5,-20 8,-16" fill="#F9CA24"/>
      <circle cx="1" cy="-22" r="2" fill="#E74C3C"/>
    </g><circle cx="547.8988362067134" cy="397.137858095281" r="2.8618469662825756" fill="none" stroke="#fff" stroke-width="1" opacity="0.4"/><circle cx="447.1438391703039" cy="333.8522697146563" r="4.866351654091008" fill="none" stroke="#fff" stroke-width="1" opacity="0.4"/><circle cx="280.4542438875561" cy="357.7482157061459" r="5.27049479178395" fill="none" stroke="#fff" stroke-width="1" opacity="0.4"/><circle cx="473.5936241691269" cy="366.0808873895625" r="5.272135260853142" fill="none" stroke="#fff" stroke-width="1" opacity="0.4"/><circle cx="553.6239542097683" cy="337.5686369150629" r="2.3378166260187028" fill="none" stroke="#fff" stroke-width="1" opacity="0.4"/><circle cx="412.45203314084154" cy="379.1985696497791" r="3.2163728090506325" fill="none" stroke="#fff" stroke-width="1" opacity="0.4"/><circle cx="285.21839384242827" cy="384.0835872689436" r="3.1670593820700117" fill="none" stroke="#fff" stroke-width="1" opacity="0.4"/><circle cx="493.46973226186196" cy="344.059090067583" r="5.772042026445606" fill="none" stroke="#fff" stroke-width="1" opacity="0.4"/><circle cx="483.8956777678307" cy="355.5306628338186" r="2.156503195034436" fill="none" stroke="#fff" stroke-width="1" opacity="0.4"/><circle cx="330.04431525296724" cy="363.6710990725542" r="3.5660915994296984" fill="none" stroke="#fff" stroke-width="1" opacity="0.4"/><g>
    <rect x="455" y="285" width="90" height="25" rx="10" fill="#fff" stroke="#333" stroke-width="1.5"/>
    <polygon points="495,310 505,310 500,320" fill="#fff"/>
    <text x="500" y="300.8333333333333" text-anchor="middle" font-size="10" font-family="Arial, sans-serif" fill="#333">I am Emperor!</text>
  </g>
</svg>